<svg width="175" height="113" viewBox="0 0 175 113" fill="none" xmlns="http://www.w3.org/2000/svg">
<path d="M5.98336 84.9229C3.80329 84.3448 3.26276 84.1113 3.26276 83.2638V83.2278C3.26276 82.5975 3.80328 82.1288 4.88434 82.1288C5.96539 82.1288 7.03011 82.5975 8.16506 83.3715L9.60701 81.2813C8.30876 80.2541 6.777 79.6777 4.92026 79.6777C2.32541 79.6777 0.5046 81.1915 0.5046 83.481V83.5169C0.5046 86.004 2.12618 86.7437 4.68674 87.3741C6.79496 87.8966 7.22771 88.2755 7.22771 88.9777V89.0136C7.22771 89.7534 6.56144 90.2041 5.4069 90.2041C3.96495 90.2041 2.79408 89.6097 1.63954 88.6723L0 90.6368C1.5138 92.0069 3.42442 92.6552 5.35301 92.6552C8.07524 92.6552 9.98586 91.2492 9.98586 88.7442V88.7082C9.98586 86.5086 8.54392 85.6071 5.98336 84.9229Z" fill="white"/>
<path d="M19.8819 79.8573L16.8183 84.9229L13.8071 79.8573H10.5623L15.4123 87.4998V92.4756H18.1884V87.4459L23.0368 79.8573H19.8819Z" fill="white"/>
<path d="M29.9232 79.8573H24.7678V92.4756H27.5439V88.6903H29.6522C32.4822 88.6903 34.7537 87.1944 34.7537 84.255V84.2191C34.7537 81.6242 32.9329 79.8573 29.9232 79.8573ZM31.9416 84.3089C31.9416 85.3916 31.1317 86.2212 29.7436 86.2212H27.5439V82.3624H29.6881C31.0761 82.3624 31.9416 83.0303 31.9416 84.273V84.3089Z" fill="white"/>
<path d="M44.7053 79.8573V84.8511H39.5858V79.8573H36.8097V92.4756H39.5858V87.41H44.7053V92.4756H47.4814V79.8573H44.7053Z" fill="white"/>
<path d="M51.2684 90.0065V92.4756H60.1177V90.0065H51.2684ZM60.0279 79.8573H51.2684V82.3264H60.0279V79.8573ZM59.2163 84.887H51.2684V87.3561H59.2163V84.887Z" fill="#D19D0B"/>
<path d="M70.4105 87.9685C72.0158 87.3741 73.1148 86.0938 73.1148 84.0574V84.0215C73.1148 82.8131 72.7539 81.8578 72.0338 81.1376C71.1862 80.2901 69.9598 79.8573 68.3562 79.8573H62.5868V92.4756H65.3629V88.4372H67.5446L70.2489 92.4756H73.4937L70.4105 87.9685ZM70.3028 84.2011C70.3028 85.2822 69.545 85.986 68.175 85.986H65.3629V82.3624H68.1211C69.4912 82.3624 70.3028 82.9584 70.3028 84.1652V84.2011Z" fill="white"/>
<path d="M87.9148 79.7675H85.3543L79.9474 92.4756H82.7774L83.9303 89.6456H89.267L90.4199 92.4756H93.3218L87.9148 79.7675ZM84.9232 87.1944L86.5986 83.1021L88.2757 87.1944H84.9232Z" fill="white"/>
<path d="M103.778 88.6544C102.787 89.5737 101.903 90.1322 100.461 90.1322C98.2975 90.1322 96.8016 88.3294 96.8016 86.1657V86.1297C96.8016 83.9676 98.3334 82.2007 100.461 82.2007C101.741 82.2007 102.697 82.7412 103.688 83.6247L105.455 81.5883C104.3 80.4338 102.841 79.6401 100.479 79.6401C96.604 79.6401 93.8998 82.5796 93.8998 86.1657V86.2016C93.8998 89.8252 96.6579 92.6912 100.371 92.6912C102.823 92.6912 104.247 91.8257 105.545 90.4376L103.778 88.6544Z" fill="white"/>
<path d="M114.647 79.7675H112.088L106.681 92.4756H109.511L110.664 89.6456H115.999L117.154 92.4756H120.056L114.647 79.7675ZM111.656 87.1944L113.333 83.1021L115.008 87.1944H111.656Z" fill="white"/>
<path d="M126.924 79.8573H122.004V92.4756H126.924C130.889 92.4756 133.629 89.7175 133.629 86.1657V86.1297C133.629 82.5796 130.889 79.8573 126.924 79.8573ZM130.727 86.2016C130.727 88.4372 129.178 89.9689 126.924 89.9689H124.778V82.3624H126.924C129.178 82.3624 130.727 83.9317 130.727 86.1657V86.2016Z" fill="white"/>
<path d="M138.858 90.0065V87.3561H144.806V84.887H138.858V82.3264H145.617V79.8573H136.1V92.4756H145.707V90.0065H138.858Z" fill="white"/>
<path d="M157.803 79.8573L154.486 85.1924L151.169 79.8573H148.178V92.4756H150.9V84.2909L154.414 89.6276H154.486L158.038 84.2371V92.4756H160.796V79.8573H157.803Z" fill="white"/>
<path d="M171.847 79.8573L168.782 84.9229L165.772 79.8573H162.527L167.376 87.4998V92.4756H170.152V87.4459L175 79.8573H171.847Z" fill="white"/>
<path d="M32.719 97.9282V100.846C32.719 101.78 32.234 102.251 31.4436 102.251C30.6402 102.251 30.1617 101.759 30.1617 100.81V97.9282H29.2717V100.846C29.2717 102.316 30.1193 103.077 31.4289 103.077C32.7549 103.077 33.609 102.316 33.609 100.802V97.9282H32.719Z" fill="#D19D0B"/>
<path d="M39.1776 97.9282V101.433L36.4619 97.9282H35.6356V102.997H36.5125V99.3914L39.3066 102.997H40.0529V97.9282H39.1776Z" fill="#D19D0B"/>
<path d="M43.0511 102.185V97.9282H42.1594V102.997H45.7145V102.185H43.0511Z" fill="#D19D0B"/>
<path d="M49.5603 97.8417C48.0024 97.8417 46.9017 99.0436 46.9017 100.463V100.477C46.9017 101.903 47.9893 103.084 49.5456 103.084C51.1018 103.084 52.2025 101.882 52.2025 100.463V100.448C52.2025 99.0207 51.1165 97.8417 49.5603 97.8417ZM51.2684 100.477C51.2684 101.462 50.5662 102.257 49.5603 102.257C48.5462 102.257 47.8358 101.447 47.8358 100.463V100.448C47.8358 99.4632 48.5396 98.6663 49.5456 98.6663C50.5597 98.6663 51.2684 99.4779 51.2684 100.463V100.477Z" fill="#D19D0B"/>
<path d="M57.9229 101.606C57.4885 102.012 57.0819 102.257 56.4679 102.257C55.4963 102.257 54.7941 101.454 54.7941 100.463V100.448C54.7941 99.4551 55.5044 98.6663 56.4597 98.6663C57.046 98.6663 57.4738 98.9129 57.887 99.2901L58.4585 98.6304C57.9735 98.1666 57.4085 97.8417 56.4679 97.8417C54.9394 97.8417 53.86 99.0207 53.86 100.463V100.477C53.86 101.932 54.9606 103.084 56.4385 103.084C57.3791 103.084 57.9801 102.744 58.4945 102.185L57.9229 101.606Z" fill="#D19D0B"/>
<path d="M62.5281 100.108L64.6412 97.9282H63.534L61.1302 100.477V97.9282H60.2402V102.997H61.1302V101.527L61.919 100.716L63.65 102.997H64.7359L62.5281 100.108Z" fill="#D19D0B"/>
<path d="M72.6575 97.9282L71.2238 100.165L69.8112 97.9282H68.7546L70.7665 100.998V102.997H71.6647V100.977L73.6782 97.9282H72.6575Z" fill="#D19D0B"/>
<path d="M77.2627 97.8417C75.7048 97.8417 74.6041 99.0436 74.6041 100.463V100.477C74.6041 101.903 75.6901 103.084 77.248 103.084C78.8042 103.084 79.9049 101.882 79.9049 100.463V100.448C79.9049 99.0207 78.8189 97.8417 77.2627 97.8417ZM78.9708 100.477C78.9708 101.462 78.2686 102.257 77.2627 102.257C76.2486 102.257 75.5382 101.447 75.5382 100.463V100.448C75.5382 99.4632 76.2404 98.6663 77.248 98.6663C78.2604 98.6663 78.9708 99.4779 78.9708 100.463V100.477Z" fill="#D19D0B"/>
<path d="M85.155 97.9282V100.846C85.155 101.78 84.6684 102.251 83.8797 102.251C83.0762 102.251 82.5977 101.759 82.5977 100.81V97.9282H81.7078V100.846C81.7078 102.316 82.5553 103.077 83.865 103.077C85.191 103.077 86.045 102.316 86.045 100.802V97.9282H85.155Z" fill="#D19D0B"/>
<path d="M91.011 101.078C91.7148 100.876 92.2145 100.376 92.2145 99.5433V99.5286C92.2145 99.086 92.061 98.717 91.7932 98.4344C91.4682 98.116 90.9685 97.9282 90.3316 97.9282H88.0715V102.997H88.9632V101.23H90.0769L91.3229 102.997H92.3811L91.011 101.078ZM88.9632 100.44V98.7382H90.2581C90.9244 98.7382 91.3082 99.0289 91.3082 99.5792V99.5939C91.3082 100.115 90.9032 100.44 90.2663 100.44H88.9632Z" fill="#D19D0B"/>
<path d="M99.0846 97.9282H97.0858V102.997H97.9774V101.367H98.9834C100.105 101.367 101.012 100.766 101.012 99.6363V99.6216C101.012 98.601 100.272 97.9282 99.0846 97.9282ZM100.105 99.6592C100.105 100.187 99.6856 100.564 99.0128 100.564H97.9774V98.7382H99.0128C99.679 98.7382 100.105 99.0436 100.105 99.6445V99.6592Z" fill="#D19D0B"/>
<path d="M105.159 97.8417C103.603 97.8417 102.502 99.0436 102.502 100.463V100.477C102.502 101.903 103.588 103.084 105.145 103.084C106.703 103.084 107.803 101.882 107.803 100.463V100.448C107.803 99.0207 106.717 97.8417 105.159 97.8417ZM106.869 100.477C106.869 101.462 106.167 102.257 105.159 102.257C104.145 102.257 103.437 101.447 103.437 100.463V100.448C103.437 99.4632 104.139 98.6663 105.145 98.6663C106.159 98.6663 106.869 99.4779 106.869 100.463V100.477Z" fill="#D19D0B"/>
<path d="M109.048 97.9282V98.7529H110.663V102.997H111.553V98.7529H113.168V97.9282H109.048Z" fill="#D19D0B"/>
<path d="M115.789 102.2V100.846H118.33V100.043H115.789V98.7251H118.656V97.9282H114.899V102.997H118.692V102.2H115.789Z" fill="#D19D0B"/>
<path d="M124.094 97.9282V101.433L121.378 97.9282H120.552V102.997H121.429V99.3914L124.225 102.997H124.969V97.9282H124.094Z" fill="#D19D0B"/>
<path d="M126.7 97.9282V98.7529H128.315V102.997H129.205V98.7529H130.821V97.9282H126.7Z" fill="#D19D0B"/>
<path d="M132.601 97.9282V102.997H133.492V97.9282H132.601Z" fill="#D19D0B"/>
<path d="M138.27 97.8923H137.446L135.215 102.997H136.128L136.649 101.772H139.046L139.559 102.997H140.501L138.27 97.8923ZM136.974 100.984L137.842 98.957L138.719 100.984H136.974Z" fill="#D19D0B"/>
<path d="M143.063 102.185V97.9282H142.173V102.997H145.728V102.185H143.063Z" fill="#D19D0B"/>
<path d="M98.5962 32.9213C98.7008 32.7253 99.0078 32.7057 99.1368 32.8837C99.2723 33.0454 99.1972 33.3067 99.0127 33.3965C99.1858 34.9871 99.3834 36.5744 99.5565 38.1633C99.483 38.1731 99.4111 38.1845 99.3376 38.1959C99.1956 36.8863 99.0339 35.5782 98.8918 34.2702C98.851 33.9844 98.8298 33.6954 98.7857 33.4096C98.5881 33.3524 98.4852 33.0993 98.5962 32.9213Z" fill="white"/>
<path d="M101.839 33.1385C101.954 32.9654 102.233 32.9605 102.355 33.1271C102.512 33.3051 102.401 33.6251 102.166 33.6627C101.944 34.9756 101.761 36.2951 101.542 37.6081C101.518 37.7795 101.485 37.951 101.465 38.1225C101.394 38.1159 101.322 38.1094 101.25 38.1045C101.492 36.6168 101.712 35.1259 101.947 33.6382C101.784 33.5353 101.717 33.2969 101.839 33.1385Z" fill="white"/>
<path d="M103.592 33.5533C103.525 33.3606 103.69 33.132 103.894 33.1369C104.037 33.1303 104.175 33.2299 104.215 33.3688C104.26 33.4847 104.217 33.6202 104.132 33.7068C104.08 33.7623 104.002 33.7803 103.936 33.8162C103.84 34.0383 103.778 34.2751 103.701 34.5053C103.329 35.6305 102.979 36.7605 102.61 37.8857C102.563 38.0473 102.499 38.2041 102.466 38.369C102.395 38.3478 102.321 38.3266 102.248 38.3053C102.458 37.644 102.674 36.9826 102.889 36.3229C103.164 35.4672 103.433 34.6082 103.717 33.7558C103.662 33.6954 103.611 33.6317 103.592 33.5533Z" fill="#D19D0B"/>
<path d="M96.3786 34.2114C96.3411 33.9975 96.5664 33.8031 96.7722 33.8603C96.942 33.893 97.058 34.0759 97.0221 34.2441C97.0106 34.3322 96.9502 34.4025 96.8914 34.4661C97.2033 35.4411 97.5185 36.416 97.8386 37.3876C97.9561 37.7371 98.059 38.0914 98.1864 38.4376C98.1162 38.4638 98.0476 38.4932 97.979 38.5226C97.832 38.1176 97.7112 37.7044 97.574 37.2962C97.2686 36.3719 96.978 35.4411 96.6693 34.5168C96.5224 34.4808 96.3852 34.3714 96.3786 34.2114Z" fill="white"/>
<path d="M100.192 34.28C100.123 34.0775 100.311 33.8488 100.522 33.8668C100.727 33.875 100.891 34.0938 100.825 34.293C100.796 34.3975 100.714 34.4743 100.62 34.52C100.6 35.7154 100.567 36.9124 100.558 38.1077C100.482 38.1077 100.407 38.1094 100.332 38.111C100.358 36.914 100.381 35.717 100.404 34.52C100.308 34.4678 100.216 34.3926 100.192 34.28Z" fill="#D19D0B"/>
<path d="M94.6363 34.3551C94.6265 34.1722 94.8061 34.0105 94.9874 34.0367C95.1997 34.0448 95.3336 34.293 95.2585 34.4825C95.2372 34.5331 95.2029 34.5739 95.1719 34.618C95.8251 35.9408 96.4718 37.2668 97.1103 38.5977C97.1527 38.6875 97.1936 38.7789 97.2442 38.8638C97.1821 38.8998 97.1217 38.9341 97.0597 38.97C96.3591 37.5476 95.6896 36.1106 94.9727 34.6964C94.7898 34.7029 94.6167 34.5429 94.6363 34.3551Z" fill="#D19D0B"/>
<path d="M106.655 34.4661C106.789 34.3175 107.059 34.3453 107.16 34.5168C107.255 34.6605 107.212 34.8728 107.068 34.9675C106.995 35.0246 106.899 35.023 106.81 35.023C105.95 36.3964 105.06 37.7501 104.212 39.13C104.152 39.0925 104.091 39.0582 104.033 39.0239C104.679 37.9918 105.339 36.9679 105.995 35.9407C106.214 35.6027 106.42 35.2581 106.644 34.9234C106.543 34.7911 106.533 34.587 106.655 34.4661Z" fill="#D19D0B"/>
<path d="M104.813 34.5837C104.927 34.4367 105.169 34.4302 105.292 34.569C105.424 34.7013 105.411 34.9462 105.261 35.0589C105.2 35.1128 105.119 35.1291 105.04 35.1308C104.473 36.3163 103.905 37.5019 103.345 38.6907C103.283 38.6564 103.219 38.6254 103.156 38.5944C103.714 37.4105 104.282 36.2298 104.843 35.0459C104.723 34.925 104.694 34.716 104.813 34.5837Z" fill="white"/>
<path d="M97.8206 35.2483C97.7847 35.036 98.0002 34.8385 98.2092 34.8842C98.353 34.9119 98.4705 35.0409 98.4705 35.1896C98.4869 35.312 98.4069 35.4149 98.3285 35.4966C98.5146 36.4143 98.7122 37.3288 98.9016 38.2449C98.8298 38.2613 98.7579 38.2808 98.6877 38.3037C98.5016 37.3827 98.3138 36.4617 98.1162 35.5439C97.9708 35.5113 97.8288 35.4084 97.8206 35.2483Z" fill="#D19D0B"/>
<path d="M93.7528 35.7595C93.6613 35.5913 93.756 35.3529 93.9422 35.3022C94.1316 35.2385 94.3521 35.392 94.357 35.5913C94.3652 35.6729 94.3292 35.7497 94.2917 35.8199C95.0559 36.9712 95.8267 38.1192 96.5681 39.2851C96.5109 39.3227 96.4554 39.3603 96.3983 39.3978C95.8381 38.5209 95.2649 37.6538 94.6869 36.7883C94.5007 36.5009 94.2998 36.2233 94.1235 35.9293C93.9798 35.962 93.8148 35.8999 93.7528 35.7595Z" fill="white"/>
<path d="M107.834 35.8444C107.971 35.7203 108.21 35.748 108.311 35.9048C108.443 36.0893 108.323 36.3849 108.099 36.4209C108.032 36.4388 107.944 36.3898 107.898 36.4584C107.227 37.1737 106.592 37.9183 105.943 38.6548C105.635 39.0141 105.316 39.3652 105.017 39.7342C104.962 39.6901 104.903 39.6509 104.844 39.6118C105.625 38.7087 106.405 37.8056 107.202 36.9157C107.388 36.7017 107.584 36.4992 107.762 36.2804C107.691 36.14 107.712 35.9505 107.834 35.8444Z" fill="white"/>
<path d="M92.0039 36.1612C92.1574 36.0518 92.4007 36.104 92.4873 36.2739C92.5395 36.3686 92.5281 36.4845 92.4905 36.5841C93.3528 37.5476 94.2264 38.4997 95.1017 39.4501C95.2781 39.6379 95.4512 39.8289 95.6374 40.0069C95.5851 40.0592 95.5361 40.1163 95.4888 40.1735C94.4306 39.0353 93.392 37.8808 92.3403 36.736C92.2374 36.767 92.1166 36.7752 92.0235 36.7099C91.8357 36.5972 91.8275 36.2902 92.0039 36.1612Z" fill="#D19D0B"/>
<path d="M109.224 37.0349C109.353 36.8993 109.603 36.914 109.709 37.0692C109.818 37.2161 109.774 37.4496 109.614 37.5411C109.515 37.6048 109.382 37.595 109.279 37.5444C108.91 37.8285 108.559 38.1339 108.203 38.436C107.398 39.1284 106.595 39.8208 105.785 40.5099C105.737 40.4593 105.693 40.4054 105.651 40.3515C106.464 39.6575 107.279 38.9618 108.087 38.2596C108.438 37.9689 108.79 37.6766 109.137 37.3827C109.113 37.2618 109.128 37.123 109.224 37.0349Z" fill="#D19D0B"/>
<path d="M90.312 38.0751C90.2908 37.8759 90.4884 37.6881 90.686 37.7371C90.8803 37.773 91.0011 37.9934 90.9325 38.1796C92.19 39.1676 93.4686 40.1261 94.7146 41.1272C94.6787 41.1892 94.6427 41.2529 94.6117 41.3183C94.5072 41.2154 94.388 41.1288 94.2753 41.0374C93.1273 40.131 91.9662 39.2411 90.8101 38.3478C90.6092 38.4784 90.3006 38.32 90.312 38.0751Z" fill="#D19D0B"/>
<path d="M91.7262 37.9591C91.7703 37.7436 92.0561 37.6407 92.2292 37.7746C92.3615 37.8579 92.4056 38.0343 92.35 38.1763C93.2564 39.0043 94.179 39.8142 95.0902 40.634C95.0478 40.6895 95.0037 40.745 94.958 40.7973C94.0516 39.9873 93.1437 39.1806 92.2439 38.3641C92.1916 38.2939 92.1133 38.3804 92.0447 38.3657C91.8356 38.3886 91.6658 38.1567 91.7262 37.9591Z" fill="white"/>
<path d="M110.692 38.4768C110.844 38.3217 111.138 38.3805 111.216 38.583C111.298 38.7561 111.185 38.9814 110.996 39.0174C110.886 39.0435 110.777 39.0059 110.69 38.9406C109.75 39.5301 108.799 40.1017 107.859 40.6896C107.402 40.9704 106.951 41.2644 106.49 41.542C106.459 41.4848 106.423 41.4293 106.387 41.3754C107.382 40.7304 108.398 40.1196 109.407 39.4975C109.8 39.2476 110.202 39.0092 110.589 38.7495C110.607 38.6532 110.609 38.5454 110.692 38.4768Z" fill="#D19D0B"/>
<path d="M106.435 43.2534C106.193 42.3029 105.716 41.4113 105.05 40.6928C104.307 39.8877 103.339 39.3031 102.293 38.9847C101.568 38.7675 100.801 38.6989 100.046 38.7609C98.8658 38.8524 97.7112 39.277 96.7674 39.9971C96.1942 40.4299 95.7124 40.9786 95.3336 41.5893C94.6918 42.6279 94.3799 43.8592 94.4109 45.0791C94.4485 45.7061 94.5514 46.3332 94.7588 46.9276C95.0886 47.8846 95.6471 48.7729 96.4097 49.4457C96.6236 49.6597 96.8751 49.8311 97.1233 50.0026C97.5496 50.2786 98.0003 50.5203 98.4787 50.6885C99.8717 51.2012 101.448 51.1571 102.824 50.6166C103.332 50.4174 103.802 50.13 104.237 49.8017C104.996 49.1992 105.649 48.4447 106.058 47.5596C106.676 46.2254 106.805 44.6741 106.435 43.2534ZM102.45 48.1459C101.172 48.1361 99.8946 48.1426 98.6175 48.1475C98.9327 47.1187 99.2348 46.085 99.5712 45.0611C99.145 44.8276 98.8152 44.4291 98.6682 43.967C98.5375 43.5702 98.5343 43.1325 98.6682 42.7373C98.8037 42.3095 99.0911 41.9339 99.4635 41.6857C99.8374 41.4309 100.306 41.3231 100.755 41.3705C101.284 41.4309 101.777 41.7249 102.096 42.1494C102.365 42.5071 102.499 42.9594 102.485 43.4052C102.462 44.0731 102.076 44.7263 101.488 45.0513C101.81 46.0817 102.143 47.1089 102.45 48.1459Z" fill="white"/>
<path d="M101.488 45.0513C101.81 46.0817 102.143 47.1089 102.449 48.1459C101.172 48.1377 99.893 48.1426 98.616 48.1491C98.9311 47.1203 99.2349 46.0866 99.5697 45.0628C99.1434 44.8292 98.8136 44.4308 98.6666 43.967C98.5376 43.5702 98.5327 43.1342 98.6666 42.7373C98.8021 42.3095 99.0895 41.9339 99.4619 41.6873C99.8375 41.4309 100.306 41.3231 100.755 41.3721C101.283 41.4326 101.777 41.7249 102.094 42.1511C102.364 42.5087 102.498 42.9611 102.483 43.4069C102.462 44.0731 102.076 44.7263 101.488 45.0513Z" fill="#D19D0B"/>
<path d="M108.43 38.8655C108.579 38.7512 108.821 38.7969 108.909 38.9667C109.013 39.1463 108.899 39.3978 108.701 39.4501C108.605 39.4844 108.504 39.4485 108.421 39.3995C107.89 39.7816 107.361 40.1653 106.832 40.5491C106.616 40.7075 106.394 40.8561 106.185 41.0243C106.142 40.9672 106.1 40.9084 106.059 40.848C106.81 40.3091 107.553 39.7604 108.305 39.2247C108.287 39.0941 108.314 38.9422 108.43 38.8655Z" fill="white"/>
<path d="M90.686 39.8584C90.7954 39.7098 91.0355 39.6934 91.1678 39.8192C91.2559 39.8943 91.2886 40.0151 91.2739 40.1278C92.2798 40.7271 93.3005 41.2987 94.3097 41.8931C94.2754 41.9519 94.2444 42.0107 94.2166 42.0727C93.6908 41.7592 93.1551 41.4636 92.6293 41.1501C92.1394 40.8708 91.6511 40.5916 91.1645 40.3107C91.0649 40.3728 90.9391 40.4152 90.8281 40.3613C90.6272 40.2976 90.5505 40.0168 90.686 39.8584Z" fill="white"/>
<path d="M89.066 39.9383C89.2244 39.8142 89.4873 39.8812 89.569 40.0657C89.6017 40.1261 89.5951 40.198 89.5984 40.2649C90.0099 40.4805 90.4345 40.6732 90.8509 40.8822C91.9271 41.3983 92.9918 41.9372 94.063 42.4613C94.0369 42.5267 94.0108 42.592 93.9863 42.6573C93.1779 42.2344 92.3549 41.8392 91.5368 41.4342C90.8607 41.101 90.1765 40.7842 89.5004 40.4511C89.3796 40.5507 89.1999 40.5703 89.0726 40.4723C88.888 40.358 88.8913 40.0608 89.066 39.9383Z" fill="#D19D0B"/>
<path d="M109.631 40.6291C109.613 40.3923 109.876 40.1882 110.098 40.2862C110.315 40.3678 110.348 40.6928 110.168 40.8316C110.044 40.9475 109.841 40.9329 109.722 40.8185C109.206 41.057 108.7 41.3133 108.187 41.5567C107.733 41.7804 107.273 41.9927 106.822 42.2262C106.792 42.1658 106.765 42.1053 106.734 42.0466C107.271 41.7689 107.82 41.5126 108.362 41.2431C108.786 41.0406 109.204 40.8283 109.631 40.6291Z" fill="white"/>
<path d="M111.296 40.9084C111.293 40.6814 111.553 40.5034 111.758 40.6063C111.954 40.6879 112.008 40.9639 111.863 41.1174C111.736 41.2774 111.474 41.2595 111.355 41.1011C109.905 41.6694 108.456 42.236 107.013 42.8206C106.992 42.7569 106.97 42.6933 106.951 42.6296C108.394 42.0449 109.849 41.4865 111.296 40.9084Z" fill="#D19D0B"/>
<path d="M90.0556 42.0155C90.1503 41.8245 90.4442 41.8016 90.5765 41.9633C90.6369 42.0237 90.6484 42.1103 90.6549 42.1903C91.7066 42.5577 92.7615 42.9121 93.8197 43.255C93.8033 43.3236 93.7886 43.3905 93.7723 43.4591C93.0195 43.1946 92.2585 42.9545 91.5008 42.7014C91.2003 42.6034 90.9047 42.4891 90.6043 42.3944C90.5079 42.4728 90.3887 42.5463 90.2597 42.5054C90.0458 42.4663 89.9478 42.1968 90.0556 42.0155Z" fill="white"/>
<path d="M111.698 42.2262C111.709 41.9992 111.99 41.8555 112.181 41.9764C112.376 42.0776 112.376 42.3764 112.212 42.5071C112.07 42.6394 111.822 42.6083 111.721 42.4418C110.61 42.7275 109.498 43.015 108.388 43.3024C108.002 43.3905 107.625 43.5114 107.238 43.5898C107.228 43.5245 107.219 43.4608 107.207 43.3971C108.396 43.0966 109.583 42.7831 110.772 42.4777C111.081 42.3944 111.393 42.3209 111.698 42.2262Z" fill="white"/>
<path d="M88.7068 42.8092C88.7885 42.6541 89.004 42.6067 89.151 42.6965C89.2522 42.7455 89.2996 42.8549 89.3176 42.9611C90.4345 43.1717 91.5384 43.4444 92.6522 43.6714C93.0082 43.7449 93.3593 43.8413 93.7153 43.9066C93.7087 43.9752 93.7038 44.0438 93.6973 44.1124C92.2211 43.7874 90.7497 43.4395 89.2637 43.1619C89.1771 43.2795 89.0187 43.3432 88.8783 43.2844C88.6921 43.2224 88.6072 42.9774 88.7068 42.8092Z" fill="#D19D0B"/>
<path d="M109.539 43.9605C109.572 43.8021 109.72 43.673 109.887 43.691C110.055 43.691 110.196 43.8478 110.189 44.0127C110.196 44.176 110.055 44.3377 109.889 44.3328C109.763 44.3475 109.644 44.2724 109.578 44.1679C108.84 44.256 108.102 44.3475 107.366 44.4471C107.359 44.3801 107.354 44.3148 107.346 44.2479C108.076 44.1434 108.807 44.0535 109.539 43.9605Z" fill="#D19D0B"/>
<path d="M88.1353 44.5925C88.1892 44.4373 88.377 44.3508 88.5305 44.4079C88.635 44.434 88.7101 44.5173 88.7558 44.6104C90.3921 44.6839 92.0267 44.7607 93.663 44.8162C93.6598 44.8848 93.6581 44.9533 93.6581 45.0219C92.0219 44.9615 90.3856 44.8929 88.7509 44.826C88.697 44.9615 88.5615 45.066 88.4113 45.0497C88.199 45.0366 88.0471 44.7884 88.1353 44.5925Z" fill="white"/>
<path d="M112.145 44.6676C112.209 44.4242 112.568 44.3524 112.714 44.5581C112.864 44.7378 112.742 45.0448 112.511 45.0791C112.354 45.1199 112.201 45.0203 112.139 44.8798C111.357 44.9272 110.576 44.9811 109.796 45.0382C108.987 45.0856 108.182 45.1689 107.374 45.226C107.382 45.1575 107.387 45.0872 107.387 45.0186C108.973 44.8913 110.56 44.7737 112.145 44.6676Z" fill="white"/>
<path d="M89.8025 45.5151C89.9641 45.422 90.1862 45.489 90.2711 45.6555C91.4012 45.6082 92.5312 45.5559 93.6596 45.5086C93.6629 45.5755 93.6678 45.6441 93.6727 45.7127C92.9673 45.7323 92.2634 45.7829 91.558 45.8041C91.1383 45.8303 90.717 45.845 90.2973 45.8646C90.2728 45.9233 90.2516 45.9887 90.2026 46.0344C90.0817 46.1569 89.8613 46.1503 89.7404 46.0311C89.6016 45.8858 89.6245 45.6163 89.8025 45.5151Z" fill="#D19D0B"/>
<path d="M107.317 45.8515C108.638 46.023 109.964 46.152 111.285 46.3169C111.352 46.1993 111.482 46.1209 111.62 46.1471C111.817 46.165 111.949 46.3953 111.876 46.5782C111.824 46.7611 111.593 46.8493 111.427 46.7627C111.326 46.7219 111.282 46.6157 111.242 46.5227C110.8 46.4916 110.364 46.4116 109.923 46.3692C109.044 46.2581 108.161 46.1716 107.282 46.0622C107.295 45.9919 107.308 45.9217 107.317 45.8515Z" fill="#D19D0B"/>
<path d="M90.9162 46.7464C91.8666 46.6076 92.8171 46.4606 93.7658 46.3153C93.7822 46.3822 93.7952 46.4508 93.8034 46.5194C93.3608 46.588 92.9167 46.6517 92.4725 46.7154C91.3245 46.8852 90.1814 47.0763 89.0317 47.2363C89.004 47.3588 88.9207 47.478 88.7901 47.5025C88.6268 47.5482 88.4406 47.447 88.3965 47.282C88.3295 47.104 88.4537 46.8787 88.6463 46.8542C88.7868 46.8264 88.9191 46.9081 88.9958 47.0207C89.6359 46.9424 90.2745 46.8362 90.9162 46.7464Z" fill="white"/>
<path d="M107.121 46.7448C108.215 47.0501 109.322 47.2983 110.423 47.5776C110.945 47.7033 111.468 47.8323 111.989 47.9662C112.093 47.7752 112.389 47.7441 112.524 47.914C112.665 48.0724 112.594 48.3467 112.402 48.4284C112.211 48.5198 111.971 48.3827 111.948 48.1736C111.554 48.0561 111.153 47.9695 110.756 47.8634C109.526 47.5433 108.285 47.2722 107.059 46.9423C107.083 46.8787 107.103 46.8117 107.121 46.7448Z" fill="white"/>
<path d="M93.4457 47.251C93.6156 47.2004 93.787 47.1563 93.9552 47.0991C93.9781 47.1644 94.0026 47.2314 94.0271 47.2984C93.4196 47.478 92.8105 47.6478 92.203 47.8242C91.62 48.0038 91.024 48.1443 90.4394 48.3206C90.4475 48.5394 90.2189 48.724 90.0082 48.6472C89.7845 48.5803 89.7225 48.2651 89.8841 48.1051C90.0099 47.963 90.245 47.9858 90.3675 48.1214C91.3947 47.8389 92.4186 47.54 93.4457 47.251Z" fill="#D19D0B"/>
<path d="M106.81 47.6625C107.428 47.9107 108.048 48.1524 108.665 48.4006C109.32 48.6701 109.98 48.933 110.635 49.2008C110.762 49.0734 110.983 49.0473 111.117 49.1796C111.286 49.3314 111.224 49.645 111.009 49.7201C110.834 49.8083 110.605 49.6727 110.578 49.485C110.568 49.4343 110.581 49.3625 110.512 49.3527C109.257 48.8415 107.989 48.3549 106.729 47.8536C106.756 47.7899 106.784 47.7262 106.81 47.6625Z" fill="#D19D0B"/>
<path d="M90.2516 49.4294C91.5874 48.8889 92.9265 48.3582 94.2672 47.8307C94.2982 47.8878 94.3276 47.945 94.3587 48.0005C93.8279 48.221 93.289 48.4202 92.7583 48.6407C92.1459 48.8807 91.5384 49.1322 90.9293 49.3788C90.5129 49.5453 90.0949 49.7054 89.6866 49.8883C89.6866 50.0222 89.6033 50.1577 89.4694 50.192C89.2767 50.2557 89.0383 50.1022 89.0432 49.8932C89.0301 49.7348 89.151 49.578 89.311 49.5584C89.4286 49.5339 89.5413 49.596 89.6262 49.6744C89.8401 49.6058 90.0442 49.5094 90.2516 49.4294Z" fill="white"/>
<path d="M106.365 48.5721C106.4 48.5133 106.435 48.4529 106.471 48.3941C107.346 48.8938 108.234 49.369 109.11 49.8671C109.462 50.0728 109.822 50.2655 110.178 50.4631C110.426 50.597 110.667 50.7424 110.922 50.8616C111.05 50.7783 111.231 50.7717 111.345 50.8812C111.495 51.0069 111.474 51.2649 111.317 51.3792C111.17 51.505 110.917 51.4494 110.832 51.278C110.793 51.2078 110.793 51.1245 110.801 51.0477C110.168 50.695 109.539 50.339 108.909 49.9814C108.064 49.5062 107.21 49.0456 106.365 48.5721Z" fill="white"/>
<path d="M92.7305 49.4833C93.3397 49.1437 93.9602 48.8187 94.5677 48.4741C94.6052 48.5329 94.6444 48.5917 94.6836 48.6505C93.6891 49.1845 92.7028 49.7348 91.7164 50.2868C91.6446 50.3276 91.5711 50.3668 91.4976 50.4043C91.5123 50.5235 91.4878 50.6591 91.3866 50.7342C91.2559 50.8518 91.0338 50.8273 90.9293 50.6885C90.802 50.5252 90.8591 50.2476 91.0567 50.1692C91.1726 50.1169 91.3 50.1578 91.4045 50.2165C91.852 49.9814 92.2847 49.7217 92.7305 49.4833Z" fill="#D19D0B"/>
<path d="M92.5002 50.8648C93.3086 50.2476 94.1267 49.6466 94.9416 49.0391C94.9906 49.0881 95.0347 49.1404 95.0787 49.1943C94.1708 49.8507 93.2824 50.5366 92.3843 51.2094C91.9956 51.4968 91.6168 51.7973 91.2265 52.0847C91.2738 52.2431 91.2069 52.4391 91.0468 52.5011C90.8835 52.5779 90.6729 52.4799 90.6174 52.31C90.552 52.1614 90.6337 51.9736 90.7807 51.9083C90.877 51.861 90.9913 51.874 91.0877 51.9149C91.5743 51.5883 92.0283 51.2143 92.5002 50.8648Z" fill="white"/>
<path d="M105.901 49.2514C105.942 49.1975 105.982 49.1436 106.022 49.0914C106.965 49.7985 107.919 50.4958 108.858 51.2094C109.008 51.3204 109.159 51.4315 109.327 51.5115C109.441 51.4707 109.577 51.4609 109.676 51.5409C109.861 51.6634 109.835 51.9671 109.649 52.0749C109.487 52.1859 109.244 52.0928 109.186 51.9099C109.154 51.8365 109.164 51.7548 109.178 51.6781C108.909 51.5066 108.664 51.2992 108.406 51.1114C107.581 50.4778 106.734 49.8736 105.901 49.2514Z" fill="#D19D0B"/>
<path d="M105.55 49.645C106.005 50.0549 106.477 50.4484 106.933 50.8583C107.101 50.7358 107.37 50.8126 107.434 51.0151C107.516 51.2208 107.346 51.4805 107.119 51.4576C106.91 51.4527 106.765 51.2257 106.817 51.0281C106.348 50.6215 105.886 50.2067 105.416 49.8034C105.461 49.7528 105.507 49.6989 105.55 49.645Z" fill="white"/>
<path d="M93.8263 51.2992C94.3962 50.7783 94.9629 50.2541 95.5328 49.7332C95.5769 49.7789 95.6226 49.8246 95.67 49.8687C94.8159 50.664 93.9504 51.4462 93.0964 52.2415C92.9592 52.377 92.8138 52.5011 92.6652 52.6236C92.7338 52.8016 92.6358 53.0302 92.4448 53.0759C92.2423 53.1331 92.0333 52.9486 92.0431 52.7444C92.0382 52.5387 92.2668 52.3705 92.4611 52.4423C92.5346 52.4799 92.5885 52.3966 92.6456 52.3639C93.0506 52.0226 93.4295 51.6503 93.8263 51.2992Z" fill="#D19D0B"/>
<path d="M96.1206 50.29C96.1713 50.3325 96.2235 50.3749 96.2758 50.4157C95.5164 51.3466 94.7522 52.2725 93.9863 53.1984C94.099 53.3846 93.9928 53.6589 93.774 53.6981C93.5503 53.7536 93.3347 53.5168 93.4 53.298C93.436 53.1086 93.6532 53.0188 93.8279 53.0743C94.2117 52.5893 94.615 52.119 95.0069 51.6405C95.3793 51.1931 95.745 50.7375 96.1206 50.29Z" fill="white"/>
<path d="M104.71 50.4403C104.758 50.3978 104.805 50.3553 104.852 50.3112C105.141 50.6019 105.393 50.9269 105.667 51.2306C106.257 51.91 106.856 52.5795 107.444 53.2588C107.684 53.5283 107.913 53.8075 108.163 54.0688C108.292 54.028 108.443 54.0508 108.532 54.1586C108.674 54.3154 108.612 54.5995 108.412 54.6747C108.218 54.771 107.97 54.5979 107.968 54.3872C107.962 54.3252 107.985 54.2664 108.002 54.2076C107.833 53.9823 107.64 53.7781 107.455 53.5658C106.539 52.524 105.618 51.487 104.71 50.4403Z" fill="#D19D0B"/>
<path d="M96.7885 50.7766C96.8424 50.8126 96.8931 50.8501 96.9453 50.8893C96.6873 51.3221 96.4048 51.7401 96.137 52.1663C95.5589 53.0776 94.9677 53.9822 94.3978 54.8984C94.4827 55.0519 94.4599 55.2805 94.2998 55.3752C94.1414 55.4797 93.9014 55.4062 93.8263 55.2315C93.7283 55.0421 93.8752 54.7792 94.0924 54.7792C94.1431 54.7694 94.2165 54.8085 94.2443 54.7481C94.7734 53.9382 95.2894 53.1184 95.8136 52.3051C96.1386 51.7956 96.475 51.2943 96.7885 50.7766Z" fill="#D19D0B"/>
<path d="M103.928 50.9596C103.989 50.9236 104.047 50.8877 104.106 50.8485C104.589 51.5964 105.081 52.3378 105.573 53.0808C105.888 53.5528 106.191 54.0345 106.521 54.4967C106.694 54.4624 106.885 54.5816 106.903 54.7628C106.946 54.9686 106.752 55.1793 106.541 55.1384C106.298 55.1139 106.183 54.7939 106.337 54.6093C105.968 54.0329 105.586 53.4646 105.21 52.8914C104.776 52.2529 104.361 51.5997 103.928 50.9596Z" fill="white"/>
<path d="M97.6149 51.2323C97.6737 51.26 97.7325 51.2845 97.7929 51.309C97.0972 52.8065 96.4097 54.3072 95.7043 55.7998C95.8039 55.9239 95.8202 56.115 95.7124 56.2391C95.5998 56.3926 95.3483 56.3926 95.2258 56.2538C95.0919 56.115 95.1262 55.8602 95.2895 55.7606C95.3548 55.7133 95.4365 55.7133 95.5132 55.7165C96.2285 54.2272 96.9143 52.7265 97.6149 51.2323Z" fill="white"/>
<path d="M103.005 51.4184C103.066 51.3923 103.126 51.3678 103.185 51.3384C103.34 51.6356 103.471 51.9459 103.615 52.2496C104.037 53.1739 104.48 54.09 104.911 55.0111C105.048 55.3001 105.192 55.5859 105.321 55.8798C105.452 55.8782 105.589 55.937 105.649 56.0611C105.739 56.2211 105.656 56.4383 105.489 56.5069C105.298 56.5967 105.045 56.4465 105.034 56.2342C105.019 56.128 105.073 56.0317 105.136 55.9517C104.585 54.7939 104.041 53.6328 103.503 52.4685C103.334 52.1206 103.183 51.763 103.005 51.4184Z" fill="#D19D0B"/>
<path d="M97.365 54.0361C97.6638 53.1853 97.961 52.3362 98.2745 51.4903C98.335 51.5115 98.397 51.5311 98.4574 51.554C98.1586 52.4031 97.8565 53.2506 97.5609 54.0998C97.6997 54.2174 97.7226 54.4428 97.5936 54.5767C97.4482 54.7498 97.1265 54.6926 97.058 54.4738C96.973 54.2713 97.1363 54.0116 97.365 54.0361Z" fill="#D19D0B"/>
<path d="M102.187 51.6977C102.253 51.6797 102.32 51.6634 102.385 51.6422C102.818 53.0269 103.275 54.4036 103.708 55.7884C103.817 55.8161 103.939 55.8504 104 55.9598C104.116 56.1329 104.005 56.3926 103.806 56.4399C103.619 56.4987 103.399 56.3469 103.402 56.1493C103.389 56.0399 103.441 55.9353 103.523 55.8668C103.082 54.4754 102.628 53.089 102.187 51.6977Z" fill="white"/>
<path d="M98.9506 51.7058C99.016 51.7189 99.0813 51.7336 99.1466 51.745C98.851 53.1968 98.5685 54.6518 98.2746 56.1019C98.3725 56.1721 98.4509 56.2815 98.4411 56.4089C98.4477 56.6245 98.1995 56.791 98.0019 56.7045C97.8255 56.649 97.7389 56.4301 97.8157 56.2668C97.8532 56.1591 97.9594 56.1003 98.0655 56.0758C98.3464 54.8086 98.5816 53.5299 98.8445 52.2578C98.8804 52.0733 98.918 51.8904 98.9506 51.7058Z" fill="white"/>
<path d="M101.451 51.8136C101.518 51.8038 101.585 51.7956 101.652 51.7875C101.779 52.5877 101.908 53.3878 102.04 54.188C102.133 54.2223 102.231 54.268 102.274 54.3644C102.37 54.5375 102.271 54.7889 102.075 54.8363C101.91 54.8853 101.715 54.784 101.676 54.6126C101.63 54.4623 101.702 54.2974 101.838 54.2207C101.712 53.4189 101.578 52.617 101.451 51.8136Z" fill="#D19D0B"/>
<path d="M99.6724 55.4503C99.7541 54.2452 99.8455 53.04 99.9402 51.8365C100.004 51.8447 100.069 51.8495 100.133 51.8544C100.048 53.0563 99.9631 54.2582 99.8733 55.4601C99.9958 55.5124 100.099 55.6316 100.089 55.7704C100.105 55.9778 99.8847 56.1558 99.6838 56.0954C99.4634 56.0529 99.3768 55.759 99.5009 55.5859C99.5401 55.5206 99.612 55.4912 99.6724 55.4503Z" fill="#D19D0B"/>
<path d="M100.549 51.8659C100.615 51.8642 100.682 51.8626 100.747 51.861C100.843 53.2017 100.902 54.5456 100.985 55.888C101.003 56.177 101.013 56.466 101.043 56.7535C101.178 56.7959 101.289 56.92 101.283 57.067C101.291 57.2662 101.088 57.441 100.892 57.392C100.705 57.3593 100.577 57.134 100.657 56.956C100.687 56.8694 100.757 56.809 100.83 56.76C100.737 55.1286 100.656 53.4972 100.549 51.8659Z" fill="white"/>
<path d="M121.818 64.0808C119.92 62.0787 117.972 60.1256 116.025 58.1709C115.678 57.8215 115.263 57.5014 114.688 57.8051C114.588 57.859 114.366 57.7823 114.255 57.6957C113.945 57.4589 113.664 57.1846 113.37 56.9233C117.778 51.8479 119.051 46.1585 117.169 39.8845C115.269 33.5549 110.798 29.7925 104.523 27.957C104.523 25.7557 104.508 23.6229 104.542 21.4919C104.547 21.2469 104.776 20.8974 104.996 20.7831C106.107 20.2116 107.245 19.6972 108.378 19.173C110.305 18.283 112.242 17.4142 114.161 16.5079C115.059 16.0833 115.153 15.2521 114.401 14.6773C114.224 14.5418 114.017 14.4438 113.813 14.3507C104.051 9.87462 94.2917 5.39364 84.5149 0.951849C84.0772 0.752622 83.4306 0.795077 82.9537 0.94858C82.1519 1.2066 81.4089 1.64751 80.6381 2.0035C71.6125 6.16442 62.5884 10.3253 53.5595 14.4797C53.0386 14.7198 52.5323 14.9696 52.5323 15.6277C52.534 16.276 53.0076 16.5487 53.5399 16.7904C56.0172 17.9188 58.4798 19.0799 60.9603 20.2018L61.0452 20.241L64.2182 21.7401C64.2508 21.7548 64.2835 21.7695 64.3162 21.7842C70.4612 24.6191 76.6078 27.4507 82.748 30.2971C83.3865 30.5943 83.9597 30.6122 84.608 30.3069C90.0279 27.7496 95.4577 25.2119 100.887 22.6742C101.309 22.4782 101.745 22.3165 102.213 22.1222V27.6336C98.3106 27.3331 94.6885 28.0794 91.3572 30.0456C88.0242 32.0134 85.6727 34.8548 84.0919 38.4148C79.3987 32.9866 73.4594 30.0341 66.4995 28.9074V31.1283C67.334 31.3161 68.1178 31.4663 68.887 31.6704C74.4653 33.145 79.2125 35.9228 82.81 40.5295C83.2085 41.039 83.1432 41.4946 83.1138 42.0482C83.0256 43.7139 82.957 45.3844 82.9815 47.0518C82.9962 48.1442 83.2705 49.2335 83.2803 50.3259C83.3179 54.5146 83.295 58.7033 83.295 62.8936V63.7248C77.991 57.1095 71.1275 54.1227 62.8056 54.1276V43.5718H60.57V44.5549C60.57 48.092 60.5684 51.6307 60.5684 55.1678C60.5668 56.3273 60.7791 56.471 61.9222 56.5004C63.8181 56.5493 65.7401 56.5102 67.6001 56.8221C72.5237 57.65 76.776 59.8448 80.1825 63.5533C80.6316 64.0432 81.0088 64.6001 81.4187 65.1243C73.4169 60.9846 65.1425 59.6439 56.3422 62.015V59.5214C56.3422 51.0673 56.3454 42.6132 56.3356 34.1591C56.3356 33.9321 56.2491 33.5255 56.1462 33.5076C55.5975 33.4079 55.0129 33.3149 54.4789 33.4177C54.2927 33.4537 54.1098 34.0612 54.1098 34.4073C54.0902 44.1156 54.0935 53.8255 54.0935 63.5337C54.0935 64.8303 54.3842 65.0426 55.5942 64.6523C60.5227 63.0585 65.523 62.6993 70.6229 63.6987C75.21 64.5985 79.3807 66.4307 83.1889 69.1154C83.7245 69.4942 84.2667 69.78 84.9182 69.4828C85.2334 69.3391 85.5143 69.117 85.8017 68.9178C89.9348 66.0437 94.4681 64.1967 99.4733 63.5386C101.856 63.2251 104.214 62.7711 106.374 61.6705C108.145 60.7691 109.851 59.7435 111.535 58.8029C111.822 59.0397 112.188 59.3418 112.585 59.67C112.072 60.222 112.132 60.7103 112.595 61.1675C114.611 63.1598 116.61 65.1684 118.651 67.1345C119.584 68.0343 120.885 68.0066 121.764 67.1688C122.652 66.3229 122.729 65.0443 121.818 64.0808ZM84.2569 27.89C83.9923 28.0125 83.5873 28.0827 83.344 27.9717C77.9224 25.4813 72.5139 22.9632 66.9845 20.3945C68.709 19.7054 70.3436 19.0489 71.9799 18.3973C75.873 16.8459 79.7661 15.2962 83.6592 13.7465C83.7751 13.7008 83.8911 13.6518 84.0037 13.5963C84.7615 13.2272 85.0472 12.6622 84.7909 12.0482C84.5377 11.4456 83.8862 11.2121 83.1431 11.506C77.0683 13.9163 70.9935 16.3266 64.9285 18.7647C64.3717 18.9901 63.9144 19.0309 63.369 18.7713C61.2935 17.7866 59.2016 16.8378 57.1178 15.871C57.0101 15.8204 56.9153 15.7388 56.6949 15.5934C57.8625 15.0545 58.937 14.5597 60.0115 14.0649C67.6083 10.5687 75.2067 7.07727 82.7953 3.56303C83.4273 3.27072 83.9531 3.22663 84.6129 3.52874C93.0114 7.37448 101.423 11.1925 109.83 15.0202C110.101 15.1427 110.361 15.2946 110.77 15.5101C108.345 16.6304 106.033 17.6869 103.731 18.7664C97.2393 21.807 90.753 24.8591 84.2569 27.89ZM85.4947 63.5305V54.7089C86.9121 56.1754 88.4145 57.7284 89.8107 59.172C88.421 60.5763 86.9383 62.0738 85.4947 63.5305ZM87.6013 64.8973C88.6709 63.2316 90.1079 61.7783 91.9385 60.7315C92.079 60.6515 92.319 60.6335 92.4693 60.6939C93.4785 61.1038 94.4779 61.5447 95.3107 61.9024C92.8073 62.874 90.1847 63.893 87.6013 64.8973ZM100.058 60.4049C91.7867 60.1926 84.9623 53.3601 85.0995 45.0301C84.946 36.9238 91.5564 29.7892 100.427 29.7516C108.925 29.7141 115.825 36.638 115.813 45.0203C115.8 53.9447 108.329 60.6172 100.058 60.4049Z" fill="white"/>
<path d="M66.1026 39.4991C65.4641 35.8819 64.6966 32.2828 64.8942 28.5677C64.9432 27.6516 64.6705 26.7795 63.8033 26.2276C63.6776 26.1476 63.5551 25.9516 63.5518 25.8079C63.5339 24.3888 63.542 22.9697 63.542 21.4592C63.818 21.5751 64.0254 21.6552 64.2181 21.7401L61.0452 20.241C61.4355 20.4386 61.6216 20.6884 61.6151 21.1538C61.5955 22.6088 61.6151 24.0638 61.5955 25.5189C61.5922 25.7164 61.5138 26.0104 61.3734 26.092C60.3332 26.7012 60.1078 27.6957 60.1699 28.7473C60.3789 32.3628 59.5983 35.864 59.0219 39.388C58.8226 40.6095 59.2227 41.2186 60.4671 41.2676C61.8698 41.3231 63.2759 41.3231 64.6803 41.297C65.8005 41.2758 66.2986 40.6095 66.1026 39.4991ZM62.0936 28.5791C62.1115 28.3587 62.3532 28.1545 62.4936 27.9439C62.6504 28.1578 62.9068 28.357 62.9427 28.5906C63.0162 29.0511 62.9346 29.5328 62.9787 30.0015C63.0407 30.6449 62.8072 30.8882 62.074 30.6808C62.074 29.959 62.0413 29.2666 62.0936 28.5791ZM61.3032 39.1414C61.4796 37.9477 61.6445 36.7981 61.8192 35.6501C61.9433 34.8385 62.0707 34.0268 62.2258 33.2201C62.2536 33.0764 62.4267 32.9589 62.5312 32.8282C62.6308 32.9409 62.7958 33.0421 62.817 33.1663C63.1469 35.1259 63.4571 37.0887 63.787 39.1414H61.3032Z" fill="#D19D0B"/>
<path d="M100.902 30.9274C92.528 30.7217 86.2001 37.3664 86.2704 44.9876C86.1903 52.3917 91.9581 58.7474 99.6219 59.1997C107.699 59.6749 114.283 53.1984 114.606 45.7813C114.972 37.4317 108.352 31.1087 100.902 30.9274ZM100.396 58.2983C93.258 58.4306 87.0183 52.2121 87.1685 44.7786C87.3122 37.6832 93.2841 31.7717 100.616 31.8174C107.689 31.8615 113.844 37.902 113.725 45.3616C113.618 51.9214 107.921 58.3865 100.396 58.2983Z" fill="#D19D0B"/>
<path d="M24.6977 100.595L2.58997 100.123L24.6977 99.651V100.595Z" fill="white"/>
<path d="M150.302 100.595L172.41 100.123L150.302 99.651V100.595Z" fill="white"/>
<path d="M109.565 106.247C109.142 106.069 108.665 106.149 108.456 106.469C108.411 106.539 108.314 106.575 108.21 106.65V106.245H71.1911C71.1911 106.247 71.1911 106.247 71.1911 106.248C71.1911 106.296 71.183 106.341 71.1748 106.436C71.0817 106.364 71.0001 106.325 70.9543 106.258C70.9511 106.253 70.9462 106.247 70.9429 106.244C70.6604 105.858 70.1656 105.937 69.9076 106.244C69.8798 106.276 69.8553 106.312 69.8325 106.351C69.5842 106.789 69.5744 107.24 69.8227 107.679C70.0007 107.988 70.3142 108.125 70.6147 108.02C70.7355 107.979 70.8351 107.872 70.9429 107.788C71.0066 107.738 71.067 107.679 71.1291 107.625C71.1438 107.635 71.1585 107.645 71.1748 107.653V108.108C71.7333 108.201 72.1905 108.437 72.5171 108.891C72.7523 109.22 72.8617 109.593 72.8584 109.991C72.847 110.803 72.2901 111.521 71.5047 111.755C70.7371 111.982 69.8896 111.673 69.4471 110.996C69.0176 110.336 68.9327 109.462 69.7198 108.598C69.3932 108.309 69.0666 108.022 68.7285 107.721C68.3481 108.156 67.9267 108.505 67.2997 108.404C66.9175 108.34 66.6073 108.148 66.3656 107.849C65.9753 107.365 65.959 106.725 66.2921 106.242H65.0183C64.9726 106.397 64.9449 106.56 64.9318 106.733C64.8812 107.4 65.0151 108.017 65.438 108.549C66.1239 109.413 67.0335 109.673 68.0966 109.487C67.9088 110.827 68.5261 112.021 69.692 112.596C70.84 113.164 72.2036 112.939 73.0854 112.033C73.6406 111.461 73.9232 110.775 73.9248 109.975C73.9248 109.183 73.6619 108.492 73.1197 107.906C73.2014 107.921 73.2699 107.945 73.3353 107.978C73.577 108.099 73.8154 108.221 74.0538 108.35C74.1403 108.397 74.2008 108.391 74.2759 108.324C74.4441 108.174 74.6205 108.033 74.8164 107.872C74.9046 108.396 75.1789 108.69 75.7195 108.616C76.0885 108.567 76.2959 108.286 76.3612 107.814C82.2466 107.836 97.5708 107.854 103.466 107.873V108.494H101.369C101.361 108.53 101.354 108.551 101.354 108.571C101.35 108.767 101.338 108.961 101.345 109.157C101.364 109.655 101.283 109.536 101.745 109.684C101.9 109.735 101.937 109.815 101.939 109.955C101.942 110.097 101.918 110.2 101.751 110.223C101.665 110.236 101.581 110.287 101.495 110.302C101.385 110.323 101.353 110.373 101.353 110.484C101.351 111.192 101.343 111.9 101.338 112.607C101.338 112.665 101.343 112.72 101.348 112.79H103.219V111.058H104.064V112.782H105.582V111.067H106.41V112.795H108.274C108.278 112.674 108.29 112.56 108.29 112.444C108.293 111.91 108.293 111.376 108.293 110.844C108.293 110.687 108.339 110.488 108.26 110.383C108.18 110.279 107.978 110.269 107.829 110.213C107.793 110.2 107.733 110.177 107.731 110.155C107.722 110.034 107.712 109.91 107.74 109.794C107.751 109.75 107.857 109.723 107.921 109.699C108.004 109.665 108.089 109.634 108.176 109.612C108.274 109.59 108.301 109.536 108.3 109.443C108.298 109.131 108.3 108.822 108.3 108.494H106.173V107.906H108.195C108.205 107.868 108.208 107.855 108.21 107.841C108.225 107.746 108.243 107.654 108.257 107.56C108.334 107.617 108.424 107.666 108.491 107.733C108.739 107.986 109.035 108.071 109.376 107.976C109.766 107.87 110.054 107.537 110.078 107.168C110.103 106.769 109.889 106.382 109.565 106.247ZM68.7906 106.245H68.6551C68.6747 106.268 68.691 106.292 68.7073 106.317C68.7367 106.292 68.7645 106.27 68.7906 106.245Z" fill="#D19D0B"/>
</svg>
