<svg width="175" height="85" viewBox="0 0 175 85" fill="none" xmlns="http://www.w3.org/2000/svg">
<path d="M94.3139 19.8536C94.3759 19.7374 94.5579 19.7258 94.6344 19.8313C94.7148 19.9272 94.6702 20.0821 94.5608 20.1354C94.6635 21.0785 94.7806 22.0197 94.8833 22.9618C94.8397 22.9676 94.7971 22.9744 94.7535 22.9812C94.6693 22.2046 94.5734 21.429 94.4892 20.6534C94.465 20.484 94.4524 20.3126 94.4262 20.1431C94.3091 20.1092 94.248 19.9591 94.3139 19.8536Z" fill="#08233E"/>
<path d="M96.2368 19.9824C96.3046 19.8798 96.4701 19.8769 96.5427 19.9756C96.6357 20.0812 96.5699 20.271 96.4304 20.2932C96.2987 21.0717 96.1903 21.8541 96.0605 22.6326C96.046 22.7343 96.0266 22.836 96.015 22.9377C95.9724 22.9338 95.9298 22.9299 95.8872 22.927C96.0305 22.0449 96.1612 21.1608 96.3007 20.2787C96.2038 20.2177 96.1642 20.0763 96.2368 19.9824Z" fill="#08233E"/>
<path d="M97.2759 20.2283C97.2362 20.1141 97.334 19.9785 97.455 19.9814C97.5403 19.9775 97.6216 20.0366 97.6458 20.1189C97.6719 20.1877 97.6468 20.268 97.5964 20.3193C97.5654 20.3523 97.519 20.3629 97.4802 20.3842C97.4231 20.5159 97.3863 20.6563 97.3408 20.7928C97.12 21.46 96.9128 22.1301 96.694 22.7972C96.6659 22.8931 96.6281 22.9861 96.6088 23.0838C96.5661 23.0713 96.5226 23.0587 96.479 23.0461C96.6039 22.6539 96.7317 22.2618 96.8595 21.8706C97.0222 21.3632 97.182 20.8538 97.3505 20.3484C97.3176 20.3126 97.2875 20.2748 97.2759 20.2283Z" fill="#D19D0B"/>
<path d="M92.999 20.6186C92.9768 20.4917 93.1104 20.3765 93.2324 20.4104C93.3331 20.4298 93.4018 20.5382 93.3805 20.6379C93.3738 20.6902 93.3379 20.7319 93.3031 20.7696C93.488 21.3477 93.6749 21.9258 93.8647 22.5019C93.9344 22.7091 93.9954 22.9193 94.0709 23.1245C94.0293 23.14 93.9886 23.1575 93.948 23.1749C93.8608 22.9347 93.7892 22.6898 93.7078 22.4477C93.5268 21.8996 93.3544 21.3477 93.1714 20.7996C93.0842 20.7783 93.0029 20.7135 92.999 20.6186Z" fill="#08233E"/>
<path d="M95.2597 20.6592C95.2191 20.5392 95.3304 20.4036 95.4553 20.4143C95.5774 20.4191 95.6742 20.5488 95.6354 20.667C95.618 20.729 95.5696 20.7745 95.5134 20.8016C95.5018 21.5104 95.4825 22.2201 95.4766 22.9289C95.4321 22.9289 95.3876 22.9299 95.343 22.9309C95.3585 22.2211 95.3721 21.5113 95.3856 20.8016C95.3285 20.7706 95.2743 20.726 95.2597 20.6592Z" fill="#D19D0B"/>
<path d="M91.9657 20.7038C91.9599 20.5953 92.0664 20.4995 92.1739 20.515C92.2998 20.5198 92.3792 20.667 92.3347 20.7793C92.3221 20.8093 92.3017 20.8335 92.2833 20.8597C92.6707 21.644 93.0541 22.4303 93.4327 23.2194C93.4579 23.2727 93.4821 23.3269 93.5121 23.3773C93.4753 23.3986 93.4395 23.4189 93.4027 23.4402C92.9873 22.5968 92.5903 21.7447 92.1652 20.9062C92.0568 20.91 91.9541 20.8151 91.9657 20.7038Z" fill="#D19D0B"/>
<path d="M99.0925 20.7696C99.1719 20.6815 99.3316 20.698 99.3917 20.7996C99.4478 20.8849 99.4226 21.0107 99.3374 21.0669C99.2938 21.1008 99.2367 21.0998 99.1844 21.0998C98.6741 21.9142 98.1464 22.7169 97.6439 23.5351C97.608 23.5128 97.5722 23.4925 97.5374 23.4722C97.9208 22.8602 98.312 22.2531 98.7013 21.644C98.831 21.4436 98.953 21.2393 99.0857 21.0407C99.0256 20.9623 99.0198 20.8413 99.0925 20.7696Z" fill="#D19D0B"/>
<path d="M98.0002 20.8393C98.0679 20.7522 98.2112 20.7483 98.2839 20.8306C98.3623 20.909 98.3546 21.0543 98.2655 21.1211C98.2296 21.153 98.1812 21.1627 98.1348 21.1637C97.7988 21.8667 97.4618 22.5697 97.1297 23.2746C97.0929 23.2543 97.0551 23.2359 97.0173 23.2175C97.3485 22.5155 97.6855 21.8154 98.0176 21.1133C97.9469 21.0417 97.9295 20.9178 98.0002 20.8393Z" fill="#08233E"/>
<path d="M93.8539 21.2334C93.8326 21.1075 93.9604 20.9904 94.0844 21.0175C94.1696 21.034 94.2393 21.1104 94.2393 21.1986C94.249 21.2712 94.2015 21.3322 94.1551 21.3806C94.2654 21.9248 94.3826 22.467 94.4949 23.0103C94.4523 23.0199 94.4097 23.0316 94.3681 23.0451C94.2577 22.499 94.1463 21.9529 94.0292 21.4087C93.943 21.3893 93.8587 21.3283 93.8539 21.2334Z" fill="#D19D0B"/>
<path d="M91.4418 21.5365C91.3876 21.4368 91.4437 21.2954 91.5541 21.2654C91.6664 21.2276 91.7972 21.3186 91.8001 21.4368C91.8049 21.4852 91.7836 21.5307 91.7613 21.5723C92.2145 22.255 92.6715 22.9357 93.1112 23.6271C93.0773 23.6493 93.0443 23.6716 93.0104 23.6939C92.6783 23.1739 92.3384 22.6597 91.9957 22.1465C91.8853 21.9761 91.7662 21.8115 91.6616 21.6372C91.5764 21.6566 91.4786 21.6198 91.4418 21.5365Z" fill="#08233E"/>
<path d="M99.7915 21.5868C99.8729 21.5133 100.014 21.5297 100.074 21.6227C100.153 21.7321 100.081 21.9074 99.9484 21.9287C99.9087 21.9393 99.8564 21.9103 99.8293 21.9509C99.4313 22.375 99.0546 22.8166 98.6702 23.2533C98.4872 23.4663 98.2984 23.6745 98.1212 23.8933C98.0883 23.8672 98.0534 23.844 98.0186 23.8207C98.4814 23.2852 98.9443 22.7498 99.4168 22.2221C99.5272 22.0952 99.6434 21.9751 99.7489 21.8454C99.7063 21.7621 99.7189 21.6498 99.7915 21.5868Z" fill="#08233E"/>
<path d="M90.4049 21.7747C90.4959 21.7098 90.6402 21.7408 90.6915 21.8415C90.7225 21.8977 90.7157 21.9664 90.6934 22.0255C91.2047 22.5968 91.7227 23.1613 92.2417 23.7249C92.3463 23.8362 92.449 23.9495 92.5593 24.0551C92.5284 24.086 92.4993 24.1199 92.4712 24.1538C91.8438 23.4789 91.2279 22.7943 90.6043 22.1156C90.5433 22.134 90.4717 22.1388 90.4165 22.1001C90.3051 22.0332 90.3003 21.8512 90.4049 21.7747Z" fill="#D19D0B"/>
<path d="M100.615 22.2927C100.692 22.2124 100.84 22.2211 100.903 22.3131C100.968 22.4002 100.942 22.5387 100.847 22.5929C100.788 22.6307 100.709 22.6249 100.648 22.5949C100.43 22.7633 100.221 22.9444 100.01 23.1236C99.5329 23.5341 99.0565 23.9447 98.5762 24.3533C98.5481 24.3233 98.522 24.2913 98.4968 24.2594C98.979 23.8478 99.4622 23.4353 99.9415 23.019C100.15 22.8466 100.358 22.6733 100.564 22.499C100.55 22.4273 100.558 22.345 100.615 22.2927Z" fill="#D19D0B"/>
<path d="M89.4016 22.9096C89.389 22.7914 89.5061 22.6801 89.6233 22.7091C89.7385 22.7304 89.8102 22.8612 89.7695 22.9715C90.5151 23.5574 91.2733 24.1258 92.0121 24.7193C91.9908 24.7561 91.9695 24.7939 91.9511 24.8326C91.8891 24.7716 91.8184 24.7203 91.7516 24.6661C91.0709 24.1287 90.3825 23.6009 89.6969 23.0713C89.5778 23.1487 89.3948 23.0548 89.4016 22.9096Z" fill="#D19D0B"/>
<path d="M90.2402 22.8408C90.2664 22.713 90.4358 22.652 90.5385 22.7314C90.6169 22.7808 90.6431 22.8854 90.6101 22.9696C91.1475 23.4605 91.6946 23.9408 92.2349 24.4269C92.2098 24.4598 92.1836 24.4927 92.1565 24.5237C91.6191 24.0434 91.0807 23.5651 90.5472 23.0809C90.5162 23.0393 90.4697 23.0906 90.4291 23.0819C90.3051 23.0955 90.2044 22.958 90.2402 22.8408Z" fill="#08233E"/>
<path d="M101.486 23.1478C101.576 23.0558 101.75 23.0906 101.797 23.2107C101.845 23.3134 101.778 23.447 101.666 23.4683C101.601 23.4838 101.536 23.4615 101.485 23.4228C100.927 23.7723 100.364 24.1112 99.806 24.4598C99.5349 24.6264 99.2677 24.8007 98.9946 24.9653C98.9762 24.9314 98.9549 24.8985 98.9336 24.8665C99.5233 24.484 100.126 24.1219 100.724 23.753C100.957 23.6048 101.196 23.4634 101.425 23.3095C101.436 23.2523 101.437 23.1884 101.486 23.1478Z" fill="#D19D0B"/>
<path d="M98.9617 25.98C98.8183 25.4165 98.5356 24.8878 98.1405 24.4618C97.7 23.9844 97.1258 23.6377 96.506 23.4489C96.0761 23.3201 95.621 23.2795 95.1737 23.3163C94.4736 23.3705 93.789 23.6222 93.2293 24.0493C92.8894 24.3059 92.6038 24.6312 92.3791 24.9934C91.9986 25.6092 91.8137 26.3393 91.8321 27.0626C91.8543 27.4344 91.9153 27.8063 92.0383 28.1587C92.2339 28.7262 92.5651 29.2529 93.0173 29.6518C93.1441 29.7787 93.2932 29.8804 93.4404 29.982C93.6931 30.1457 93.9604 30.289 94.2441 30.3887C95.0701 30.6928 96.0045 30.6666 96.8207 30.3461C97.1219 30.228 97.4008 30.0576 97.6583 29.8629C98.1086 29.5056 98.4959 29.0583 98.738 28.5335C99.105 27.7424 99.1815 26.8225 98.9617 25.98ZM96.599 28.8811C95.8408 28.8753 95.0836 28.8791 94.3264 28.8821C94.5133 28.272 94.6924 27.6591 94.8919 27.052C94.6392 26.9135 94.4436 26.6772 94.3564 26.4032C94.279 26.1679 94.277 25.9084 94.3564 25.6741C94.4368 25.4204 94.6072 25.1977 94.828 25.0505C95.0497 24.8994 95.3276 24.8355 95.5939 24.8636C95.9076 24.8994 96.2001 25.0737 96.3889 25.3255C96.5487 25.5375 96.6281 25.8058 96.6193 26.0701C96.6058 26.4661 96.3773 26.8535 96.0287 27.0461C96.2194 27.6571 96.417 28.2662 96.599 28.8811Z" fill="#08233E"/>
<path d="M96.0288 27.0461C96.2196 27.6571 96.4171 28.2662 96.5982 28.8811C95.841 28.8762 95.0828 28.8791 94.3256 28.883C94.5124 28.273 94.6926 27.66 94.8911 27.0529C94.6383 26.9145 94.4427 26.6782 94.3556 26.4032C94.2791 26.1679 94.2762 25.9094 94.3556 25.6741C94.436 25.4204 94.6064 25.1977 94.8271 25.0514C95.0499 24.8994 95.3278 24.8355 95.594 24.8646C95.9068 24.9004 96.2002 25.0737 96.388 25.3264C96.5478 25.5385 96.6272 25.8067 96.6185 26.0711C96.6059 26.4661 96.3774 26.8534 96.0288 27.0461Z" fill="#D19D0B"/>
<path d="M100.145 23.3782C100.233 23.3104 100.376 23.3376 100.429 23.4383C100.491 23.5448 100.423 23.6939 100.306 23.7249C100.249 23.7452 100.189 23.7239 100.139 23.6949C99.8245 23.9214 99.5107 24.149 99.197 24.3765C99.0692 24.4705 98.9375 24.5586 98.8136 24.6583C98.7884 24.6244 98.7632 24.5896 98.739 24.5537C99.1844 24.2342 99.625 23.9089 100.07 23.5913C100.06 23.5138 100.076 23.4237 100.145 23.3782Z" fill="#08233E"/>
<path d="M89.6234 23.967C89.6883 23.8788 89.8306 23.8692 89.909 23.9437C89.9613 23.9883 89.9807 24.0599 89.972 24.1267C90.5684 24.4821 91.1736 24.821 91.772 25.1735C91.7517 25.2083 91.7333 25.2432 91.7169 25.28C91.4051 25.0941 91.0875 24.9188 90.7757 24.7329C90.4852 24.5673 90.1957 24.4017 89.9071 24.2352C89.848 24.272 89.7735 24.2971 89.7076 24.2652C89.5885 24.2274 89.543 24.0609 89.6234 23.967Z" fill="#08233E"/>
<path d="M88.6629 24.0144C88.7568 23.9408 88.9127 23.9805 88.9611 24.0899C88.9805 24.1257 88.9766 24.1683 88.9786 24.208C89.2226 24.3358 89.4743 24.4501 89.7213 24.574C90.3594 24.88 90.9907 25.1996 91.6259 25.5104C91.6104 25.5491 91.5949 25.5879 91.5804 25.6266C91.1011 25.3758 90.6131 25.1415 90.1279 24.9013C89.7271 24.7038 89.3214 24.516 88.9205 24.3184C88.8488 24.3775 88.7423 24.3891 88.6668 24.331C88.5574 24.2632 88.5593 24.087 88.6629 24.0144Z" fill="#D19D0B"/>
<path d="M100.857 24.424C100.846 24.2836 101.002 24.1625 101.134 24.2206C101.262 24.269 101.282 24.4617 101.175 24.544C101.102 24.6128 100.982 24.6041 100.911 24.5363C100.605 24.6777 100.305 24.8297 100.001 24.974C99.7315 25.1066 99.4584 25.2325 99.1912 25.371C99.1738 25.3351 99.1573 25.2993 99.1389 25.2644C99.4575 25.0998 99.7828 24.9478 100.104 24.788C100.356 24.668 100.604 24.5421 100.857 24.424Z" fill="#08233E"/>
<path d="M101.844 24.5896C101.842 24.455 101.996 24.3494 102.118 24.4104C102.234 24.4588 102.266 24.6225 102.18 24.7135C102.105 24.8084 101.95 24.7977 101.879 24.7038C101.019 25.0408 100.16 25.3768 99.3044 25.7234C99.2918 25.6857 99.2792 25.6479 99.2676 25.6101C100.124 25.2635 100.986 24.9323 101.844 24.5896Z" fill="#D19D0B"/>
<path d="M89.2495 25.2461C89.3057 25.1328 89.48 25.1192 89.5584 25.2151C89.5943 25.2509 89.601 25.3022 89.6049 25.3497C90.2285 25.5675 90.854 25.7777 91.4815 25.981C91.4718 26.0217 91.4631 26.0614 91.4534 26.102C91.007 25.9452 90.5558 25.8028 90.1065 25.6527C89.9283 25.5946 89.7531 25.5269 89.5749 25.4707C89.5178 25.5172 89.4471 25.5608 89.3706 25.5365C89.2437 25.5133 89.1856 25.3535 89.2495 25.2461Z" fill="#08233E"/>
<path d="M102.083 25.371C102.089 25.2364 102.256 25.1512 102.369 25.2228C102.484 25.2829 102.484 25.4601 102.388 25.5375C102.303 25.616 102.156 25.5976 102.096 25.4988C101.438 25.6683 100.778 25.8387 100.12 26.0091C99.8912 26.0614 99.6676 26.133 99.4381 26.1795C99.4323 26.1408 99.4265 26.103 99.4197 26.0653C100.125 25.8871 100.829 25.7012 101.533 25.5201C101.716 25.4707 101.901 25.4272 102.083 25.371Z" fill="#08233E"/>
<path d="M88.4498 25.7167C88.4982 25.6247 88.626 25.5966 88.7132 25.6499C88.7732 25.6789 88.8013 25.7438 88.8119 25.8067C89.4743 25.9317 90.1288 26.0934 90.7892 26.2279C91.0003 26.2715 91.2085 26.3287 91.4196 26.3674C91.4157 26.4081 91.4128 26.4487 91.4089 26.4894C90.5336 26.2967 89.6611 26.0905 88.78 25.9258C88.7287 25.9956 88.6347 26.0333 88.5515 25.9985C88.4411 25.9617 88.3907 25.8164 88.4498 25.7167Z" fill="#D19D0B"/>
<path d="M100.802 26.3993C100.822 26.3054 100.91 26.2289 101.009 26.2395C101.108 26.2395 101.192 26.3325 101.188 26.4303C101.192 26.5271 101.108 26.623 101.01 26.6201C100.935 26.6288 100.864 26.5843 100.826 26.5223C100.388 26.5746 99.9503 26.6288 99.5136 26.6879C99.5097 26.6482 99.5068 26.6094 99.502 26.5697C99.9348 26.5078 100.369 26.4545 100.802 26.3993Z" fill="#D19D0B"/>
<path d="M88.1108 26.7741C88.1428 26.6821 88.2542 26.6307 88.3452 26.6646C88.4071 26.6801 88.4517 26.7295 88.4788 26.7847C89.449 26.8283 90.4183 26.8738 91.3885 26.9067C91.3866 26.9474 91.3856 26.988 91.3856 27.0287C90.4154 26.9929 89.4452 26.9522 88.4759 26.9125C88.4439 26.9929 88.3636 27.0549 88.2745 27.0452C88.1486 27.0374 88.0586 26.8902 88.1108 26.7741Z" fill="#08233E"/>
<path d="M102.348 26.8186C102.385 26.6743 102.598 26.6317 102.685 26.7537C102.774 26.8602 102.701 27.0423 102.565 27.0626C102.472 27.0868 102.381 27.0277 102.344 26.9445C101.88 26.9725 101.417 27.0045 100.954 27.0384C100.475 27.0665 99.9976 27.1158 99.5183 27.1497C99.5232 27.1091 99.5261 27.0674 99.5261 27.0268C100.466 26.9512 101.407 26.8815 102.348 26.8186Z" fill="#08233E"/>
<path d="M89.0994 27.3212C89.1952 27.266 89.3269 27.3057 89.3773 27.4044C90.0473 27.3763 90.7174 27.3454 91.3865 27.3173C91.3884 27.357 91.3914 27.3976 91.3943 27.4383C90.976 27.4499 90.5586 27.4799 90.1403 27.4925C89.8915 27.508 89.6416 27.5167 89.3928 27.5284C89.3783 27.5632 89.3657 27.602 89.3366 27.6291C89.265 27.7017 89.1342 27.6978 89.0626 27.6271C88.9803 27.541 88.9938 27.3812 89.0994 27.3212Z" fill="#D19D0B"/>
<path d="M99.4847 27.5206C100.268 27.6223 101.054 27.6988 101.838 27.7966C101.877 27.7269 101.955 27.6804 102.036 27.6959C102.153 27.7065 102.232 27.8431 102.188 27.9515C102.157 28.06 102.021 28.1123 101.922 28.0609C101.862 28.0367 101.836 27.9738 101.812 27.9186C101.55 27.9002 101.292 27.8528 101.03 27.8276C100.509 27.7617 99.9853 27.7104 99.4644 27.6455C99.4721 27.6039 99.4798 27.5623 99.4847 27.5206Z" fill="#D19D0B"/>
<path d="M89.7601 28.0513C90.3236 27.969 90.8872 27.8818 91.4498 27.7956C91.4594 27.8353 91.4672 27.876 91.472 27.9167C91.2096 27.9573 90.9462 27.9951 90.6829 28.0329C90.0022 28.1336 89.3243 28.2469 88.6427 28.3417C88.6262 28.4144 88.5768 28.4851 88.4994 28.4996C88.4025 28.5267 88.2921 28.4667 88.266 28.3689C88.2263 28.2633 88.2999 28.1297 88.4141 28.1152C88.4974 28.0987 88.5758 28.1471 88.6214 28.2139C89.0009 28.1675 89.3795 28.1045 89.7601 28.0513Z" fill="#08233E"/>
<path d="M99.3683 28.0503C100.017 28.2313 100.674 28.3785 101.326 28.5441C101.636 28.6187 101.946 28.6951 102.255 28.7745C102.317 28.6613 102.492 28.6429 102.572 28.7436C102.656 28.8375 102.614 29.0002 102.5 29.0486C102.387 29.1028 102.244 29.0215 102.231 28.8975C101.997 28.8278 101.759 28.7765 101.524 28.7135C100.795 28.5238 100.059 28.363 99.3315 28.1674C99.3461 28.1297 99.3577 28.09 99.3683 28.0503Z" fill="#08233E"/>
<path d="M91.2597 28.3505C91.3604 28.3204 91.4621 28.2943 91.5618 28.2604C91.5754 28.2991 91.5899 28.3388 91.6044 28.3785C91.2442 28.4851 90.883 28.5858 90.5228 28.6903C90.1771 28.7968 89.8237 28.8801 89.4771 28.9847C89.4819 29.1145 89.3463 29.2239 89.2214 29.1784C89.0888 29.1387 89.052 28.9518 89.1478 28.8569C89.2224 28.7726 89.3618 28.7862 89.4344 28.8666C90.0435 28.699 90.6506 28.5218 91.2597 28.3505Z" fill="#D19D0B"/>
<path d="M99.1844 28.5945C99.5504 28.7416 99.9184 28.8849 100.284 29.0321C100.673 29.1919 101.064 29.3478 101.452 29.5066C101.528 29.4311 101.658 29.4156 101.738 29.494C101.839 29.5841 101.802 29.77 101.674 29.8145C101.57 29.8668 101.435 29.7864 101.418 29.6751C101.412 29.6451 101.42 29.6025 101.38 29.5966C100.635 29.2936 99.8835 29.005 99.136 28.7077C99.1524 28.67 99.1689 28.6322 99.1844 28.5945Z" fill="#D19D0B"/>
<path d="M89.3658 29.6421C90.1579 29.3216 90.9519 29.0069 91.7468 28.6942C91.7652 28.7281 91.7827 28.762 91.8011 28.7949C91.4864 28.9256 91.1668 29.0437 90.8521 29.1745C90.489 29.3168 90.1288 29.4659 89.7676 29.6121C89.5207 29.7109 89.2728 29.8058 89.0308 29.9142C89.0308 29.9936 88.9814 30.074 88.902 30.0943C88.7877 30.1321 88.6464 30.0411 88.6493 29.9171C88.6415 29.8232 88.7132 29.7303 88.8081 29.7186C88.8778 29.7041 88.9446 29.7409 88.9949 29.7874C89.1218 29.7467 89.2428 29.6896 89.3658 29.6421Z" fill="#08233E"/>
<path d="M98.9202 29.1338C98.9415 29.0989 98.9618 29.0631 98.9831 29.0283C99.5021 29.3246 100.029 29.6063 100.548 29.9017C100.757 30.0237 100.97 30.1379 101.181 30.2551C101.328 30.3345 101.472 30.4207 101.623 30.4914C101.698 30.442 101.806 30.4381 101.873 30.503C101.963 30.5775 101.95 30.7305 101.857 30.7983C101.77 30.8729 101.62 30.84 101.569 30.7383C101.546 30.6966 101.546 30.6473 101.551 30.6017C101.175 30.3926 100.803 30.1815 100.429 29.9695C99.9282 29.6877 99.4217 29.4146 98.9202 29.1338Z" fill="#08233E"/>
<path d="M90.8356 29.6741C91.1968 29.4727 91.5647 29.28 91.9249 29.0757C91.9472 29.1106 91.9704 29.1454 91.9937 29.1803C91.404 29.4969 90.8191 29.8232 90.2343 30.1505C90.1917 30.1747 90.1481 30.198 90.1045 30.2202C90.1132 30.2909 90.0987 30.3713 90.0387 30.4158C89.9612 30.4856 89.8295 30.471 89.7675 30.3887C89.692 30.2919 89.7259 30.1273 89.8431 30.0808C89.9118 30.0498 89.9873 30.074 90.0493 30.1089C90.3146 29.9695 90.5712 29.8155 90.8356 29.6741Z" fill="#D19D0B"/>
<path d="M90.699 30.4933C91.1783 30.1273 91.6635 29.7709 92.1466 29.4107C92.1757 29.4398 92.2018 29.4708 92.228 29.5027C91.6896 29.892 91.1629 30.2987 90.6303 30.6976C90.3998 30.868 90.1752 31.0462 89.9438 31.2166C89.9718 31.3105 89.9321 31.4267 89.8372 31.4635C89.7404 31.509 89.6155 31.4509 89.5826 31.3502C89.5439 31.2621 89.5923 31.1508 89.6794 31.112C89.7365 31.084 89.8043 31.0917 89.8615 31.1159C90.15 30.9223 90.4192 30.7005 90.699 30.4933Z" fill="#08233E"/>
<path d="M98.645 29.5366C98.6692 29.5046 98.6934 29.4727 98.7167 29.4417C99.2764 29.861 99.8418 30.2745 100.399 30.6976C100.488 30.7634 100.577 30.8293 100.677 30.8767C100.744 30.8525 100.825 30.8467 100.884 30.8942C100.993 30.9668 100.978 31.1469 100.867 31.2108C100.771 31.2766 100.627 31.2214 100.593 31.113C100.574 31.0694 100.58 31.021 100.588 30.9755C100.429 30.8738 100.283 30.7509 100.13 30.6395C99.6414 30.2638 99.1389 29.9055 98.645 29.5366Z" fill="#D19D0B"/>
<path d="M98.4368 29.77C98.707 30.013 98.9868 30.2464 99.257 30.4894C99.3567 30.4168 99.5165 30.4623 99.5542 30.5824C99.6027 30.7044 99.502 30.8584 99.3674 30.8448C99.2434 30.8419 99.1572 30.7073 99.1882 30.5901C98.9103 30.349 98.6363 30.1031 98.3574 29.8639C98.3845 29.8339 98.4117 29.8019 98.4368 29.77Z" fill="#08233E"/>
<path d="M91.4853 30.7509C91.8233 30.442 92.1593 30.1312 92.4972 29.8223C92.5233 29.8494 92.5504 29.8765 92.5785 29.9026C92.0721 30.3742 91.5589 30.838 91.0525 31.3096C90.9711 31.3899 90.885 31.4635 90.7969 31.5362C90.8375 31.6417 90.7794 31.7773 90.6661 31.8044C90.5461 31.8383 90.4221 31.7289 90.4279 31.6078C90.425 31.4858 90.5606 31.3861 90.6758 31.4287C90.7194 31.451 90.7513 31.4016 90.7852 31.3822C91.0254 31.1798 91.25 30.9591 91.4853 30.7509Z" fill="#D19D0B"/>
<path d="M92.8461 30.1524C92.8761 30.1776 92.9071 30.2028 92.938 30.227C92.4878 30.7789 92.0346 31.328 91.5805 31.877C91.6473 31.9874 91.5844 32.15 91.4546 32.1733C91.3219 32.2062 91.1941 32.0658 91.2329 31.936C91.2542 31.8237 91.383 31.7705 91.4866 31.8034C91.7141 31.5158 91.9533 31.2369 92.1857 30.9532C92.4064 30.6879 92.6233 30.4177 92.8461 30.1524Z" fill="#08233E"/>
<path d="M97.9392 30.2415C97.9673 30.2164 97.9954 30.1912 98.0235 30.165C98.1948 30.3374 98.344 30.5301 98.5066 30.7102C98.8562 31.113 99.2116 31.51 99.5601 31.9128C99.7025 32.0726 99.838 32.2382 99.9862 32.3931C100.063 32.3689 100.153 32.3824 100.205 32.4464C100.289 32.5393 100.252 32.7078 100.134 32.7523C100.019 32.8095 99.8719 32.7068 99.871 32.5819C99.8671 32.5451 99.8807 32.5103 99.8913 32.4754C99.7906 32.3418 99.6763 32.2207 99.5669 32.0949C99.0237 31.4771 98.4776 30.8622 97.9392 30.2415Z" fill="#D19D0B"/>
<path d="M93.2419 30.441C93.2739 30.4623 93.3039 30.4846 93.3349 30.5078C93.1819 30.7644 93.0144 31.0123 92.8556 31.265C92.5128 31.8053 92.1622 32.3418 91.8243 32.885C91.8747 32.976 91.8611 33.1116 91.7662 33.1677C91.6723 33.2297 91.5299 33.1861 91.4854 33.0825C91.4273 32.9702 91.5145 32.8143 91.6432 32.8143C91.6733 32.8085 91.7168 32.8317 91.7333 32.7959C92.047 32.3156 92.353 31.8296 92.6638 31.3473C92.8565 31.0452 93.056 30.748 93.2419 30.441Z" fill="#D19D0B"/>
<path d="M97.4753 30.5495C97.5112 30.5282 97.546 30.5069 97.5809 30.4836C97.8675 30.9271 98.159 31.3667 98.4504 31.8073C98.6373 32.0871 98.8174 32.3728 99.013 32.6468C99.1156 32.6265 99.2289 32.6971 99.2396 32.8046C99.2648 32.9266 99.1495 33.0515 99.0246 33.0273C98.8803 33.0128 98.8126 32.823 98.9036 32.7136C98.6847 32.3718 98.4582 32.0348 98.2355 31.695C97.9779 31.3164 97.7319 30.929 97.4753 30.5495Z" fill="#08233E"/>
<path d="M93.732 30.7112C93.7668 30.7276 93.8017 30.7421 93.8375 30.7567C93.425 31.6446 93.0174 32.5345 92.5991 33.4195C92.6581 33.4931 92.6678 33.6064 92.6039 33.68C92.5371 33.771 92.388 33.771 92.3153 33.6887C92.2359 33.6064 92.2563 33.4553 92.3531 33.3963C92.3918 33.3682 92.4403 33.3682 92.4858 33.3701C92.9099 32.487 93.3166 31.5971 93.732 30.7112Z" fill="#08233E"/>
<path d="M96.9282 30.8216C96.964 30.8061 96.9999 30.7915 97.0347 30.7741C97.1267 30.9503 97.2042 31.1343 97.2894 31.3144C97.5402 31.8625 97.8026 32.4057 98.0582 32.9518C98.1396 33.1232 98.2248 33.2927 98.3013 33.467C98.3787 33.466 98.4601 33.5008 98.4959 33.5744C98.5492 33.6693 98.4998 33.7981 98.401 33.8388C98.2877 33.892 98.1376 33.803 98.1309 33.6771C98.1221 33.6141 98.1541 33.557 98.1919 33.5096C97.8646 32.823 97.5421 32.1346 97.2236 31.4442C97.1229 31.2379 97.0338 31.0259 96.9282 30.8216Z" fill="#D19D0B"/>
<path d="M93.5837 32.3737C93.7609 31.8692 93.9372 31.3657 94.1231 30.8641C94.1589 30.8767 94.1957 30.8883 94.2315 30.9019C94.0543 31.4054 93.8752 31.908 93.6999 32.4115C93.7822 32.4812 93.7958 32.6148 93.7193 32.6942C93.6331 32.7969 93.4424 32.763 93.4017 32.6332C93.3514 32.5132 93.4482 32.3592 93.5837 32.3737Z" fill="#D19D0B"/>
<path d="M96.4431 30.9871C96.4818 30.9765 96.5216 30.9668 96.5603 30.9542C96.8169 31.7753 97.088 32.5916 97.3446 33.4127C97.4095 33.4292 97.4821 33.4495 97.5179 33.5144C97.5867 33.617 97.5208 33.771 97.4027 33.7991C97.2923 33.8339 97.1616 33.7439 97.1635 33.6267C97.1558 33.5618 97.1868 33.4999 97.2352 33.4592C96.9737 32.6342 96.7046 31.8121 96.4431 30.9871Z" fill="#08233E"/>
<path d="M94.5241 30.992C94.5628 30.9997 94.6016 31.0084 94.6403 31.0152C94.465 31.876 94.2975 32.7388 94.1232 33.5986C94.1813 33.6403 94.2278 33.7052 94.222 33.7807C94.2259 33.9085 94.0787 34.0073 93.9615 33.9559C93.8569 33.923 93.8056 33.7933 93.8511 33.6964C93.8734 33.6325 93.9363 33.5977 93.9993 33.5831C94.1658 32.8317 94.3053 32.0736 94.4612 31.3193C94.4825 31.2098 94.5047 31.1014 94.5241 30.992Z" fill="#08233E"/>
<path d="M96.0063 31.0559C96.046 31.0501 96.0857 31.0452 96.1254 31.0404C96.201 31.5148 96.2775 31.9893 96.3559 32.4638C96.4111 32.4841 96.4692 32.5112 96.4944 32.5684C96.5515 32.671 96.4924 32.8201 96.3762 32.8482C96.2784 32.8772 96.1632 32.8172 96.14 32.7155C96.1129 32.6265 96.1555 32.5287 96.2358 32.4831C96.1613 32.0077 96.0819 31.5323 96.0063 31.0559Z" fill="#D19D0B"/>
<path d="M94.9519 33.2123C95.0003 32.4977 95.0545 31.7831 95.1107 31.0694C95.1484 31.0743 95.1872 31.0772 95.2249 31.0801C95.1746 31.7927 95.1242 32.5054 95.071 33.2181C95.1436 33.2491 95.2046 33.3198 95.1988 33.4021C95.2085 33.525 95.0777 33.6306 94.9586 33.5948C94.8279 33.5696 94.7766 33.3953 94.8502 33.2926C94.8734 33.2539 94.916 33.2365 94.9519 33.2123Z" fill="#D19D0B"/>
<path d="M95.4719 31.0869C95.5107 31.0859 95.5504 31.0849 95.5891 31.084C95.6462 31.8789 95.6811 32.6758 95.7305 33.4718C95.7411 33.6432 95.7469 33.8146 95.7644 33.985C95.8447 34.0102 95.9106 34.0838 95.9067 34.1709C95.9115 34.289 95.7915 34.3926 95.6753 34.3636C95.5639 34.3442 95.4884 34.2106 95.5358 34.1051C95.5533 34.0537 95.5949 34.0179 95.6385 33.9889C95.5833 33.0215 95.5349 32.0542 95.4719 31.0869Z" fill="#08233E"/>
<path d="M108.083 38.3298C106.958 37.1426 105.803 35.9845 104.649 34.8255C104.442 34.6183 104.196 34.4285 103.855 34.6086C103.796 34.6405 103.665 34.595 103.599 34.5437C103.415 34.4033 103.248 34.2406 103.074 34.0857C105.688 31.0762 106.443 27.7027 105.326 23.9824C104.2 20.2293 101.549 17.9983 97.8278 16.91C97.8278 15.6047 97.8191 14.3401 97.8394 13.0765C97.8423 12.9312 97.9779 12.724 98.1086 12.6562C98.7671 12.3173 99.442 12.0123 100.114 11.7015C101.257 11.1738 102.405 10.6586 103.543 10.1212C104.075 9.86945 104.131 9.37659 103.685 9.03575C103.58 8.95538 103.458 8.89728 103.336 8.84209C97.548 6.18797 91.7614 3.53096 85.9642 0.897177C85.7047 0.779045 85.3212 0.804219 85.0385 0.895239C84.563 1.04823 84.1225 1.30967 83.6654 1.52076C78.3136 3.98799 72.9628 6.45522 67.6091 8.91858C67.3002 9.06092 67 9.20907 67 9.5993C67.001 9.98371 67.2818 10.1454 67.5974 10.2887C69.0664 10.9578 70.5266 11.6463 71.9974 12.3115L72.0478 12.3347L73.9292 13.2236C73.9485 13.2324 73.9679 13.2411 73.9873 13.2498C77.631 14.9308 81.2757 16.6098 84.9165 18.2975C85.2951 18.4738 85.635 18.4844 86.0194 18.3034C89.2332 16.787 92.4528 15.2823 95.6724 13.7775C95.9222 13.6613 96.1807 13.5655 96.4586 13.4502V16.7182C94.1444 16.5401 91.9967 16.9826 90.0214 18.1484C88.0451 19.3152 86.6507 21.0001 85.7134 23.111C82.9305 19.8923 79.4088 18.1416 75.2819 17.4735V18.7904C75.7767 18.9018 76.2415 18.9908 76.6975 19.1119C80.0053 19.9863 82.8201 21.6333 84.9533 24.3649C85.1895 24.667 85.1508 24.9372 85.1334 25.2654C85.0811 26.2531 85.0404 27.2437 85.0549 28.2323C85.0637 28.8801 85.2263 29.526 85.2321 30.1738C85.2544 32.6574 85.2409 35.1411 85.2409 37.6258V38.1187C82.0958 34.1961 78.026 32.4251 73.0916 32.428V26.1689H71.766V26.7518C71.766 28.8491 71.765 30.9474 71.765 33.0448C71.764 33.7323 71.8899 33.8175 72.5677 33.8349C73.6919 33.8639 74.8316 33.8407 75.9345 34.0257C78.8539 34.5166 81.3754 35.818 83.3953 38.017C83.6616 38.3075 83.8852 38.6377 84.1283 38.9485C79.3836 36.4939 74.4772 35.6989 69.259 37.1049V35.6263C69.259 30.6134 69.261 25.6005 69.2552 20.5876C69.2552 20.453 69.2039 20.2119 69.1429 20.2012C68.8175 20.1422 68.4708 20.087 68.1542 20.148C68.0438 20.1693 67.9354 20.5295 67.9354 20.7348C67.9238 26.4913 67.9257 32.2488 67.9257 38.0054C67.9257 38.7742 68.0981 38.9001 68.8156 38.6687C71.7379 37.7236 74.7028 37.5106 77.7268 38.1032C80.4468 38.6367 82.9198 39.7231 85.1779 41.315C85.4955 41.5397 85.817 41.7091 86.2033 41.5329C86.3902 41.4477 86.5568 41.316 86.7272 41.1979C89.178 39.4937 91.866 38.3985 94.8338 38.0083C96.2466 37.8224 97.6448 37.5532 98.9258 36.9005C99.9755 36.366 100.987 35.7579 101.986 35.2002C102.156 35.3406 102.373 35.5197 102.608 35.7144C102.304 36.0417 102.34 36.3312 102.614 36.6023C103.81 37.7836 104.995 38.9746 106.206 40.1405C106.758 40.674 107.53 40.6575 108.051 40.1608C108.578 39.6592 108.623 38.901 108.083 38.3298ZM85.8112 16.8703C85.6543 16.9429 85.4142 16.9845 85.2699 16.9187C82.0551 15.442 78.8481 13.9489 75.5695 12.4258C76.592 12.0171 77.5613 11.6279 78.5315 11.2415C80.8399 10.3216 83.1484 9.40273 85.4568 8.48381C85.5255 8.4567 85.5943 8.42765 85.6611 8.39473C86.1104 8.17589 86.2798 7.84086 86.1278 7.47678C85.9777 7.11948 85.5914 6.98101 85.1508 7.1553C81.5487 8.58452 77.9466 10.0137 74.3504 11.4594C74.0202 11.593 73.7491 11.6172 73.4256 11.4633C72.1949 10.8794 70.9545 10.3168 69.719 9.74357C69.6551 9.71356 69.5989 9.66514 69.4682 9.57896C70.1605 9.25942 70.7977 8.96603 71.4348 8.67263C75.9394 6.5995 80.4449 4.52927 84.9446 2.44549C85.3193 2.27216 85.6311 2.24602 86.0223 2.42516C91.0022 4.7055 95.99 6.96939 100.975 9.23909C101.136 9.31171 101.289 9.40176 101.533 9.52958C100.095 10.1938 98.7235 10.8203 97.3582 11.4604C93.5092 13.2633 89.6631 15.0731 85.8112 16.8703ZM86.5452 38.0034V32.7727C87.3856 33.6422 88.2765 34.5631 89.1044 35.419C88.2804 36.2518 87.4011 37.1397 86.5452 38.0034ZM87.7943 38.8139C88.4285 37.8262 89.2806 36.9645 90.3661 36.3438C90.4493 36.2963 90.5917 36.2857 90.6808 36.3215C91.2792 36.5645 91.8718 36.826 92.3656 37.038C90.8812 37.6142 89.3261 38.2184 87.7943 38.8139ZM95.1805 36.1501C90.276 36.0242 86.2295 31.9729 86.3108 27.0336C86.2198 22.2269 90.1395 17.9964 95.3993 17.9741C100.438 17.9519 104.529 22.0575 104.523 27.0277C104.515 32.3195 100.085 36.276 95.1805 36.1501Z" fill="#08233E"/>
<path d="M75.0465 23.7539C74.6679 21.6091 74.2128 19.475 74.3299 17.2721C74.359 16.7289 74.1973 16.2118 73.6831 15.8845C73.6085 15.8371 73.5359 15.7209 73.534 15.6357C73.5233 14.7942 73.5282 13.9528 73.5282 13.0571C73.6918 13.1258 73.8148 13.1733 73.929 13.2236L72.0476 12.3347C72.2791 12.4519 72.3894 12.6001 72.3856 12.876C72.374 13.7388 72.3856 14.6015 72.374 15.4643C72.372 15.5815 72.3255 15.7558 72.2423 15.8042C71.6255 16.1653 71.4918 16.755 71.5286 17.3786C71.6526 19.5224 71.1897 21.5985 70.8479 23.6881C70.7298 24.4124 70.967 24.7735 71.7049 24.8026C72.5366 24.8355 73.3703 24.8355 74.2031 24.82C74.8673 24.8074 75.1627 24.4124 75.0465 23.7539ZM72.6693 17.2789C72.6799 17.1482 72.8232 17.0271 72.9065 16.9022C72.9995 17.0291 73.1515 17.1472 73.1728 17.2857C73.2164 17.5587 73.168 17.8444 73.1941 18.1223C73.2309 18.5038 73.0924 18.6481 72.6577 18.5251C72.6577 18.0971 72.6383 17.6865 72.6693 17.2789ZM72.2006 23.5419C72.3052 22.834 72.403 22.1523 72.5066 21.4716C72.5802 20.9904 72.6557 20.5091 72.7477 20.0308C72.7642 19.9456 72.8668 19.8759 72.9288 19.7984C72.9879 19.8652 73.0857 19.9253 73.0982 19.9988C73.2938 21.1608 73.4778 22.3247 73.6734 23.5419H72.2006Z" fill="#D19D0B"/>
<path d="M95.6811 18.6713C90.7157 18.5493 86.9635 22.4893 87.0051 27.0084C86.9577 31.3987 90.3777 35.1673 94.922 35.4355C99.7112 35.7173 103.615 31.877 103.807 27.479C104.024 22.528 100.098 18.7788 95.6811 18.6713ZM95.3809 34.901C91.1485 34.9794 87.4486 31.2921 87.5377 26.8844C87.6229 22.6772 91.164 19.1719 95.5116 19.199C99.7054 19.2252 103.355 22.8069 103.284 27.2301C103.221 31.1198 99.8429 34.9533 95.3809 34.901Z" fill="#D19D0B"/>
<path d="M5.98336 56.8888C3.80329 56.3108 3.26276 56.0772 3.26276 55.2297V55.1938C3.26276 54.5634 3.80328 54.0948 4.88434 54.0948C5.96539 54.0948 7.03011 54.5634 8.16506 55.3375L9.60701 53.2472C8.30876 52.2201 6.777 51.6436 4.92026 51.6436C2.32541 51.6436 0.5046 53.1574 0.5046 55.4469V55.4828C0.5046 57.9699 2.12618 58.7097 4.68674 59.34C6.79496 59.8626 7.22771 60.2414 7.22771 60.9436V60.9795C7.22771 61.7193 6.56144 62.17 5.4069 62.17C3.96495 62.17 2.79408 61.5756 1.63954 60.6382L0 62.6028C1.5138 63.9729 3.42442 64.6212 5.35301 64.6212C8.07524 64.6212 9.98586 63.2151 9.98586 60.7101V60.6742C9.98586 58.4745 8.54392 57.5731 5.98336 56.8888Z" fill="#08233E"/>
<path d="M19.8819 51.8233L16.8183 56.8889L13.8071 51.8233H10.5623L15.4123 59.4658V64.4415H18.1884V59.4119L23.0368 51.8233H19.8819Z" fill="#08233E"/>
<path d="M29.9232 51.8233H24.7678V64.4415H27.5439V60.6562H29.6522C32.4822 60.6562 34.7537 59.1604 34.7537 56.221V56.185C34.7537 53.5902 32.9329 51.8233 29.9232 51.8233ZM31.9416 56.2749C31.9416 57.3575 31.1317 58.1871 29.7436 58.1871H27.5439V54.3283H29.6881C31.0761 54.3283 31.9416 54.9962 31.9416 56.2389V56.2749Z" fill="#08233E"/>
<path d="M44.7054 51.8233V56.817H39.5859V51.8233H36.8098V64.4415H39.5859V59.3759H44.7054V64.4415H47.4815V51.8233H44.7054Z" fill="#08233E"/>
<path d="M51.2683 61.9724V64.4415H60.1176V61.9724H51.2683ZM60.0278 51.8233H51.2683V54.2924H60.0278V51.8233ZM59.2162 56.8529H51.2683V59.3221H59.2162V56.8529Z" fill="#D19D0B"/>
<path d="M70.4107 59.9344C72.0159 59.34 73.1149 58.0597 73.1149 56.0234V55.9875C73.1149 54.779 72.754 53.8237 72.0339 53.1035C71.1863 52.256 69.96 51.8233 68.3563 51.8233H62.5869V64.4415H65.363V60.4031H67.5447L70.249 64.4415H73.4938L70.4107 59.9344ZM70.3029 56.1671C70.3029 57.2481 69.5452 57.952 68.1751 57.952H65.363V54.3283H68.1212C69.4913 54.3283 70.3029 54.9244 70.3029 56.1312V56.1671Z" fill="#08233E"/>
<path d="M87.9147 51.7335H85.3542L79.9473 64.4415H82.7773L83.9302 61.6115H89.2669L90.4198 64.4415H93.3216L87.9147 51.7335ZM84.923 59.1604L86.5985 55.0681L88.2756 59.1604H84.923Z" fill="#08233E"/>
<path d="M103.778 60.6203C102.787 61.5397 101.903 62.0982 100.461 62.0982C98.2976 62.0982 96.8018 60.2953 96.8018 58.1316V58.0957C96.8018 55.9336 98.3335 54.1666 100.461 54.1666C101.742 54.1666 102.697 54.7072 103.688 55.5906L105.455 53.5543C104.301 52.3997 102.841 51.6061 100.479 51.6061C96.6042 51.6061 93.8999 54.5455 93.8999 58.1316V58.1675C93.8999 61.7912 96.658 64.6571 100.372 64.6571C102.823 64.6571 104.247 63.7916 105.545 62.4035L103.778 60.6203Z" fill="#08233E"/>
<path d="M114.647 51.7335H112.088L106.681 64.4415H109.511L110.664 61.6115H115.999L117.154 64.4415H120.056L114.647 51.7335ZM111.656 59.1604L113.333 55.0681L115.008 59.1604H111.656Z" fill="#08233E"/>
<path d="M126.924 51.8233H122.004V64.4415H126.924C130.889 64.4415 133.629 61.6834 133.629 58.1316V58.0957C133.629 54.5455 130.889 51.8233 126.924 51.8233ZM130.727 58.1675C130.727 60.4031 129.178 61.9349 126.924 61.9349H124.778V54.3283H126.924C129.178 54.3283 130.727 55.8976 130.727 58.1316V58.1675Z" fill="#08233E"/>
<path d="M138.858 61.9724V59.3221H144.806V56.8529H138.858V54.2924H145.617V51.8233H136.1V64.4415H145.707V61.9724H138.858Z" fill="#08233E"/>
<path d="M157.803 51.8233L154.486 57.1583L151.169 51.8233H148.178V64.4415H150.9V56.2569L154.414 61.5936H154.486L158.038 56.203V64.4415H160.796V51.8233H157.803Z" fill="#08233E"/>
<path d="M171.847 51.8233L168.782 56.8889L165.772 51.8233H162.527L167.376 59.4658V64.4415H170.152V59.4119L175 51.8233H171.847Z" fill="#08233E"/>
<path d="M32.719 68.7437V71.6618C32.719 72.5959 32.234 73.0662 31.4436 73.0662C30.6402 73.0662 30.1617 72.5747 30.1617 71.6259V68.7437H29.2717V71.6618C29.2717 73.1316 30.1193 73.8925 31.4289 73.8925C32.7549 73.8925 33.609 73.1316 33.609 71.6178V68.7437H32.719Z" fill="#D19D0B"/>
<path d="M39.1775 68.7437V72.2481L36.4618 68.7437H35.6355V73.8125H36.5124V70.2068L39.3065 73.8125H40.0528V68.7437H39.1775Z" fill="#D19D0B"/>
<path d="M43.0511 73.0009V68.7437H42.1594V73.8125H45.7145V73.0009H43.0511Z" fill="#D19D0B"/>
<path d="M49.5601 68.6571C48.0023 68.6571 46.9016 69.859 46.9016 71.2781V71.2928C46.9016 72.7184 47.9892 73.8991 49.5455 73.8991C51.1017 73.8991 52.2024 72.6972 52.2024 71.2781V71.2634C52.2024 69.8361 51.1164 68.6571 49.5601 68.6571ZM51.2683 71.2928C51.2683 72.2775 50.5661 73.0728 49.5601 73.0728C48.546 73.0728 47.8357 72.2628 47.8357 71.2781V71.2634C47.8357 70.2787 48.5395 69.4818 49.5455 69.4818C50.5596 69.4818 51.2683 70.2934 51.2683 71.2781V71.2928Z" fill="#D19D0B"/>
<path d="M57.9228 72.4212C57.4884 72.8278 57.0818 73.0728 56.4678 73.0728C55.4961 73.0728 54.7939 72.2693 54.7939 71.2781V71.2634C54.7939 70.2705 55.5043 69.4818 56.4596 69.4818C57.0459 69.4818 57.4737 69.7284 57.8869 70.1056L58.4584 69.4458C57.9734 68.9821 57.4084 68.6571 56.4678 68.6571C54.9393 68.6571 53.8599 69.8361 53.8599 71.2781V71.2928C53.8599 72.7478 54.9605 73.8991 56.4384 73.8991C57.379 73.8991 57.98 73.5594 58.4943 73.0009L57.9228 72.4212Z" fill="#D19D0B"/>
<path d="M62.5281 70.9237L64.6412 68.7437H63.534L61.1302 71.2928V68.7437H60.2402V73.8125H61.1302V72.3428L61.919 71.5312L63.65 73.8125H64.7359L62.5281 70.9237Z" fill="#D19D0B"/>
<path d="M72.6575 68.7437L71.2238 70.9809L69.8112 68.7437H68.7546L70.7665 71.8137V73.8125H71.6647V71.7925L73.6782 68.7437H72.6575Z" fill="#D19D0B"/>
<path d="M77.2628 68.6571C75.7049 68.6571 74.6042 69.859 74.6042 71.2781V71.2928C74.6042 72.7184 75.6902 73.8991 77.2481 73.8991C78.8043 73.8991 79.905 72.6972 79.905 71.2781V71.2634C79.905 69.8361 78.819 68.6571 77.2628 68.6571ZM78.9709 71.2928C78.9709 72.2775 78.2687 73.0728 77.2628 73.0728C76.2487 73.0728 75.5383 72.2628 75.5383 71.2781V71.2634C75.5383 70.2787 76.2405 69.4818 77.2481 69.4818C78.2606 69.4818 78.9709 70.2934 78.9709 71.2781V71.2928Z" fill="#D19D0B"/>
<path d="M85.155 68.7437V71.6618C85.155 72.5959 84.6684 73.0662 83.8797 73.0662C83.0762 73.0662 82.5977 72.5747 82.5977 71.6259V68.7437H81.7078V71.6618C81.7078 73.1316 82.5553 73.8925 83.865 73.8925C85.191 73.8925 86.045 73.1316 86.045 71.6178V68.7437H85.155Z" fill="#D19D0B"/>
<path d="M91.011 71.8937C91.7148 71.6912 92.2145 71.1915 92.2145 70.3587V70.344C92.2145 69.9015 92.061 69.5324 91.7932 69.2499C91.4682 68.9315 90.9685 68.7437 90.3316 68.7437H88.0715V73.8125H88.9632V72.0456H90.0769L91.3229 73.8125H92.3811L91.011 71.8937ZM88.9632 71.2552V69.5536H90.2581C90.9244 69.5536 91.3082 69.8443 91.3082 70.3946V70.4093C91.3082 70.9303 90.9032 71.2552 90.2663 71.2552H88.9632Z" fill="#D19D0B"/>
<path d="M99.0845 68.7437H97.0857V73.8125H97.9773V72.1828H98.9832C100.105 72.1828 101.011 71.5818 101.011 70.4518V70.4371C101.011 69.4165 100.272 68.7437 99.0845 68.7437ZM100.105 70.4747C100.105 71.0021 99.6854 71.3793 99.0126 71.3793H97.9773V69.5536H99.0126C99.6789 69.5536 100.105 69.859 100.105 70.4599V70.4747Z" fill="#D19D0B"/>
<path d="M105.159 68.6571C103.603 68.6571 102.502 69.859 102.502 71.2781V71.2928C102.502 72.7184 103.588 73.8991 105.145 73.8991C106.703 73.8991 107.803 72.6972 107.803 71.2781V71.2634C107.803 69.8361 106.717 68.6571 105.159 68.6571ZM106.869 71.2928C106.869 72.2775 106.167 73.0728 105.159 73.0728C104.145 73.0728 103.437 72.2628 103.437 71.2781V71.2634C103.437 70.2787 104.139 69.4818 105.145 69.4818C106.159 69.4818 106.869 70.2934 106.869 71.2781V71.2928Z" fill="#D19D0B"/>
<path d="M109.048 68.7437V69.5683H110.663V73.8125H111.553V69.5683H113.168V68.7437H109.048Z" fill="#D19D0B"/>
<path d="M115.789 73.0156V71.6618H118.33V70.8584H115.789V69.5406H118.656V68.7437H114.899V73.8125H118.692V73.0156H115.789Z" fill="#D19D0B"/>
<path d="M124.094 68.7437V72.2481L121.379 68.7437H120.552V73.8125H121.429V70.2068L124.225 73.8125H124.97V68.7437H124.094Z" fill="#D19D0B"/>
<path d="M126.7 68.7437V69.5683H128.315V73.8125H129.205V69.5683H130.821V68.7437H126.7Z" fill="#D19D0B"/>
<path d="M132.601 68.7437V73.8125H133.492V68.7437H132.601Z" fill="#D19D0B"/>
<path d="M138.27 68.7077H137.446L135.215 73.8125H136.128L136.649 72.5878H139.046L139.559 73.8125H140.501L138.27 68.7077ZM136.974 71.799L137.842 69.7724L138.719 71.799H136.974Z" fill="#D19D0B"/>
<path d="M143.063 73.0009V68.7437H142.173V73.8125H145.728V73.0009H143.063Z" fill="#D19D0B"/>
<path d="M24.6975 71.601L2.58984 71.129L24.6975 70.6571V71.601Z" fill="#08233E"/>
<path d="M150.302 71.601L172.41 71.129L150.302 70.6571V71.601Z" fill="#08233E"/>
<path d="M109.565 78.1628C109.142 77.9848 108.665 78.0648 108.456 78.3849C108.41 78.4551 108.314 78.4911 108.209 78.5662V78.1612H71.1904C71.1904 78.1628 71.1904 78.1628 71.1904 78.1645C71.1904 78.2118 71.1822 78.2575 71.1741 78.3523C71.081 78.2804 70.9993 78.2412 70.9536 78.1743C70.9503 78.1694 70.9454 78.1628 70.9422 78.1596C70.6597 77.7742 70.1649 77.8525 69.9068 78.1596C69.8791 78.1922 69.8546 78.2281 69.8317 78.2673C69.5835 78.705 69.5737 79.1557 69.8219 79.595C69.9999 79.9036 70.3135 80.0408 70.6139 79.9363C70.7348 79.8954 70.8344 79.7877 70.9422 79.7044C71.0059 79.6538 71.0663 79.595 71.1283 79.5411C71.143 79.5509 71.1577 79.5607 71.1741 79.5688V80.0245C71.7326 80.1175 72.1898 80.3527 72.5164 80.8067C72.7516 81.1365 72.861 81.5089 72.8577 81.9073C72.8463 82.7189 72.2894 83.4374 71.5039 83.671C70.7364 83.898 69.8889 83.5893 69.4463 82.9116C69.0169 82.2519 68.9319 81.3782 69.719 80.5144C69.3924 80.2253 69.0658 79.9379 68.7278 79.6374C68.3473 80.0718 67.926 80.4213 67.2989 80.32C66.9168 80.2563 66.6065 80.0636 66.3648 79.7648C65.9746 79.2814 65.9582 78.6413 66.2914 78.1579H65.0176C64.9719 78.3131 64.9441 78.4764 64.9311 78.6495C64.8804 79.3157 65.0143 79.933 65.4373 80.4654C66.1232 81.3292 67.0327 81.5889 68.0958 81.4027C67.908 82.7434 68.5253 83.9372 69.6913 84.512C70.8393 85.0803 72.2029 84.8549 73.0847 83.9486C73.6399 83.377 73.9224 82.6912 73.9241 81.891C73.9241 81.099 73.6611 80.4082 73.119 79.822C73.2006 79.8367 73.2692 79.8612 73.3345 79.8938C73.5762 80.0147 73.8146 80.1371 74.0531 80.2661C74.1396 80.3135 74.2 80.307 74.2752 80.24C74.4434 80.0898 74.6197 79.9493 74.8157 79.7877C74.9039 80.3119 75.1782 80.6058 75.7187 80.5323C76.0878 80.4833 76.2952 80.2025 76.3605 79.7305C82.2459 79.7517 97.5701 79.7697 103.465 79.7893V80.4098H101.368C101.36 80.4458 101.354 80.467 101.354 80.4866C101.349 80.6826 101.337 80.8769 101.344 81.0729C101.364 81.5709 101.282 81.4517 101.744 81.6003C101.899 81.6509 101.937 81.731 101.938 81.8714C101.942 82.0135 101.917 82.1163 101.751 82.1392C101.664 82.1523 101.581 82.2029 101.494 82.2176C101.385 82.2388 101.352 82.2894 101.352 82.4005C101.35 83.1076 101.342 83.8163 101.337 84.5234C101.337 84.5806 101.342 84.6361 101.347 84.7063H103.219V82.9737H104.063V84.6981H105.582V82.9835H106.41V84.7112H108.273C108.278 84.5904 108.289 84.476 108.289 84.3601C108.292 83.8261 108.292 83.2921 108.292 82.7598C108.292 82.603 108.338 82.4038 108.26 82.2992C108.18 82.1947 107.977 82.1849 107.829 82.1294C107.793 82.1163 107.732 82.0935 107.731 82.0706C107.721 81.9498 107.711 81.8257 107.739 81.7097C107.75 81.6656 107.856 81.6395 107.92 81.615C108.003 81.5807 108.088 81.5497 108.175 81.5285C108.273 81.5056 108.301 81.4517 108.299 81.3586C108.297 81.0467 108.299 80.7381 108.299 80.4098H106.173V79.822H108.194C108.204 79.7844 108.207 79.7713 108.209 79.7566C108.224 79.6619 108.242 79.5705 108.256 79.4758C108.333 79.5329 108.423 79.5819 108.49 79.6489C108.738 79.902 109.034 79.9869 109.375 79.8922C109.765 79.786 110.053 79.4529 110.077 79.0838C110.102 78.6854 109.888 78.2984 109.565 78.1628ZM68.7899 78.1612H68.6543C68.6739 78.1841 68.6903 78.2085 68.7066 78.233C68.736 78.2085 68.7637 78.1857 68.7899 78.1612Z" fill="#D19D0B"/>
</svg>
