<svg width="38" height="38" viewBox="0 0 38 38" fill="none" xmlns="http://www.w3.org/2000/svg">
<path fill-rule="evenodd" clip-rule="evenodd" d="M28.7891 9.1875L23.6016 19.0625L28.7891 28.9375L30.9141 27.75V10.375L28.7891 9.1875Z" fill="#E25444"/>
<path fill-rule="evenodd" clip-rule="evenodd" d="M28.7891 9.1875L18.4141 10.375L13.1328 19.0625L18.4141 27.75L28.7891 28.9375V9.1875Z" fill="#7B1D13"/>
<path fill-rule="evenodd" clip-rule="evenodd" d="M7.85156 9.1875L6.16406 9.9375V28.1875L7.85156 28.9375L18.4141 19.0625L7.85156 9.1875Z" fill="#58150D"/>
<path fill-rule="evenodd" clip-rule="evenodd" d="M7.82886 9.16669L18.428 12.1111V26.2778L7.82886 28.9444V9.16669Z" fill="#E25444"/>
<path fill-rule="evenodd" clip-rule="evenodd" d="M18.4336 13.6667L13.9331 12.9444L18.4336 7.83331L22.923 12.9444L18.4336 13.6667Z" fill="#58150D"/>
<path fill-rule="evenodd" clip-rule="evenodd" d="M22.923 12.9444L18.428 13.6778L13.9331 12.9444V7.83331" fill="#58150D"/>
<path fill-rule="evenodd" clip-rule="evenodd" d="M18.4336 24.3889L13.9331 25.2222L18.4336 29.6111L22.923 25.2222L18.4336 24.3889Z" fill="#58150D"/>
<path fill-rule="evenodd" clip-rule="evenodd" d="M18.4141 4L13.9141 6.375V12.9375L18.4281 11.6667L18.4141 4Z" fill="#7B1D13"/>
<path fill-rule="evenodd" clip-rule="evenodd" d="M18.428 15.2777L13.9331 15.7666V22.319L18.428 22.8333V15.2777Z" fill="#7B1D13"/>
<path fill-rule="evenodd" clip-rule="evenodd" d="M18.428 26.3333L13.9331 25.2062V31.6477L18.428 34V26.3333Z" fill="#7B1D13"/>
<path fill-rule="evenodd" clip-rule="evenodd" d="M22.923 25.2062L18.4281 26.3336V34L22.923 31.6477V25.2062Z" fill="#E25444"/>
<path fill-rule="evenodd" clip-rule="evenodd" d="M18.4281 15.2777L22.923 15.7666V22.319L18.4281 22.8333V15.2777Z" fill="#E25444"/>
<path fill-rule="evenodd" clip-rule="evenodd" d="M18.4141 4L22.9141 6.375V12.9375L18.4141 11.6875V4Z" fill="#E25444"/>
</svg>
