<svg width="39" height="38" viewBox="0 0 39 38" fill="none" xmlns="http://www.w3.org/2000/svg">
<path d="M35.4584 19.0093C35.0291 19.7373 34.5974 20.456 34.1751 21.184C33.8251 21.779 33.4938 22.381 33.1484 22.976C32.9058 23.3937 32.6538 23.802 32.4088 24.2173L31.4894 25.776C30.9924 26.6323 30.5001 27.4933 30.0008 28.3473C29.5878 29.0543 29.1654 29.759 28.7548 30.466C28.2934 31.2526 27.8384 32.0428 27.3898 32.8367C27.3151 32.9673 27.2334 32.9977 27.0958 32.9977C25.9664 32.993 24.8371 32.9953 23.7054 32.9953C19.5358 32.9953 15.3638 32.993 11.1941 33C10.9888 33 10.8861 32.93 10.7881 32.762C10.4078 32.0947 10.0111 31.4367 9.62144 30.774L8.92144 29.5607C8.54577 28.9073 8.16777 28.2587 7.78744 27.6077L6.90777 26.1003C6.69777 25.741 6.49244 25.377 6.2801 25.02C5.87877 24.3387 5.47044 23.6643 5.07377 22.983C4.72377 22.3787 4.38544 21.7697 4.03777 21.1653C3.79977 20.7547 3.5501 20.351 3.3121 19.9427C3.14877 19.6627 2.99244 19.3827 2.82444 19.1027C2.7731 19.021 2.79177 18.9557 2.83377 18.8857L3.52444 17.691L4.17077 16.599L4.92444 15.3157C5.21144 14.8257 5.50544 14.3403 5.78777 13.8503C6.07477 13.3603 6.35477 12.8703 6.63944 12.378C6.97777 11.7947 7.3161 11.2113 7.6591 10.628L8.55744 9.10667L9.46744 7.54333C9.9201 6.76167 10.3774 5.98 10.8208 5.19133C10.8954 5.05367 10.9818 5 11.1404 5C12.7154 5.00467 14.2904 5.00467 15.8654 5.00467H27.1308C27.2474 4.993 27.3174 5.03733 27.3734 5.14C27.5834 5.518 27.8004 5.89133 28.0174 6.26233C28.2134 6.59833 28.4141 6.92967 28.6124 7.26567C28.9088 7.765 29.2074 8.26433 29.4991 8.766C29.8234 9.31667 30.1431 9.86967 30.4628 10.4227C30.7684 10.9523 31.0694 11.482 31.3798 12.0093C31.6691 12.504 31.9631 12.9987 32.2571 13.4933L33.1928 15.0917L34.4061 17.2033C34.5881 17.5207 34.7794 17.8333 34.9661 18.1507L35.4561 19.0117H35.4584V19.0093ZM10.9048 18.979V25.0993C10.9048 25.3863 10.9281 25.6687 11.0284 25.9487C11.2548 26.595 11.6981 27.022 12.3164 27.2927C12.6172 27.4061 12.9381 27.4561 13.2591 27.4397H24.9374C25.3714 27.4397 25.7868 27.386 26.1741 27.162C26.5087 26.9843 26.7907 26.7217 26.9917 26.4006C27.1928 26.0796 27.3059 25.7113 27.3198 25.3327C27.3268 25.2253 27.3244 25.1157 27.3244 25.0083V15.318V14.0417C27.3244 13.953 27.3058 13.8783 27.2381 13.813C27.0514 13.6333 26.8741 13.4397 26.6874 13.2623C26.2441 12.8283 25.7938 12.4037 25.3481 11.9697C25.1428 11.769 24.9421 11.5613 24.7368 11.3583C24.5268 11.1483 24.3121 10.9477 24.1068 10.733C24.0568 10.6729 23.9939 10.6249 23.9228 10.5926C23.8517 10.5603 23.7742 10.5445 23.6961 10.5463C20.2264 10.551 16.7544 10.551 13.2848 10.551C12.7948 10.551 12.3328 10.649 11.9198 10.9197C11.586 11.131 11.3154 11.4286 11.1368 11.781C10.9581 12.1334 10.878 12.5275 10.9048 12.9217V18.979Z" fill="#2378BC"/>
<path d="M10.9046 18.9767V12.924C10.8774 12.5295 10.9573 12.1349 11.136 11.782C11.3147 11.4292 11.5854 11.1312 11.9196 10.9197C12.3326 10.6514 12.7946 10.5534 13.2846 10.5534C16.7543 10.5534 20.2263 10.5534 23.696 10.5487C23.878 10.5487 23.9923 10.6164 24.1066 10.7354C24.312 10.95 24.5266 11.153 24.7366 11.3607C24.942 11.5637 25.1426 11.7714 25.348 11.972C25.7913 12.406 26.2416 12.8307 26.6873 13.2647C26.874 13.4444 27.049 13.6357 27.2356 13.8154C27.3056 13.8807 27.3243 13.9554 27.3243 14.044V25.0084C27.3243 25.1157 27.3243 25.2254 27.3196 25.335C27.3063 25.714 27.1931 26.0828 26.9915 26.404C26.7899 26.7252 26.5071 26.9875 26.1716 27.1644C25.7926 27.3659 25.366 27.461 24.9373 27.4397H13.259C12.938 27.4563 12.617 27.4062 12.3163 27.2927C12.017 27.1755 11.7468 26.9945 11.5244 26.7625C11.302 26.5304 11.1327 26.2527 11.0283 25.9487C10.9395 25.6746 10.8977 25.3874 10.9046 25.0994V18.979V18.9767ZM23.388 11.7527H13.357C13.2403 11.7527 13.1236 11.7457 13.007 11.7644C12.8593 11.7802 12.717 11.8286 12.5903 11.906C12.4636 11.9835 12.3556 12.0881 12.2743 12.2124C12.1574 12.4202 12.1054 12.6584 12.125 12.896V25.0994C12.125 25.1974 12.1226 25.3 12.1343 25.4004C12.1557 25.595 12.2381 25.7779 12.3697 25.9229C12.5013 26.0679 12.6753 26.1676 12.867 26.2077C13.0373 26.2404 13.2123 26.252 13.3873 26.252C17.151 26.2544 20.9123 26.2544 24.6736 26.252C24.8626 26.252 25.0516 26.2357 25.2406 26.2217C25.6093 26.1937 25.8496 25.9884 26.013 25.671C26.111 25.4844 26.1063 25.2837 26.1063 25.0807V18.0294V14.7627C26.1063 14.6787 26.0946 14.5947 26.0853 14.4897H23.388V11.7527Z" fill="#FAFDFE"/>
<path d="M23.388 11.7527V14.4921H26.0877C26.0947 14.5971 26.1063 14.6787 26.1063 14.7627V25.0831C26.1063 25.2837 26.111 25.4867 26.013 25.6734C25.8497 25.9907 25.6117 26.1961 25.243 26.2241C25.0517 26.2357 24.865 26.2544 24.676 26.2544H13.3873C13.2147 26.2544 13.0373 26.2427 12.867 26.2101C12.6749 26.1701 12.5004 26.0702 12.3687 25.9247C12.237 25.7792 12.1549 25.5956 12.1343 25.4004C12.125 25.3024 12.125 25.1997 12.125 25.0994V12.8961C12.125 12.6581 12.139 12.4294 12.2767 12.2147C12.3583 12.0907 12.4662 11.9863 12.5929 11.9088C12.7196 11.8314 12.8618 11.7829 13.0093 11.7667C13.126 11.7481 13.2427 11.7551 13.3593 11.7551L23.388 11.7527ZM15.4547 22.3111C15.4757 22.5911 15.485 22.8711 15.52 23.1511C15.5573 23.4404 15.6297 23.7227 15.7697 23.9911C15.8536 24.1635 15.9755 24.3145 16.1262 24.433C16.277 24.5514 16.4527 24.6341 16.64 24.6747C16.8897 24.7307 17.1417 24.7331 17.3983 24.7051C17.6775 24.688 17.9455 24.589 18.1687 24.4205C18.392 24.2521 18.5607 24.0215 18.6537 23.7577C18.7703 23.4614 18.8287 23.1511 18.8637 22.8384C18.95 22.0917 18.9057 21.3614 18.6537 20.6451C18.5993 20.4918 18.5135 20.3517 18.4018 20.2335C18.2901 20.1154 18.155 20.0219 18.005 19.9591C17.5835 19.7711 17.1074 19.7454 16.668 19.8867C16.129 20.0501 15.828 20.4327 15.6577 20.9274C15.5168 21.3749 15.4482 21.842 15.4547 22.3111ZM22.7883 15.6867C22.758 15.4091 22.7207 15.1314 22.695 14.8537C22.6708 14.4495 22.5244 14.0622 22.275 13.7431C22.1587 13.5959 22.0058 13.4816 21.8317 13.4117C21.5546 13.2986 21.2552 13.2507 20.9567 13.2717C20.7206 13.2773 20.489 13.3375 20.2801 13.4477C20.0712 13.5578 19.8907 13.7148 19.7527 13.9064C19.529 14.2445 19.3986 14.6357 19.3747 15.0404C19.3 15.7357 19.2977 16.4334 19.4913 17.1171C19.5753 17.4157 19.7013 17.6817 19.9533 17.8731C20.42 18.2347 20.9613 18.2557 21.5073 18.1297C22.0627 18.0037 22.387 17.6164 22.562 17.0914C22.7024 16.6368 22.7785 16.1624 22.7883 15.6867ZM22.513 24.6351C22.6029 24.497 22.6424 24.3322 22.625 24.1684C22.6133 23.9817 22.5527 23.9211 22.3683 23.9164C22.2377 23.9117 22.1047 23.9164 21.974 23.9141C21.8807 23.9117 21.7897 23.9001 21.6707 23.8931V19.8961C21.5027 19.8797 21.358 19.8541 21.2133 19.8517C21.0093 19.8417 20.8076 19.8991 20.6393 20.0151C20.441 20.1574 20.2263 20.2787 20.021 20.4117C19.9277 20.4701 19.8367 20.5284 19.755 20.5961C19.713 20.6287 19.6733 20.6871 19.671 20.7361C19.6625 20.872 19.6618 21.0084 19.6687 21.1444C19.6687 21.2377 19.7317 21.2704 19.818 21.2587C19.8829 21.2503 19.9459 21.2314 20.0047 21.2027C20.175 21.1094 20.3407 21.0044 20.5087 20.9087C20.5623 20.8761 20.6253 20.8621 20.686 20.8387C20.7303 21.1654 20.714 23.7391 20.6627 23.9164H20.4573C20.2683 23.9164 20.0793 23.9117 19.888 23.9164C19.7317 23.9234 19.678 23.9747 19.6687 24.1264C19.664 24.2057 19.6687 24.2851 19.6687 24.3644C19.6687 24.5697 19.7317 24.6561 19.9673 24.6537C20.7467 24.6421 21.5283 24.6491 22.3077 24.6491C22.3777 24.6491 22.45 24.6421 22.513 24.6374V24.6351ZM17.8183 17.3784V13.3534C17.585 13.3604 17.3843 13.2904 17.172 13.3347C17.0787 13.3534 16.9783 13.3627 16.9037 13.4094C16.584 13.6054 16.269 13.8107 15.961 14.0231C15.9021 14.0631 15.8591 14.1226 15.8397 14.1911C15.7879 14.3793 15.8062 14.5799 15.891 14.7557C15.9773 14.7277 16.0613 14.7091 16.136 14.6717C16.3227 14.5761 16.5023 14.4687 16.6867 14.3684C16.7333 14.3451 16.787 14.3334 16.8523 14.3101V17.2151C16.85 17.3597 16.8313 17.3784 16.689 17.3831C16.5303 17.3877 16.3693 17.3831 16.2083 17.3831C15.8537 17.3831 15.8117 17.4251 15.8303 17.7867C15.8303 17.8077 15.8303 17.8287 15.835 17.8521C15.863 18.0971 15.884 18.1181 16.129 18.1181H18.5557C18.642 18.1181 18.7027 18.0784 18.712 17.9967C18.7331 17.8766 18.7425 17.7547 18.74 17.6327C18.7283 17.4227 18.6863 17.3877 18.4717 17.3854H17.8183V17.3784Z" fill="#2478BD"/>
<path d="M15.4523 22.3112C15.4616 21.8398 15.499 21.3732 15.6553 20.9275C15.828 20.4328 16.1266 20.0478 16.6656 19.8868C17.1253 19.7468 17.5756 19.7702 18.0026 19.9592C18.3013 20.0945 18.5393 20.3162 18.6536 20.6452C18.9033 21.3615 18.9476 22.0918 18.8636 22.8385C18.8286 23.1535 18.7703 23.4638 18.6513 23.7578C18.5584 24.0212 18.3901 24.2515 18.1673 24.42C17.9445 24.5884 17.6771 24.6876 17.3983 24.7052C17.1448 24.7374 16.8877 24.7272 16.6376 24.6748C16.4505 24.6334 16.2753 24.5502 16.1249 24.4314C15.9746 24.3126 15.8531 24.1613 15.7696 23.9888C15.6351 23.7265 15.5496 23.4419 15.5176 23.1488C15.4826 22.8712 15.471 22.5888 15.45 22.3088L15.4523 22.3112ZM17.9256 22.2295C17.893 21.8888 17.8696 21.5365 17.816 21.1888C17.7937 21.0325 17.7345 20.8837 17.6433 20.7548C17.459 20.5098 16.906 20.4795 16.7123 20.8015C16.6522 20.9065 16.6014 21.0166 16.5606 21.1305C16.4836 21.3358 16.4766 21.5505 16.4673 21.7675C16.4393 22.3088 16.4253 22.8455 16.5536 23.3775C16.647 23.7765 16.815 24.0145 17.2886 23.9585C17.3793 23.9534 17.4668 23.9229 17.5411 23.8705C17.6153 23.8181 17.6734 23.7459 17.7086 23.6622C17.7638 23.5452 17.8023 23.4211 17.823 23.2935C17.8673 22.9435 17.893 22.5935 17.9256 22.2318V22.2295ZM22.7883 15.6915C22.7793 16.1671 22.7039 16.6391 22.5643 17.0938C22.3893 17.6188 22.065 18.0062 21.5073 18.1345C20.9636 18.2582 20.4246 18.2372 19.9533 17.8778C19.7191 17.6836 19.5565 17.4167 19.4913 17.1195C19.3193 16.4412 19.2805 15.7359 19.377 15.0428C19.4006 14.6381 19.531 14.2468 19.755 13.9088C19.893 13.7172 20.0735 13.5602 20.2824 13.4501C20.4913 13.3399 20.7229 13.2797 20.959 13.2742C21.2575 13.2535 21.5568 13.3014 21.834 13.4142C22.0066 13.4842 22.156 13.5938 22.2773 13.7455C22.5386 14.0722 22.6646 14.4455 22.6973 14.8562C22.7206 15.1362 22.758 15.4115 22.7906 15.6892L22.7883 15.6915ZM20.3243 15.7638C20.3103 16.1768 20.3336 16.6108 20.4643 17.0355C20.5273 17.2268 20.6416 17.3785 20.8423 17.4135C21.0663 17.4555 21.2926 17.4602 21.4653 17.2618C21.6125 17.0826 21.702 16.8629 21.722 16.6318C21.8017 16.0465 21.8017 15.4531 21.722 14.8678C21.6999 14.6898 21.6495 14.5165 21.5726 14.3545C21.5143 14.2425 21.4046 14.1142 21.288 14.0792C20.9613 13.9742 20.6066 14.0465 20.4666 14.4572C20.3266 14.8725 20.3149 15.3042 20.3219 15.7638H20.3243Z" fill="#F9FCFE"/>
<path d="M22.5153 24.6397C22.4546 24.642 22.3823 24.6514 22.31 24.6514C21.5306 24.6514 20.749 24.6444 19.9696 24.6537C19.7363 24.6584 19.671 24.5697 19.671 24.3644C19.671 24.2851 19.6663 24.2057 19.671 24.1264C19.6826 23.977 19.734 23.9234 19.8926 23.9187C20.0793 23.9141 20.2706 23.9187 20.4596 23.9187H20.665C20.7186 23.7437 20.7326 21.1654 20.6883 20.8387C20.6253 20.8621 20.5646 20.8784 20.511 20.9087C20.343 21.0067 20.1796 21.1117 20.0093 21.2051C19.9504 21.233 19.8874 21.2512 19.8226 21.2587C19.7363 21.2727 19.6756 21.2377 19.671 21.1467C19.6663 21.0114 19.6616 20.8737 19.671 20.7361C19.6756 20.6871 19.7176 20.6311 19.7573 20.5961C19.8413 20.5261 19.9323 20.4701 20.0233 20.4117C20.2286 20.2811 20.4433 20.1597 20.644 20.0151C20.8119 19.8985 21.0138 19.841 21.218 19.8517C21.3603 19.8541 21.505 19.8797 21.6753 19.8984V23.8977C21.792 23.9047 21.8853 23.9164 21.9786 23.9187C22.107 23.9211 22.24 23.9141 22.3706 23.9187C22.555 23.9257 22.6133 23.9864 22.6273 24.1707C22.6456 24.335 22.6069 24.5006 22.5176 24.6397H22.5153ZM17.8183 17.3831H18.4716C18.6863 17.3854 18.7283 17.4181 18.74 17.6327C18.7424 17.7539 18.733 17.875 18.712 17.9944C18.7003 18.0761 18.642 18.1181 18.5556 18.1157H16.129C15.884 18.1157 15.863 18.0924 15.835 17.8497C15.8317 17.828 15.8294 17.8063 15.828 17.7844C15.8116 17.4251 15.8513 17.3831 16.2083 17.3831H16.689C16.829 17.3761 16.85 17.3597 16.8523 17.2127V16.4567V14.3101C16.787 14.3334 16.7333 14.3427 16.689 14.3684C16.5023 14.4664 16.3226 14.5737 16.136 14.6717C16.0613 14.7091 15.975 14.7254 15.891 14.7534C15.8062 14.5776 15.7879 14.377 15.8396 14.1887C15.8585 14.1206 15.9006 14.0611 15.9586 14.0207C16.2713 13.8107 16.584 13.6054 16.9036 13.4071C16.9783 13.3604 17.081 13.3534 17.172 13.3347C17.382 13.2881 17.585 13.3581 17.8183 13.3534V17.3831Z" fill="#FAFCFE"/>
<path d="M17.9257 22.2295C17.893 22.5911 17.8674 22.9435 17.823 23.2911C17.8012 23.4188 17.7619 23.5428 17.7064 23.6598C17.6317 23.8395 17.4847 23.9328 17.2864 23.9561C16.815 24.0121 16.6494 23.7741 16.5537 23.3728C16.4254 22.8455 16.437 22.3065 16.4674 21.7675C16.4767 21.5505 16.4837 21.3335 16.5607 21.1305C16.6017 21.0155 16.6533 20.9046 16.7147 20.7991C16.906 20.4771 17.4614 20.5075 17.6434 20.7525C17.7343 20.8816 17.7934 21.0302 17.816 21.1865C17.8697 21.5365 17.893 21.8865 17.9257 22.2295ZM20.3244 15.7638C20.315 15.3018 20.3244 14.8725 20.4667 14.4571C20.6067 14.0465 20.9614 13.9741 21.2904 14.0768C21.4047 14.1141 21.5144 14.2401 21.5704 14.3568C21.6478 14.518 21.699 14.6905 21.722 14.8678C21.8018 15.4531 21.8018 16.0465 21.722 16.6318C21.7025 16.863 21.613 17.0828 21.4654 17.2618C21.295 17.4578 21.0664 17.4531 20.8424 17.4135C20.6417 17.3761 20.5274 17.2268 20.469 17.0355C20.3489 16.6229 20.3 16.1928 20.3244 15.7638Z" fill="#267ABE"/>
</svg>
