<svg width="38" height="38" viewBox="0 0 38 38" fill="none" xmlns="http://www.w3.org/2000/svg">
<g clip-path="url(#clip0_13719_7281)">
<path fill-rule="evenodd" clip-rule="evenodd" d="M7.39347 4C6.08003 4 5.0155 5.065 5.0155 6.37844V31.6164C5.0155 32.9303 6.08003 33.9948 7.39347 33.9948H28.85C30.163 33.9948 31.2285 32.9303 31.2285 31.6164V13.5203L22.3677 4L7.39347 4Z" fill="#45B058"/>
<path d="M14.5185 24.2486C14.5775 24.3161 14.6113 24.4004 14.6113 24.4933C14.6113 24.6704 14.4679 24.8308 14.2818 24.8308C14.1974 24.8308 14.1046 24.797 14.0455 24.7211C13.7165 24.3245 13.1591 24.0709 12.636 24.0709C11.4036 24.0709 10.4671 25.0164 10.4671 26.3584C10.4671 27.692 11.4041 28.6454 12.636 28.6454C13.1675 28.6454 13.6907 28.4176 14.0455 28.0037C14.1041 27.9362 14.1974 27.8945 14.2818 27.8945C14.4763 27.8945 14.6113 28.0628 14.6113 28.2404C14.6113 28.3248 14.5775 28.4092 14.5185 28.4767C14.0793 28.9323 13.4802 29.2703 12.6365 29.2703C11.016 29.2703 9.74146 28.0886 9.74146 26.3584C9.74146 24.6283 11.016 23.4465 12.6365 23.4465C13.4802 23.447 14.0877 23.7845 14.5185 24.2486ZM17.7069 29.2708C16.8716 29.2708 16.213 28.9923 15.7321 28.57C15.6561 28.5025 15.6224 28.4097 15.6224 28.3168C15.6224 28.1476 15.749 27.962 15.9515 27.962C16.019 27.962 16.0949 27.9789 16.154 28.0295C16.5421 28.3759 17.0821 28.6454 17.7322 28.6454C18.7368 28.6454 19.0574 28.1054 19.0574 27.6747C19.0574 26.2229 15.7236 27.025 15.7236 25.0159C15.7236 24.0878 16.5505 23.4545 17.6563 23.4545C18.3819 23.4545 19.0068 23.6734 19.4624 24.0536C19.5383 24.1211 19.5805 24.2139 19.5805 24.3067C19.5805 24.4754 19.4371 24.6442 19.251 24.6442C19.1835 24.6442 19.1075 24.6189 19.0485 24.5683C18.635 24.2308 18.1204 24.0789 17.6052 24.0789C16.9302 24.0789 16.4488 24.4417 16.4488 24.9737C16.4488 26.2398 19.7825 25.5137 19.7825 27.6156C19.783 28.435 19.2261 29.2708 17.7069 29.2708ZM25.6729 23.9954L23.7233 28.84C23.6305 29.0678 23.4022 29.2197 23.1665 29.2197H23.1496C22.9049 29.2197 22.6771 29.0678 22.5838 28.84L20.6422 23.9954C20.6254 23.9533 20.6169 23.9111 20.6169 23.8604C20.6169 23.6917 20.7683 23.4887 20.9966 23.4887C21.14 23.4887 21.275 23.5731 21.3341 23.7165L23.1571 28.4003L24.9801 23.7165C25.0307 23.5815 25.1657 23.4887 25.3176 23.4887C25.5369 23.4887 25.6972 23.6659 25.6972 23.8604C25.6977 23.9026 25.6893 23.9533 25.6729 23.9954Z" fill="white"/>
<path fill-rule="evenodd" clip-rule="evenodd" d="M31.2504 13.5423V14.0111H25.2504C25.2504 14.0111 22.2917 13.4205 22.3779 10.8672C22.3779 10.8672 22.4754 13.5423 25.1919 13.5423H31.2504Z" fill="#349C42"/>
<path opacity="0.5" fill-rule="evenodd" clip-rule="evenodd" d="M22.3896 4.00281V10.8283C22.3896 11.6045 22.9071 13.5428 25.2509 13.5428H31.2509L22.3896 4.00281Z" fill="white"/>
</g>
<defs>
<clipPath id="clip0_13719_7281">
<rect width="26.25" height="30" fill="white" transform="translate(5 4)"/>
</clipPath>
</defs>
</svg>
