<svg width="38" height="38" viewBox="0 0 38 38" fill="none" xmlns="http://www.w3.org/2000/svg">
<g clip-path="url(#clip0_13719_7318)">
<path d="M23.525 18.2L9.92505 15.8V33.5336C9.92505 34.3435 10.5816 35 11.3914 35H34.8587C35.6685 35 36.325 34.3435 36.325 33.5336V27L23.525 18.2Z" fill="#185C37"/>
<path d="M23.525 3H11.3914C10.5816 3 9.92505 3.65653 9.92505 4.4664V11L23.525 19L30.725 21.4L36.325 19V11L23.525 3Z" fill="#21A366"/>
<path d="M9.92505 11H23.525V19H9.92505V11Z" fill="#107C41"/>
<path opacity="0.1" d="M19.6587 9.40002H9.92505V29.4H19.6587C20.4674 29.3974 21.1224 28.7424 21.125 27.9336V10.8664C21.1224 10.0576 20.4674 9.40265 19.6587 9.40002Z" fill="black"/>
<path opacity="0.2" d="M18.8587 10.2H9.92505V30.2H18.8587C19.6674 30.1974 20.3224 29.5424 20.325 28.7336V11.6664C20.3224 10.8576 19.6674 10.2026 18.8587 10.2Z" fill="black"/>
<path opacity="0.2" d="M18.8587 10.2H9.92505V28.6H18.8587C19.6674 28.5974 20.3224 27.9424 20.325 27.1336V11.6664C20.3224 10.8576 19.6674 10.2026 18.8587 10.2Z" fill="black"/>
<path opacity="0.2" d="M18.0587 10.2H9.92505V28.6H18.0587C18.8674 28.5974 19.5224 27.9424 19.525 27.1336V11.6664C19.5224 10.8576 18.8674 10.2026 18.0587 10.2Z" fill="black"/>
<path d="M3.39145 10.2H18.0586C18.8685 10.2 19.525 10.8565 19.525 11.6664V26.3336C19.525 27.1435 18.8685 27.8 18.0586 27.8H3.39145C2.58157 27.8 1.92505 27.1435 1.92505 26.3336V11.6664C1.92505 10.8565 2.58157 10.2 3.39145 10.2Z" fill="url(#paint0_linear_13719_7318)"/>
<path d="M6.46655 23.7664L9.55135 18.9864L6.72496 14.2328H8.99855L10.5409 17.2728C10.6834 17.5616 10.7809 17.776 10.8338 17.9176H10.8538C10.9551 17.6872 11.0618 17.4635 11.1738 17.2464L12.8225 14.2344H14.9097L12.0113 18.96L14.9834 23.7664H12.7626L10.981 20.4296C10.897 20.2876 10.8258 20.1385 10.7682 19.984H10.7418C10.6896 20.1354 10.6203 20.2803 10.5354 20.416L8.70096 23.7664H6.46655Z" fill="white"/>
<path d="M34.8586 3H23.525V11H36.325V4.4664C36.325 3.65653 35.6685 3 34.8586 3Z" fill="#33C481"/>
<path d="M23.525 19H36.325V27H23.525V19Z" fill="#107C41"/>
</g>
<defs>
<linearGradient id="paint0_linear_13719_7318" x1="4.98252" y1="9.0542" x2="16.4676" y2="28.9458" gradientUnits="userSpaceOnUse">
<stop stop-color="#18884F"/>
<stop offset="0.5" stop-color="#117E43"/>
<stop offset="1" stop-color="#0B6631"/>
</linearGradient>
<clipPath id="clip0_13719_7318">
<rect width="34.4" height="32" fill="white" transform="translate(1.92505 3)"/>
</clipPath>
</defs>
</svg>
