<svg width="39" height="38" viewBox="0 0 39 38" fill="none" xmlns="http://www.w3.org/2000/svg">
<g clip-path="url(#clip0_13684_2728)">
<mask id="mask0_13684_2728" style="mask-type:luminance" maskUnits="userSpaceOnUse" x="7" y="2" width="25" height="34">
<path d="M22.0976 2.48633H9.33701C8.09848 2.48633 7.08514 3.49967 7.08514 4.73819V33.2618C7.08514 34.5004 8.09848 35.5137 9.33701 35.5137H28.8532C30.0917 35.5137 31.1051 34.5004 31.1051 33.2618V11.4938L22.0976 2.48633Z" fill="white"/>
</mask>
<g mask="url(#mask0_13684_2728)">
<path d="M22.0976 2.48633H9.33701C8.09848 2.48633 7.08514 3.49967 7.08514 4.73819V33.2618C7.08514 34.5004 8.09848 35.5137 9.33701 35.5137H28.8532C30.0917 35.5137 31.1051 34.5004 31.1051 33.2618V11.4938L25.8507 7.74068L22.0976 2.48633Z" fill="#0F9D58"/>
</g>
<mask id="mask1_13684_2728" style="mask-type:luminance" maskUnits="userSpaceOnUse" x="7" y="2" width="25" height="34">
<path d="M22.0976 2.48633H9.33701C8.09848 2.48633 7.08514 3.49967 7.08514 4.73819V33.2618C7.08514 34.5004 8.09848 35.5137 9.33701 35.5137H28.8532C30.0917 35.5137 31.1051 34.5004 31.1051 33.2618V11.4938L22.0976 2.48633Z" fill="white"/>
</mask>
<g mask="url(#mask1_13684_2728)">
<path d="M13.0901 18.6247V29.5087H25.1001V18.6247H13.0901ZM18.3445 28.0075H14.5914V26.1309H18.3445V28.0075ZM18.3445 25.005H14.5914V23.1285H18.3445V25.005ZM18.3445 22.0025H14.5914V20.126H18.3445V22.0025ZM23.5989 28.0075H19.8457V26.1309H23.5989V28.0075ZM23.5989 25.005H19.8457V23.1285H23.5989V25.005ZM23.5989 22.0025H19.8457V20.126H23.5989V22.0025Z" fill="#F1F1F1"/>
</g>
<mask id="mask2_13684_2728" style="mask-type:luminance" maskUnits="userSpaceOnUse" x="7" y="2" width="25" height="34">
<path d="M22.0976 2.48633H9.33701C8.09848 2.48633 7.08514 3.49967 7.08514 4.73819V33.2618C7.08514 34.5004 8.09848 35.5137 9.33701 35.5137H28.8532C30.0917 35.5137 31.1051 34.5004 31.1051 33.2618V11.4938L22.0976 2.48633Z" fill="white"/>
</mask>
<g mask="url(#mask2_13684_2728)">
<path d="M22.7562 10.8351L31.105 19.1821V11.4938L22.7562 10.8351Z" fill="url(#paint0_linear_13684_2728)"/>
</g>
<mask id="mask3_13684_2728" style="mask-type:luminance" maskUnits="userSpaceOnUse" x="7" y="2" width="25" height="34">
<path d="M22.0976 2.48633H9.33701C8.09848 2.48633 7.08514 3.49967 7.08514 4.73819V33.2618C7.08514 34.5004 8.09848 35.5137 9.33701 35.5137H28.8532C30.0917 35.5137 31.1051 34.5004 31.1051 33.2618V11.4938L22.0976 2.48633Z" fill="white"/>
</mask>
<g mask="url(#mask3_13684_2728)">
<path d="M22.0975 2.48639V9.24199C22.0975 10.4861 23.1052 11.4939 24.3494 11.4939H31.105L22.0975 2.48639Z" fill="#87CEAC"/>
</g>
<mask id="mask4_13684_2728" style="mask-type:luminance" maskUnits="userSpaceOnUse" x="7" y="2" width="25" height="34">
<path d="M22.0976 2.48633H9.33701C8.09848 2.48633 7.08514 3.49967 7.08514 4.73819V33.2618C7.08514 34.5004 8.09848 35.5137 9.33701 35.5137H28.8532C30.0917 35.5137 31.1051 34.5004 31.1051 33.2618V11.4938L22.0976 2.48633Z" fill="white"/>
</mask>
<g mask="url(#mask4_13684_2728)">
<path d="M9.33701 2.48633C8.09848 2.48633 7.08514 3.49967 7.08514 4.73819V4.92585C7.08514 3.68732 8.09848 2.67398 9.33701 2.67398H22.0976V2.48633H9.33701Z" fill="white" fill-opacity="0.2"/>
</g>
<mask id="mask5_13684_2728" style="mask-type:luminance" maskUnits="userSpaceOnUse" x="7" y="2" width="25" height="34">
<path d="M22.0976 2.48633H9.33701C8.09848 2.48633 7.08514 3.49967 7.08514 4.73819V33.2618C7.08514 34.5004 8.09848 35.5137 9.33701 35.5137H28.8532C30.0917 35.5137 31.1051 34.5004 31.1051 33.2618V11.4938L22.0976 2.48633Z" fill="white"/>
</mask>
<g mask="url(#mask5_13684_2728)">
<path d="M28.8532 35.3261H9.33707C8.09854 35.3261 7.08521 34.3127 7.08521 33.0742V33.2619C7.08521 34.5004 8.09854 35.5137 9.33707 35.5137H28.8532C30.0918 35.5137 31.1051 34.5004 31.1051 33.2619V33.0742C31.1051 34.3127 30.0918 35.3261 28.8532 35.3261Z" fill="#263238" fill-opacity="0.2"/>
</g>
<mask id="mask6_13684_2728" style="mask-type:luminance" maskUnits="userSpaceOnUse" x="7" y="2" width="25" height="34">
<path d="M22.0976 2.48633H9.33701C8.09848 2.48633 7.08514 3.49967 7.08514 4.73819V33.2618C7.08514 34.5004 8.09848 35.5137 9.33701 35.5137H28.8532C30.0917 35.5137 31.1051 34.5004 31.1051 33.2618V11.4938L22.0976 2.48633Z" fill="white"/>
</mask>
<g mask="url(#mask6_13684_2728)">
<path d="M24.3494 11.4938C23.1052 11.4938 22.0975 10.4861 22.0975 9.24194V9.4296C22.0975 10.6738 23.1052 11.6815 24.3494 11.6815H31.105V11.4938H24.3494Z" fill="#263238" fill-opacity="0.1"/>
</g>
<path d="M22.0976 2.48633H9.33701C8.09848 2.48633 7.08514 3.49967 7.08514 4.73819V33.2618C7.08514 34.5004 8.09848 35.5137 9.33701 35.5137H28.8532C30.0917 35.5137 31.1051 34.5004 31.1051 33.2618V11.4938L22.0976 2.48633Z" fill="url(#paint1_radial_13684_2728)"/>
</g>
<defs>
<linearGradient id="paint0_linear_13684_2728" x1="440.241" y1="82.5027" x2="440.241" y2="845.643" gradientUnits="userSpaceOnUse">
<stop stop-color="#263238" stop-opacity="0.2"/>
<stop offset="1" stop-color="#263238" stop-opacity="0.02"/>
</linearGradient>
<radialGradient id="paint1_radial_13684_2728" cx="0" cy="0" r="1" gradientUnits="userSpaceOnUse" gradientTransform="translate(83.1814 67.7629) scale(3873.17 3873.18)">
<stop stop-color="white" stop-opacity="0.1"/>
<stop offset="1" stop-color="white" stop-opacity="0"/>
</radialGradient>
<clipPath id="clip0_13684_2728">
<rect width="24.8657" height="34" fill="white" transform="translate(6.66235 2)"/>
</clipPath>
</defs>
</svg>
