<svg width="38" height="38" viewBox="0 0 38 38" fill="none" xmlns="http://www.w3.org/2000/svg">
<path d="M10.7245 30.6254L4.72526 20.2339C4.4946 19.8344 4.37317 19.3812 4.37317 18.9199C4.37317 18.4586 4.4946 18.0054 4.72526 17.6059L10.7245 7.2147C10.9552 6.81513 11.287 6.48333 11.6866 6.25265C12.0862 6.02197 12.5395 5.90055 13.0008 5.90057H24.9994C25.4607 5.90059 25.914 6.02203 26.3135 6.25271C26.713 6.48339 27.0448 6.81517 27.2755 7.2147L33.2747 17.6059C33.5054 18.0055 33.6269 18.4587 33.6269 18.92C33.6269 19.3814 33.5054 19.8346 33.2747 20.2342L27.2755 30.6254C27.0448 31.0249 26.713 31.3566 26.3134 31.5872C25.9139 31.8179 25.4607 31.9393 24.9994 31.9393H13.0008C12.5394 31.9393 12.0862 31.8179 11.6866 31.5872C11.287 31.3566 10.9552 31.025 10.7245 30.6254Z" fill="url(#paint0_linear_13709_6665)"/>
<path opacity="0.07" d="M31.6223 24.0577L22.7996 15.2346L19 14.2178L15.5872 15.4862L14.2692 18.9201L15.3289 22.7434L24.6851 32.0995L26.6704 32.0113L31.6223 24.0577Z" fill="black"/>
<path d="M19.0001 13.6188C16.0724 13.6188 13.699 15.9922 13.699 18.9201C13.699 21.8477 16.0724 24.2212 19.0001 24.2212C21.9277 24.2212 24.3009 21.8477 24.3009 18.9201C24.3009 15.9922 21.9275 13.6188 19.0001 13.6188ZM19.0001 22.9422C16.7786 22.9422 14.9777 21.1413 14.9777 18.9199C14.9777 16.6984 16.7786 14.8977 19.0001 14.8977C21.2215 14.8977 23.0224 16.6986 23.0224 18.9201C23.0224 21.1415 21.2215 22.9422 19.0001 22.9422Z" fill="white"/>
<path d="M16.4838 18.7153V20.3631C16.7276 20.7817 17.0715 21.1331 17.4848 21.3859V18.7153H16.4838ZM18.4687 17.3262V21.7625C18.6389 21.7938 18.8131 21.8128 18.992 21.8128C19.1552 21.8128 19.3143 21.7956 19.4704 21.7696V17.3262H18.4687ZM20.5464 19.4V21.3568C20.9662 21.0899 21.3109 20.7201 21.5478 20.2827V19.4003L20.5464 19.4ZM22.8147 22.1853L22.2655 22.735C22.219 22.7816 22.1928 22.8447 22.1928 22.9106C22.1928 22.9764 22.219 23.0396 22.2655 23.0862L24.3486 25.1687C24.3953 25.2152 24.4584 25.2414 24.5243 25.2414C24.5901 25.2414 24.6533 25.2152 24.6999 25.1687L25.2491 24.6198C25.2953 24.573 25.3213 24.51 25.3213 24.4442C25.3213 24.3785 25.2953 24.3154 25.2491 24.2687L23.1657 22.1853C23.119 22.139 23.0559 22.113 22.9902 22.113C22.9244 22.113 22.8613 22.139 22.8147 22.1853Z" fill="white"/>
<defs>
<linearGradient id="paint0_linear_13709_6665" x1="19.0001" y1="5.9008" x2="19.0001" y2="31.8988" gradientUnits="userSpaceOnUse">
<stop stop-color="#4387FD"/>
<stop offset="1" stop-color="#4683EA"/>
</linearGradient>
</defs>
</svg>
