<svg width="39" height="38" viewBox="0 0 39 38" fill="none" xmlns="http://www.w3.org/2000/svg">
<g clip-path="url(#clip0_13718_7229)">
<path d="M33.3125 21.9475C33.3125 18.1275 30.5363 14.9637 26.8975 14.4062V10.7962C27.9163 10.3625 28.5388 9.40125 28.5388 8.2825C28.5388 6.75375 27.3213 5.47625 25.8025 5.47625C24.2838 5.47625 23.0838 6.75375 23.0838 8.2825C23.0838 9.40125 23.7075 10.3625 24.725 10.7962V14.3825C23.8559 14.5004 23.0143 14.7703 22.2388 15.18C20.6313 13.955 15.3988 10.1588 12.4075 7.8675C12.4821 7.60429 12.5212 7.3323 12.5238 7.05875C12.5251 6.24906 12.2048 5.47199 11.6333 4.8984C11.0618 4.32481 10.286 4.00166 9.47628 4C8.6679 4.00331 7.89388 4.32727 7.32414 4.90075C6.75441 5.47424 6.43553 6.25037 6.43753 7.05875C6.4342 7.86811 6.75245 8.64566 7.32229 9.22042C7.89214 9.79519 8.66692 10.1201 9.47628 10.1238C10.0463 10.1238 10.5763 9.95375 11.0363 9.67875L20.5363 16.4L20.5338 16.3987C19.7818 17.1126 19.1834 17.9722 18.775 18.9252C18.3667 19.8782 18.157 20.9045 18.1588 21.9412C18.1588 23.6575 18.7238 25.24 19.6725 26.5113L16.7913 29.4288C16.5303 29.3325 16.2544 29.2829 15.9763 29.2825C15.3475 29.2825 14.7588 29.5287 14.3175 29.9737C13.875 30.4187 13.6313 31.0163 13.6313 31.65C13.6313 32.2838 13.8763 32.875 14.3175 33.32C14.76 33.765 15.3538 34 15.9775 34C16.6063 34 17.195 33.7712 17.6425 33.32C17.9469 33.0141 18.1615 32.6306 18.2631 32.2112C18.3647 31.7918 18.3494 31.3525 18.2188 30.9412L21.13 28C22.4504 29.0246 24.075 29.5793 25.7463 29.5763C29.93 29.5763 33.3125 26.16 33.3125 21.9475ZM25.7438 25.9837C23.5263 25.9837 21.7275 24.1737 21.7275 21.9412C21.7275 19.7087 23.525 17.8988 25.7438 17.8988C27.9613 17.8988 29.76 19.7087 29.76 21.9412C29.76 24.1737 27.9613 25.9837 25.7438 25.9837Z" fill="#F8761F"/>
</g>
<defs>
<clipPath id="clip0_13718_7229">
<rect width="30" height="30" fill="white" transform="translate(4.875 4)"/>
</clipPath>
</defs>
</svg>
