<svg width="38" height="38" viewBox="0 0 38 38" fill="none" xmlns="http://www.w3.org/2000/svg">
<path d="M30.3068 34.0849C30.5573 34.0849 30.7988 33.9847 30.9756 33.8079C31.1524 33.6312 31.2526 33.3896 31.2526 33.1391V10.7003C31.2526 10.4764 31.173 10.2613 31.0287 10.0904L26.0878 4.25091C25.908 4.03878 25.6429 3.91504 25.3659 3.91504H7.69417C7.44373 3.91504 7.20214 4.01521 7.02536 4.19199C6.84859 4.36877 6.74841 4.61036 6.74841 4.86079V33.1391C6.74841 33.3896 6.84859 33.6312 7.02536 33.8079C7.20214 33.9847 7.44373 34.0849 7.69417 34.0849H30.3068Z" fill="#57C021"/>
<path opacity="0.15" d="M31.2527 10.8064V10.7003C31.2527 10.4764 31.1732 10.2613 31.0288 10.0904L26.0879 4.25091C25.9082 4.03878 25.643 3.91504 25.3661 3.91504H25.3219V10.8064H31.2527Z" fill="black"/>
<path d="M13.8384 31.4061L13.9621 30.8905C14.0328 30.9141 14.1035 30.9288 14.1801 30.9288C14.407 30.9288 14.4748 30.7786 14.4748 30.4781V27.741H15.1701V30.4574C15.1701 31.0261 14.9521 31.4739 14.2862 31.4739C14.08 31.4768 13.9444 31.4444 13.8384 31.4061ZM14.407 26.9366C14.407 26.7098 14.5808 26.5595 14.8224 26.5595C15.0581 26.5595 15.2379 26.7098 15.2379 26.9366C15.2379 27.1547 15.0581 27.3167 14.8224 27.3167C14.5808 27.3167 14.407 27.1547 14.407 26.9366ZM15.6621 30.0862L15.9803 29.6501C16.216 29.8358 16.4429 29.9389 16.6904 29.9389C16.9555 29.9389 17.0734 29.824 17.0734 29.659C17.0734 29.4616 16.7994 29.3703 16.5195 29.2612C16.1836 29.1346 15.7947 28.9313 15.7947 28.4893C15.7947 28.012 16.1836 27.6761 16.7788 27.6761C17.1677 27.6761 17.4593 27.8382 17.6833 28.0032L17.371 28.4245C17.1824 28.2919 16.9968 28.1976 16.7994 28.1976C16.5637 28.1976 16.4488 28.3008 16.4488 28.454C16.4488 28.6484 16.708 28.7191 16.9879 28.8222C17.3386 28.9548 17.7275 29.1287 17.7275 29.6207C17.7275 30.0833 17.3621 30.4574 16.6727 30.4574C16.3132 30.4574 15.9214 30.3013 15.6621 30.0862ZM18.0899 29.0727C18.0899 28.1888 18.6997 27.6761 19.3626 27.6761C20.0256 27.6761 20.6354 28.1859 20.6354 29.0727C20.6354 29.9477 20.0256 30.4604 19.3626 30.4604C18.6997 30.4604 18.0899 29.9477 18.0899 29.0727ZM19.9254 29.0727C19.9254 28.5718 19.7221 28.2448 19.3626 28.2448C19.0032 28.2448 18.7999 28.5718 18.7999 29.0727C18.7999 29.5706 19.0032 29.8917 19.3626 29.8917C19.7221 29.8917 19.9254 29.5706 19.9254 29.0727ZM21.2158 27.741H21.7845L21.8316 28.0916H21.8493C22.0821 27.8647 22.3502 27.6761 22.7096 27.6761C23.2812 27.6761 23.5287 28.0739 23.5287 28.7398V30.3926H22.8334V28.8252C22.8334 28.4186 22.7184 28.2713 22.4592 28.2713C22.2412 28.2713 22.1056 28.3744 21.9053 28.5689V30.3926H21.2129L21.2158 27.741Z" fill="white"/>
<path d="M22.7463 21.8505L22.2248 21.329L25.56 17.9938L22.2248 14.6557L22.7463 14.1342L26.6029 17.9909L22.7463 21.8505ZM15.2539 21.8505L11.3972 17.9938L15.2539 14.1372L15.7754 14.6587L12.4402 17.9938L15.7754 21.329L15.2539 21.8505ZM20.0033 21.6767L19.2873 21.5058L21.0109 14.311L21.7269 14.4819L20.0033 21.6767Z" fill="white"/>
<path d="M14.5791 17.9761C14.5791 17.4723 14.9886 17.0628 15.4924 17.0628C15.9963 17.0628 16.4058 17.4723 16.4058 17.9761C16.4058 18.48 15.9963 18.8895 15.4924 18.8895C14.9886 18.8895 14.5791 18.48 14.5791 17.9761ZM17.1718 18.0115C17.1718 17.5077 17.5814 17.0982 18.0852 17.0982C18.589 17.0982 18.9985 17.5077 18.9985 18.0115C18.9985 18.5153 18.589 18.9249 18.0852 18.9249C17.5814 18.9249 17.1718 18.5153 17.1718 18.0115Z" fill="white"/>
</svg>
