<svg width="39" height="38" viewBox="0 0 39 38" fill="none" xmlns="http://www.w3.org/2000/svg">
<path d="M18.8025 11.0481C17.7819 9.51748 17.5613 7.47185 17.5131 6.63123C14.9206 7.19185 12.345 8.19748 12.4938 8.9381C12.5125 9.03123 12.63 9.1431 12.825 9.25185L12.52 9.79748C12.1475 9.58873 11.9381 9.3481 11.8813 9.0606C11.7131 8.22248 12.6625 7.46435 14.7825 6.74248C16.23 6.24935 17.69 5.95498 17.7519 5.9431L18.125 5.8681V6.24998C18.125 6.27623 18.1413 8.92998 19.3225 10.7019L18.8025 11.0481Z" fill="#CFD8DC"/>
<path d="M19.8444 30.875H19.6875C14.5675 30.875 8.86937 29.2669 8.19624 26.5756C7.78562 24.9319 9.12875 23.1156 12.08 21.325L12.405 21.8588C9.74937 23.4706 8.46999 25.0913 8.80312 26.4244C9.3875 28.7606 14.7875 30.2169 19.5237 30.2494C20.0869 29.4075 23.1125 24.4619 21.3856 17.8288L21.99 17.6713C23.9581 25.2288 19.9787 30.6944 19.9387 30.7488L19.8444 30.875Z" fill="#CFD8DC"/>
<path d="M10.5818 28.5662C10.2449 28.5662 10.0781 28.5294 10.0506 28.5225C9.94057 28.4956 9.85432 28.4112 9.82432 28.3025C9.79369 28.1937 9.82494 28.0769 9.90494 27.9975C9.94994 27.9525 14.4031 23.4925 15.0043 19.8862L15.6206 19.9887C15.1037 23.0912 12.0487 26.6281 10.8356 27.9306C12.0474 27.8612 15.1074 27.2937 20.9818 24.0056C16.3974 23.5031 15.6724 19.8331 15.6649 19.7937L16.2793 19.6806C16.3087 19.8344 17.0456 23.4375 22.0568 23.4375C22.0587 23.4375 22.0599 23.4375 22.0618 23.4375C22.2037 23.4375 22.3268 23.5325 22.3631 23.6687C22.4006 23.805 22.3406 23.9494 22.2187 24.0206C15.1968 28.0887 11.7918 28.5656 10.5818 28.5662Z" fill="#CFD8DC"/>
<path d="M13.4525 30.0625C13.3231 30.0625 13.2056 29.9825 13.16 29.8594C13.1106 29.7275 13.1556 29.5781 13.2706 29.4956C13.2919 29.48 14.4038 28.6594 15.5869 26.8531C15.1319 26.6519 14.6713 26.4169 14.2144 26.1425C13.6594 25.8094 13.24 25.4519 12.9269 25.0856C11.3206 25.5094 9.83813 25.6769 8.53625 25.5662L8.58875 24.9437C9.76126 25.0431 11.0944 24.9044 12.5394 24.5437C11.5563 22.8637 12.4588 21.1962 12.4713 21.1737L13.0175 21.4781C12.9756 21.5544 12.2269 22.9594 13.1731 24.3737C14.5488 23.9787 16.0163 23.3944 17.535 22.635C17.8844 21.4881 18.1575 20.1837 18.3006 18.7125C18.3106 18.6119 18.3681 18.5225 18.4556 18.4719C18.5431 18.4212 18.65 18.4169 18.7419 18.4587C18.7619 18.4681 20.7819 19.3906 22.2444 19.9925C22.3506 20.0362 22.4244 20.135 22.4363 20.2494C22.4488 20.3637 22.3969 20.475 22.3013 20.54C20.8706 21.515 19.4494 22.3606 18.065 23.0662C17.6263 24.4569 17.0831 25.6144 16.5281 26.5606C18.8419 27.425 20.85 27.4381 20.8756 27.4381C21.0181 27.4381 21.1425 27.5344 21.1781 27.6725C21.2138 27.8106 21.1519 27.955 21.0275 28.0244C18.19 29.6006 13.6731 30.0444 13.4825 30.0625C13.4725 30.0619 13.4625 30.0625 13.4525 30.0625ZM16.1931 27.1044C15.5431 28.1131 14.9044 28.8375 14.4269 29.3106C15.6756 29.1269 17.865 28.7244 19.6819 27.9737C18.8119 27.8669 17.5525 27.6294 16.1931 27.1044ZM13.6044 24.8944C13.85 25.1394 14.1563 25.3787 14.5356 25.6069C14.9956 25.8831 15.4625 26.1175 15.9231 26.3162C16.3944 25.5262 16.8613 24.5781 17.2619 23.4612C15.9988 24.0625 14.7725 24.5425 13.6044 24.8944ZM18.8763 19.2056C18.7481 20.3106 18.5506 21.3187 18.3056 22.2369C19.3431 21.6837 20.4019 21.0519 21.4694 20.3456C20.5013 19.9356 19.4369 19.4587 18.8763 19.2056Z" fill="#CFD8DC"/>
<path d="M15.5775 10.625C15.5044 10.625 15.4319 10.5988 15.3744 10.55C14.3681 9.68875 13.1838 7.93625 13.1338 7.86188C13.0531 7.7425 13.0656 7.58313 13.1625 7.47688C13.2588 7.37001 13.4175 7.345 13.5425 7.41313C13.5494 7.415 14.1288 7.65376 18.0531 8.30751C18.1663 8.32626 18.2594 8.405 18.2969 8.5125C18.335 8.62 18.3106 8.74 18.2344 8.825C17.1356 10.0456 15.7475 10.5831 15.6888 10.605C15.6525 10.6181 15.6144 10.625 15.5775 10.625ZM14.1544 8.21625C14.5488 8.74688 15.1169 9.46376 15.6369 9.94688C15.9563 9.80126 16.6725 9.43563 17.3519 8.82313C15.7375 8.54751 14.7525 8.35125 14.1544 8.21625Z" fill="#CFD8DC"/>
<path d="M18.0268 19.25C17.9843 19.25 17.9412 19.2413 17.9012 19.2238C17.7768 19.1688 17.7018 19.04 17.7162 18.905C17.8987 17.1869 15.2625 16.4975 15.2356 16.4913C15.1268 16.4638 15.0406 16.3794 15.0112 16.2713C14.9818 16.1631 15.0125 16.0469 15.0918 15.9675C15.2212 15.8381 18.3037 12.7813 22.1712 11.1025C22.2793 11.0556 22.4018 11.0731 22.4931 11.1463C22.5837 11.22 22.6256 11.3381 22.6018 11.4519C21.8606 15.0419 18.4081 18.9794 18.2618 19.145C18.2 19.2131 18.1137 19.25 18.0268 19.25ZM15.9093 16.0531C16.6493 16.3313 17.9456 16.975 18.2737 18.1506C19.1793 17.0206 21.1125 14.4175 21.8343 11.9419C19.0925 13.2606 16.7837 15.2494 15.9093 16.0531Z" fill="#B71C1C"/>
<path d="M12.5493 21.725L12.2524 21.175C13.4293 20.5407 14.7774 19.3732 15.8818 18.0163C14.9418 18.66 14.4037 19.1007 14.3868 19.115L13.9874 18.6338C14.0118 18.6138 15.0899 17.7294 16.8818 16.6213C17.3737 15.83 17.7518 15.0163 17.9462 14.2363C17.9793 14.1038 18.0081 13.9757 18.0312 13.8519C16.8281 13.4225 15.7181 13.1682 14.9556 13.0588C14.8399 13.0425 14.7437 12.9632 14.7049 12.8538C14.6662 12.7444 14.6918 12.6219 14.7699 12.5369C14.8231 12.4794 16.0924 11.1194 17.6787 10.3725C17.8018 10.3144 17.9493 10.3432 18.0418 10.4438C18.0837 10.4894 18.9418 11.4532 18.7237 13.4469C19.4456 13.7282 20.1893 14.07 20.9056 14.4769C22.6299 13.7019 24.5881 13.0044 26.6737 12.5832C26.7812 12.5619 26.9006 12.6007 26.9743 12.6882C27.0474 12.7757 27.0674 12.8963 27.0262 13.0025C26.2137 15.085 24.0349 17.3094 23.9424 17.4032C23.8793 17.4669 23.7931 17.4988 23.7031 17.4957C23.6137 17.4907 23.5312 17.4482 23.4749 17.3782C22.7749 16.4982 21.8599 15.7694 20.8731 15.1763C19.5137 15.8038 18.3099 16.475 17.3206 17.0819C16.0581 19.0525 14.1524 20.8619 12.5493 21.725ZM21.5574 14.8725C22.3637 15.3925 23.1143 16.0038 23.7349 16.715C24.2524 16.1538 25.4943 14.735 26.1987 13.3263C24.5424 13.7075 22.9749 14.2594 21.5574 14.8725ZM18.6243 14.0763C18.6037 14.1782 18.5799 14.2825 18.5537 14.3888C18.4224 14.9132 18.2137 15.4519 17.9462 15.9894C18.6312 15.5982 19.3893 15.1944 20.2074 14.8032C19.6837 14.5257 19.1493 14.2844 18.6243 14.0763ZM15.6549 12.545C16.3493 12.6813 17.2049 12.9038 18.1181 13.2238C18.2131 12.0719 17.9018 11.3663 17.7137 11.0538C16.8537 11.5025 16.1006 12.1338 15.6549 12.545Z" fill="#B71C1C"/>
<path d="M15.6563 15.5625C15.6563 18.3 13.375 20.475 11.7313 22.0625C11.4563 22.3312 10.525 22.375 10.525 22.375C10.7563 22.1375 11.0188 21.8875 11.3 21.6187C12.8625 20.1062 15.0313 18.0375 15.0313 15.5625C15.0313 12.6312 13.85 11.475 12.9188 10.55C12.5063 10.1312 12.1563 9.73123 11.9438 9.24373L12.1375 9.16248C12.35 9.25623 12.5938 9.36248 12.7813 9.44373C12.9313 9.66248 13.1313 9.87498 13.3625 10.1062C14.3188 11.0625 15.6563 12.375 15.6563 15.5625Z" fill="#B71C1C"/>
<path d="M31.2094 16.3713C31.2094 16.3713 30.8312 16.425 30.725 16.4375C25.25 17.0438 19.6 18.6188 16.3688 19.9125C15.2 20.3813 13.9875 20.95 12.8812 21.5875C12.875 21.5938 12.8687 21.5938 12.8562 21.6C12.2062 21.975 10.625 22.75 9.34375 23.4313C11.2188 21.4375 14.7312 19.9 16.1312 19.3375C19.3 18.0688 24.7437 16.5375 30.1 15.8813C29.4688 15.1438 27.925 13.5813 24.8875 12.4188C23.1125 11.7313 20.4125 11.3438 18.0312 11C14.2438 10.4563 12.0875 10.0938 11.8813 9.06251C11.8375 8.85626 11.8688 8.65001 11.9625 8.45001C12.1688 8.78751 12.4625 9.02501 12.6562 9.16251C12.75 9.22501 12.8188 9.26251 12.8438 9.27501L12.85 9.28126C13.7375 9.75001 16.1312 10.0938 18.125 10.3813C20.5375 10.7313 23.2687 11.125 25.1125 11.8313C29.4062 13.4875 30.8875 15.8563 30.95 15.9563C31.0063 16.05 31.2094 16.3713 31.2094 16.3713Z" fill="#B71C1C"/>
</svg>
