<svg width="38" height="38" viewBox="0 0 38 38" fill="none" xmlns="http://www.w3.org/2000/svg">
<g clip-path="url(#clip0_13709_5870)">
<path d="M12.4694 22.5173L13.4502 25.6999C13.6706 26.4225 13.7625 26.9269 13.7257 27.2144C14.2621 25.7777 14.637 24.212 14.8502 22.5173H16.0296C15.5225 25.2763 14.8537 27.2811 14.0234 28.5317C13.3765 29.4955 12.6678 29.9773 11.8961 29.9773C11.6904 29.9773 11.4367 29.9152 11.1357 29.7918V29.1267C11.2828 29.1483 11.4553 29.1598 11.6537 29.1598C12.0137 29.1597 12.304 29.0601 12.5247 28.8609C12.789 28.6183 12.9213 28.3456 12.9213 28.0433C12.9213 27.8369 12.8181 27.4134 12.6127 26.7727L11.246 22.5173H12.4694ZM4.96245 20.5612L6.75901 26.0427H6.77011L8.5777 20.5612H10.0545C10.3779 23.2796 10.5689 25.7669 10.6275 28.0214H9.38243C9.33856 25.914 9.21736 23.9321 9.01884 22.0758H9.00799L7.11196 28.0214H6.16375L4.27919 22.0758H4.2681C4.12836 23.8585 4.04019 25.8404 4.00359 28.0214H2.86816C2.94154 25.3688 3.12517 22.8823 3.41905 20.5612H4.96245Z" fill="#00758F"/>
<path d="M25.0887 20.4505C27.0212 20.4505 27.9875 21.6851 27.9875 24.1532C27.9875 25.4944 27.6969 26.5075 27.1163 27.1919C27.0116 27.317 26.8959 27.425 26.7742 27.5251L28.1417 28.2013L28.1404 28.2012L27.6548 29.0398L25.8739 28.0006C25.5786 28.088 25.2539 28.1317 24.8999 28.1317C23.951 28.1317 23.2422 27.8552 22.7736 27.3028C22.2592 26.6917 22.0021 25.7297 22.0021 24.4184C22.0021 23.0848 22.2922 22.0755 22.873 21.3903C23.402 20.7634 24.1407 20.4505 25.0887 20.4505ZM19.1707 20.4613C19.8614 20.4613 20.4895 20.6461 21.0552 21.0144L20.7678 21.6547C20.2838 21.4489 19.8065 21.3456 19.3359 21.3456C18.954 21.3456 18.6597 21.4375 18.4546 21.6225C18.2484 21.8058 18.1208 22.0417 18.1208 22.3293C18.1208 22.7712 18.4356 23.1544 19.0169 23.4781C19.2073 23.5822 19.397 23.6875 19.5861 23.794L19.6295 23.8184L19.6513 23.8306L19.6947 23.855L19.7164 23.8672L19.7597 23.8917C20.1997 24.1398 20.6138 24.3765 20.6138 24.3765C21.195 24.7891 21.4847 25.229 21.4847 25.9535C21.4847 26.5862 21.2528 27.1055 20.7907 27.5119C20.3282 27.9165 19.7068 28.1194 18.9287 28.1194C18.2009 28.1194 17.4956 27.8859 16.8124 27.4228L17.132 26.782C17.7199 27.0767 18.252 27.2239 18.7297 27.2239C19.1778 27.2239 19.5285 27.1238 19.7823 26.9263C20.0355 26.7272 20.1872 26.4497 20.1872 26.0978C20.1872 25.6548 19.8791 25.2761 19.3138 24.9585C19.1369 24.8607 18.9605 24.762 18.7846 24.6624L18.7413 24.6379C18.6618 24.5929 18.5816 24.5474 18.5032 24.5029L18.4606 24.4786C18.0789 24.2615 17.7489 24.0719 17.7489 24.0719C17.1839 23.6585 16.9005 23.2151 16.9005 22.4843C16.9005 21.88 17.1118 21.3915 17.5338 21.0199C17.9568 20.6475 18.5024 20.4613 19.1707 20.4613ZM30.2587 20.5611V27.1036H32.606V28.0213H29.0681V20.5612L30.2587 20.5611ZM33.9104 27.1065V27.2616H33.6523V28.0205H33.455V27.2616H33.1869V27.1065H33.9104ZM34.387 27.1065L34.6348 27.7295L34.8624 27.1065H35.1421V28.0205H34.9561V27.3249L34.6971 28.0205H34.563L34.3035 27.3249H34.2935V28.0205H34.1176V27.1065H34.387ZM24.9671 21.3679C23.8283 21.3679 23.2586 22.3078 23.2586 24.1863C23.2586 25.2624 23.4095 26.0427 23.7109 26.529C23.9901 26.9791 24.4272 27.2037 25.0225 27.2037C26.1613 27.2037 26.731 26.2565 26.731 24.363C26.731 23.302 26.58 22.5284 26.279 22.0418C25.9996 21.5927 25.5626 21.3679 24.9672 21.3679" fill="#F29111"/>
<path d="M21.9822 8.46226C22.3599 7.53397 23.6809 8.23696 24.1935 8.56122C24.3191 8.64235 24.4632 8.81375 24.6073 8.8771C24.832 8.88593 25.0565 8.90352 25.2817 8.91291C25.7039 9.01213 26.0994 9.0932 26.4321 9.28269C27.9783 10.1933 28.9848 11.1212 29.9111 12.6539C30.109 12.9785 30.208 13.3298 30.3696 13.6811C30.5941 14.2048 30.8462 14.7544 31.1067 15.2496C31.2233 15.4844 31.3135 15.7454 31.4754 15.9436C31.5387 16.0343 31.7183 16.061 31.8256 16.1152C32.1224 16.2688 32.482 16.3854 32.7611 16.5657C33.2823 16.8907 33.7863 17.278 34.2445 17.6745C34.4152 17.8276 34.5316 18.0442 34.6943 18.2061V18.2878C34.5499 18.3321 34.406 18.3775 34.2619 18.4139C33.9473 18.4947 33.6686 18.4764 33.3634 18.5573C33.1748 18.612 32.9406 18.6842 32.7428 18.7025L32.7611 18.7209C32.8775 19.0535 33.5071 19.3239 33.795 19.5228C34.1448 19.7752 34.4688 20.0813 34.7297 20.4328C34.8198 20.5225 34.9098 20.6042 34.9995 20.6936C35.0621 20.7843 35.0798 20.9015 35.1432 20.9823V21.0097C35.073 20.9849 35.0225 20.9376 34.9746 20.8882L34.9461 20.8584C34.9175 20.8288 34.8887 20.7997 34.8559 20.7756C34.6574 20.6401 34.4604 20.478 34.2619 20.352C33.9208 20.1355 33.5251 20.0099 33.1748 19.7926C32.9767 19.6664 32.7879 19.5228 32.5991 19.3784C32.428 19.2519 32.2395 19.009 32.132 18.8287C32.0686 18.7291 32.0599 18.612 31.9876 18.54C32.0005 18.4196 32.1107 18.3839 32.222 18.3545L32.2476 18.3478C32.286 18.3378 32.3235 18.3278 32.3563 18.3147C32.8237 18.1162 33.3809 18.0442 34.1004 18.0623C34.0733 17.8816 33.6237 17.6565 33.4802 17.5483C33.1921 17.3407 32.887 17.124 32.5814 16.935C32.4195 16.8361 32.1404 16.7638 31.961 16.6829C31.7183 16.5837 31.1787 16.4846 31.0442 16.2956C30.8157 15.9977 30.6515 15.6423 30.4922 15.2834L30.4488 15.1854L30.4053 15.0875C30.217 14.6553 29.983 14.2046 29.7942 13.762C29.6955 13.5461 29.6501 13.3567 29.542 13.1496C28.886 11.8789 27.915 10.815 26.7378 10.0668C26.351 9.82336 25.9196 9.59806 25.4434 9.44494C25.1735 9.36344 24.8497 9.40851 24.5621 9.34598H24.3729C24.2114 9.30046 24.0766 9.12925 23.9506 9.03898C23.6723 8.85 23.3935 8.7231 23.0607 8.58827C22.944 8.53418 22.611 8.40823 22.4948 8.50739C22.4228 8.52548 22.3863 8.55265 22.3686 8.62489C22.297 8.73269 22.3599 8.89507 22.4045 8.99448C22.5395 9.28256 22.7281 9.45377 22.8994 9.69722C23.0516 9.91312 23.2408 10.1566 23.3488 10.3913C23.5818 10.8959 23.6903 11.455 23.9062 11.9596C23.9862 12.1493 24.1129 12.3652 24.2294 12.5364C24.3282 12.6722 24.5078 12.7704 24.5621 12.9424C24.6704 13.1227 24.4 13.7175 24.3374 13.9065C24.1032 14.6457 24.1486 15.6733 24.4183 16.3141L24.4327 16.3478L24.447 16.3821C24.5455 16.6168 24.6509 16.8695 24.9127 16.9351C24.9307 16.9172 24.9127 16.9266 24.9484 16.9172C25.0118 16.4212 25.0296 15.9436 25.2006 15.5555C25.2994 15.3129 25.4966 15.1414 25.6318 14.9433C25.722 14.9973 25.722 15.16 25.7757 15.2676C25.8927 15.5469 26.0183 15.8531 26.1625 16.1331C26.4586 16.7099 26.7917 17.2691 27.1691 17.7737C27.2954 17.9539 27.4748 18.1523 27.6365 18.3146C27.7086 18.3774 27.7893 18.4138 27.8434 18.4946H27.8611V18.5219C27.5914 18.4225 27.4204 18.1435 27.2054 17.9806C26.8004 17.6744 26.3155 17.2146 26.0363 16.7734C25.9196 16.5201 25.7934 16.2774 25.6676 16.0253V16.0071C25.6138 16.0791 25.6318 16.1506 25.6049 16.2595C25.4882 16.7099 25.5781 17.2237 25.1735 17.3857C24.715 17.5755 24.373 17.0796 24.2294 16.8542C23.7708 16.1062 23.6451 14.8443 23.9686 13.8257C24.0405 13.6002 24.0502 13.3298 24.1757 13.1498C24.1486 12.987 24.0231 12.9425 23.9506 12.8428C23.8247 12.6723 23.717 12.4738 23.6185 12.2845C23.4292 11.9147 23.2946 11.4729 23.1509 11.0763C23.0878 10.9143 23.0697 10.7518 23.0067 10.5985C22.8993 10.3645 22.7013 10.1297 22.5485 9.9227C22.3417 9.62517 21.7393 9.0485 21.9822 8.46226ZM24.9305 10.2282C24.9546 10.2523 24.9836 10.2734 25.0136 10.2941L25.0497 10.319C25.098 10.3524 25.1447 10.3875 25.1733 10.4354C25.2187 10.4989 25.2271 10.5615 25.2815 10.625C25.2815 10.8417 25.2187 10.9857 25.0919 11.0755C25.0919 11.0755 25.0833 11.0849 25.0744 11.0937C25.0025 10.9493 24.9396 10.8057 24.8672 10.6614C24.778 10.5354 24.652 10.4355 24.5794 10.2916H24.562V10.2735C24.6704 10.2467 24.778 10.2282 24.9305 10.2282Z" fill="#00758F"/>
</g>
<defs>
<clipPath id="clip0_13709_5870">
<rect width="32.2751" height="22" fill="white" transform="translate(2.86816 8)"/>
</clipPath>
</defs>
</svg>
