<svg width="39" height="38" viewBox="0 0 39 38" fill="none" xmlns="http://www.w3.org/2000/svg">
<path d="M32.0564 21.6468C31.9007 21.1752 31.4927 20.8466 30.9651 20.7678C30.7163 20.7307 30.4314 20.7465 30.0943 20.816C29.5066 20.9372 29.0707 20.9834 28.7525 20.9923C29.9535 18.9647 30.93 16.6524 31.4922 14.4758C32.4013 10.9563 31.9155 9.35297 31.3478 8.62774C29.8455 6.70814 27.6537 5.67691 25.0095 5.64536C23.5989 5.62811 22.3606 5.90661 21.7146 6.10689C21.1132 6.00077 20.4665 5.94151 19.7879 5.93056C18.5159 5.91027 17.3921 6.18755 16.4317 6.75745C15.9001 6.57766 15.0468 6.32422 14.0615 6.16249C11.7439 5.78202 9.87608 6.07848 8.50984 7.04366C6.85545 8.21227 6.08852 10.2427 6.23036 13.0784C6.27541 13.9788 6.77905 16.7182 7.57205 19.3161C8.0278 20.8094 8.51379 22.0494 9.01652 23.0021C9.72947 24.3531 10.4923 25.1486 11.3488 25.4343C11.8288 25.5942 12.7009 25.7062 13.6182 24.9422C13.7345 25.083 13.8896 25.223 14.0955 25.3529C14.3569 25.5178 14.6766 25.6525 14.9959 25.7324C16.1465 26.02 17.2243 25.9481 18.1439 25.5449C18.1495 25.7084 18.1539 25.8647 18.1576 25.9996C18.1636 26.2185 18.1697 26.4331 18.1778 26.6337C18.2322 27.9907 18.3246 29.0457 18.5981 29.7839C18.6131 29.8245 18.6333 29.8864 18.6546 29.9521C18.7911 30.3699 19.0192 31.0693 19.5998 31.6171C20.2009 32.1846 20.9281 32.3586 21.5941 32.3586C21.9281 32.3586 22.2468 32.3147 22.5263 32.2549C23.5226 32.0413 24.6542 31.716 25.4727 30.5505C26.2467 29.4486 26.6229 27.7891 26.691 25.1742C26.6998 25.1002 26.708 25.0295 26.7157 24.9623L26.732 24.8241L26.9143 24.8402L26.9612 24.8433C27.976 24.8896 29.2169 24.6744 29.9789 24.3204C30.5811 24.041 32.5107 23.0222 32.0564 21.6468Z" fill="black"/>
<path d="M30.3213 21.9143C27.3039 22.5367 27.0965 21.5151 27.0965 21.5151C30.2823 16.7879 31.6141 10.7873 30.4649 9.31865C27.3294 5.31255 21.9019 7.20719 21.8113 7.2563L21.7821 7.26157C21.186 7.13779 20.5189 7.06414 19.769 7.05186C18.4038 7.02954 17.3681 7.40981 16.5822 8.00578C16.5822 8.00578 6.89995 4.01702 7.35032 13.0223C7.4461 14.9381 10.0962 27.518 13.2571 23.7183C14.4124 22.3288 15.5287 21.154 15.5287 21.154C16.0831 21.5223 16.7468 21.7102 17.4426 21.6428L17.4967 21.5969C17.4799 21.7694 17.4876 21.9381 17.5183 22.1379C16.704 23.0477 16.9434 23.2074 15.3156 23.5425C13.6684 23.882 14.636 24.4862 15.2678 24.6443C16.0337 24.8358 17.8056 25.1071 19.0028 23.4311L18.9551 23.6223C19.2741 23.8779 19.4981 25.2845 19.4606 26.5598C19.423 27.8349 19.398 28.7104 19.6493 29.3942C19.9008 30.0781 20.1513 31.6167 22.2913 31.1582C24.0793 30.775 25.0059 29.782 25.1348 28.1256C25.2263 26.948 25.4333 27.1222 25.4463 26.0693L25.6124 25.5709C25.8039 23.9747 25.6429 23.4597 26.7444 23.6992L27.0122 23.7228C27.8229 23.7596 28.8842 23.5923 29.507 23.3028C30.8481 22.6805 31.6435 21.6412 30.3211 21.9143H30.3213Z" fill="#336791"/>
<path d="M17.1489 13.879C16.877 13.8412 16.6307 13.8762 16.5061 13.9706C16.4361 14.0236 16.4144 14.0851 16.4085 14.1274C16.3929 14.2395 16.4714 14.3635 16.5197 14.4274C16.6563 14.6084 16.8557 14.7328 17.0532 14.7602C17.0818 14.7642 17.1103 14.7662 17.1386 14.7661C17.4678 14.7661 17.7673 14.5097 17.7936 14.3205C17.8266 14.0835 17.4826 13.9254 17.1489 13.879ZM26.1568 13.8866C26.1308 13.7008 25.8003 13.6478 25.4865 13.6914C25.1732 13.7351 24.8695 13.8765 24.8948 14.0627C24.9151 14.2075 25.1766 14.4546 25.486 14.4546C25.5122 14.4546 25.5386 14.4528 25.5652 14.4491C25.7718 14.4205 25.9233 14.2893 25.9954 14.2138C26.1049 14.0985 26.1685 13.9701 26.1568 13.8866Z" fill="white"/>
<path d="M31.3253 21.8435C31.2103 21.4956 30.84 21.3837 30.2247 21.5108C28.3979 21.8878 27.7437 21.6266 27.529 21.4684C28.9489 19.3053 30.117 16.6905 30.7471 14.251C31.0456 13.0953 31.2105 12.0221 31.224 11.1473C31.2389 10.1872 31.0753 9.48169 30.7381 9.05069C29.3783 7.31321 27.3826 6.38121 24.9669 6.35564C23.3061 6.33697 21.903 6.76198 21.6309 6.8815C21.0581 6.73905 20.4336 6.65159 19.7538 6.64043C18.507 6.62024 17.4293 6.91873 16.5371 7.52718C16.1495 7.38291 15.1479 7.03906 13.923 6.84173C11.8054 6.50083 10.1226 6.75914 8.9217 7.60987C7.48879 8.62507 6.82728 10.4398 6.95543 13.0034C6.99855 13.8659 7.49001 16.5193 8.26556 19.0603C9.28644 22.4048 10.3962 24.2981 11.5638 24.6876C11.7005 24.7332 11.858 24.765 12.0318 24.765C12.4577 24.765 12.98 24.5731 13.5233 23.9199C14.186 23.1249 14.8715 22.3493 15.5789 21.5938C16.0379 21.8402 16.5422 21.9778 17.0579 21.9916C17.059 22.0051 17.0602 22.0186 17.0614 22.0319C16.9727 22.1378 16.8857 22.2452 16.8007 22.3541C16.4434 22.8077 16.369 22.9022 15.2187 23.139C14.8915 23.2065 14.0225 23.3856 14.0098 23.9948C13.996 24.6603 15.037 24.9399 15.1556 24.9695C15.569 25.073 15.9672 25.124 16.347 25.124C17.2705 25.124 18.0833 24.8204 18.7329 24.2331C18.7129 26.6058 18.8118 28.9438 19.0967 29.6562C19.3301 30.2394 19.9001 31.6646 21.7005 31.6645C21.9647 31.6645 22.2555 31.6337 22.5754 31.5651C24.4545 31.1623 25.2706 30.3318 25.5862 28.5008C25.7551 27.5222 26.045 25.1855 26.1814 23.9321C26.4691 24.0219 26.8395 24.063 27.24 24.0628C28.0752 24.0628 29.039 23.8854 29.6434 23.6049C30.3223 23.2895 31.5475 22.5158 31.3253 21.8435ZM26.8504 13.3738C26.8442 13.7438 26.7933 14.0797 26.7393 14.4303C26.6812 14.8075 26.6211 15.1974 26.606 15.6707C26.5911 16.1313 26.6486 16.6102 26.7042 17.0733C26.8166 18.0088 26.932 18.9718 26.4854 19.9221C26.4114 19.7906 26.3453 19.6548 26.2876 19.5154C26.2321 19.3808 26.1116 19.1647 25.9447 18.8656C25.2954 17.7013 23.7751 14.9747 24.5534 13.8621C24.7852 13.5309 25.3736 13.1904 26.8504 13.3738ZM25.0603 7.10491C27.2248 7.1527 28.937 7.96244 30.1492 9.51152C31.079 10.6997 30.0552 16.1061 27.0913 20.7703C27.0615 20.7324 27.0315 20.6946 27.0014 20.657L26.9638 20.6101C27.7297 19.3452 27.58 18.0937 27.4467 16.9842C27.3919 16.5288 27.3401 16.0987 27.3533 15.6947C27.3669 15.2666 27.4235 14.8993 27.4783 14.5442C27.5456 14.1066 27.6141 13.6538 27.5952 13.12C27.6093 13.064 27.615 12.9978 27.6076 12.9193C27.5594 12.4075 26.975 10.8755 25.7839 9.48899C25.1323 8.73059 24.1821 7.88188 22.8848 7.30945C23.4428 7.19379 24.2059 7.08594 25.0603 7.10491ZM12.9483 23.4418C12.3497 24.1616 11.9363 24.0236 11.8004 23.9783C10.9147 23.6829 9.88688 21.8108 8.98075 18.8421C8.19667 16.2733 7.73848 13.6903 7.70216 12.966C7.58772 10.6752 8.143 9.07879 9.3527 8.22086C11.3214 6.82478 14.5581 7.6604 15.8587 8.08419C15.8401 8.10266 15.8206 8.11991 15.8021 8.13868C13.6678 10.2941 13.7185 13.9766 13.7237 14.2018C13.7235 14.2886 13.7308 14.4116 13.7408 14.5807C13.7775 15.2001 13.8459 16.3529 13.6633 17.6584C13.4936 18.8715 13.8676 20.0589 14.6891 20.9161C14.7734 21.0039 14.862 21.0875 14.9546 21.1665C14.589 21.5581 13.7943 22.4242 12.9483 23.4418ZM15.229 20.3988C14.5669 19.7078 14.2661 18.7468 14.4038 17.7618C14.5966 16.3828 14.5255 15.1817 14.4872 14.5365C14.4818 14.4462 14.4771 14.367 14.4743 14.3046C14.7861 14.0282 16.231 13.254 17.2614 13.4901C17.7316 13.5978 18.0181 13.918 18.1372 14.4687C18.7537 17.32 18.2188 18.5084 17.789 19.4634C17.7004 19.6601 17.6167 19.8461 17.5453 20.0385L17.4899 20.1872C17.3497 20.5632 17.2192 20.9129 17.1383 21.2448C16.4344 21.2428 15.7497 20.9421 15.229 20.3987M15.337 24.244C15.1315 24.1926 14.9466 24.1034 14.8382 24.0295C14.9288 23.9869 15.09 23.9288 15.3696 23.8712C16.7228 23.5927 16.9318 23.3961 17.3881 22.8166C17.4927 22.6837 17.6113 22.5332 17.7756 22.3497L17.7758 22.3495C18.0204 22.0756 18.1323 22.122 18.3353 22.2063C18.4997 22.2742 18.6599 22.4804 18.7249 22.7073C18.7556 22.8144 18.7901 23.0177 18.6772 23.176C17.7239 24.5108 16.3347 24.4936 15.337 24.244ZM22.4188 30.8339C20.7634 31.1886 20.1772 30.344 19.791 29.3784C19.5417 28.755 19.4191 25.944 19.5061 22.8397C19.5072 22.7984 19.5013 22.7585 19.49 22.721C19.4798 22.6468 19.4643 22.5735 19.4437 22.5016C19.3144 22.0499 18.9994 21.6721 18.6215 21.5154C18.4713 21.4532 18.1957 21.3391 17.8646 21.4238C17.9352 21.1328 18.0577 20.8042 18.1905 20.4484L18.2462 20.2987C18.3089 20.13 18.3876 19.9552 18.4708 19.7701C18.9206 18.771 19.5365 17.4024 18.868 14.3106C18.6176 13.1526 17.7814 12.587 16.5138 12.7184C15.7538 12.7971 15.0585 13.1037 14.7118 13.2795C14.6372 13.3172 14.569 13.3538 14.5053 13.3893C14.6021 12.2225 14.9677 10.0419 16.3356 8.66231C17.1969 7.79382 18.3439 7.36485 19.7414 7.38798C22.495 7.43303 24.2608 8.84615 25.2573 10.0238C26.116 11.0385 26.581 12.0607 26.7666 12.612C25.371 12.4701 24.4219 12.7455 23.9408 13.4334C22.894 14.9297 24.5134 17.8339 25.2917 19.2297C25.4344 19.4854 25.5576 19.7065 25.5964 19.8005C25.8498 20.4147 26.1779 20.8248 26.4175 21.1241C26.4909 21.2158 26.5622 21.3048 26.6163 21.3825C26.1937 21.5044 25.4344 21.7859 25.5036 23.1932C25.4478 23.8994 25.051 27.2055 24.8494 28.3736C24.5833 29.9168 24.0154 30.4915 22.4188 30.8339ZM29.3285 22.9267C28.8963 23.1273 28.173 23.2778 27.4859 23.3101C26.727 23.3456 26.3407 23.2251 26.2498 23.1509C26.2071 22.2739 26.5335 22.1823 26.879 22.0853C26.9333 22.0701 26.9862 22.0552 27.0374 22.0373C27.0691 22.0632 27.104 22.0888 27.1421 22.114C27.7521 22.5166 28.84 22.56 30.376 22.243L30.3928 22.2396C30.1857 22.4333 29.8312 22.6933 29.3285 22.9267Z" fill="white"/>
</svg>
