<svg width="39" height="38" viewBox="0 0 39 38" fill="none" xmlns="http://www.w3.org/2000/svg">
<g clip-path="url(#clip0_13718_7218)">
<path d="M16.3981 10.4018C17.4062 9.35139 18.8097 8.69995 20.3618 8.69995C22.4253 8.69995 24.2255 9.85055 25.1841 11.5586C26.0416 11.1755 26.9704 10.9781 27.9096 10.9793C31.6312 10.9793 34.6482 14.0226 34.6482 17.7767C34.6482 21.5312 31.6312 24.5747 27.9096 24.5747C27.4639 24.5749 27.0192 24.5306 26.5823 24.4423C25.738 25.9482 24.1293 26.9656 22.2828 26.9656C21.536 26.9666 20.7989 26.7969 20.1277 26.4696C19.2719 28.4826 17.278 29.8941 14.9541 29.8941C12.5341 29.8941 10.4717 28.3628 9.67995 26.2152C9.33406 26.2888 8.97558 26.3271 8.60782 26.3271C5.72655 26.3271 3.39064 23.9672 3.39064 21.0556C3.38859 20.1329 3.62838 19.2258 4.08611 18.4246C4.54385 17.6234 5.20355 16.9562 5.99947 16.4894C5.66907 15.7286 5.49899 14.9078 5.49983 14.0783C5.49983 10.7299 8.21817 8.01562 11.5712 8.01562C13.5397 8.01562 15.2891 8.9516 16.3981 10.4018Z" fill="#00A1E0"/>
<path d="M7.91794 19.3613C7.89839 19.4125 7.92503 19.4231 7.93139 19.4322C7.99005 19.4748 8.0497 19.5055 8.10983 19.5397C8.42871 19.709 8.72962 19.7585 9.04446 19.7585C9.68564 19.7585 10.0837 19.4175 10.0837 18.8683V18.8577C10.0837 18.3501 9.63443 18.1657 9.21276 18.0327L9.15801 18.0147C8.84011 17.9115 8.56584 17.8225 8.56584 17.6131V17.6021C8.56584 17.4231 8.72607 17.2912 8.97455 17.2912C9.25065 17.2912 9.57833 17.3829 9.78941 17.4996C9.78941 17.4996 9.85125 17.5397 9.87399 17.4795C9.88645 17.4475 9.99327 17.1599 10.0045 17.1288C10.0165 17.0949 9.99511 17.07 9.97335 17.0566C9.73245 16.91 9.3994 16.8099 9.05473 16.8099L8.99056 16.8104C8.40377 16.8104 7.99409 17.1648 7.99409 17.6729V17.6835C7.99409 18.2192 8.44606 18.3928 8.86944 18.5139L8.93764 18.5349C9.24613 18.6296 9.51209 18.7112 9.51209 18.9285V18.9391C9.51209 19.1377 9.33926 19.2856 9.06047 19.2856C8.95231 19.2856 8.60727 19.2834 8.2345 19.0478C8.18952 19.0215 8.16324 19.0024 8.12853 18.9815C8.1102 18.9699 8.06449 18.9497 8.04444 19.0104L7.91794 19.3613ZM17.3046 19.3613C17.2851 19.4125 17.3117 19.4231 17.3181 19.4322C17.3767 19.4748 17.4364 19.5055 17.4965 19.5397C17.8153 19.709 18.1163 19.7585 18.4311 19.7585C19.0723 19.7585 19.4704 19.4175 19.4704 18.8683V18.8577C19.4704 18.3501 19.0211 18.1657 18.5994 18.0327L18.5447 18.0147C18.2268 17.9115 17.9524 17.8225 17.9524 17.6131V17.6021C17.9524 17.4231 18.1127 17.2912 18.3612 17.2912C18.6373 17.2912 18.965 17.3829 19.1761 17.4996C19.1761 17.4996 19.2379 17.5397 19.2607 17.4795C19.2731 17.4475 19.3799 17.1599 19.3911 17.1288C19.4032 17.0949 19.3818 17.07 19.3599 17.0566C19.1191 16.91 18.7859 16.8099 18.4414 16.8099L18.3772 16.8104C17.7903 16.8104 17.3808 17.1648 17.3808 17.6729V17.6835C17.3808 18.2192 17.8326 18.3928 18.2561 18.5139L18.3242 18.5349C18.6328 18.6296 18.8991 18.7112 18.8991 18.9285V18.9391C18.8991 19.1377 18.7258 19.2856 18.4471 19.2856C18.1546 19.2877 17.8678 19.2051 17.6212 19.0478C17.5762 19.0215 17.5494 19.0033 17.5157 18.9815C17.5041 18.9739 17.4497 18.9529 17.431 19.0104L17.3046 19.3613ZM23.7126 18.2858C23.7126 18.5963 23.6547 18.8407 23.5408 19.0134C23.4281 19.1845 23.2576 19.2676 23.0197 19.2676C22.7815 19.2676 22.6119 19.1849 22.501 19.0134C22.3888 18.8411 22.3319 18.5963 22.3319 18.2858C22.3319 17.976 22.3888 17.7319 22.501 17.5611C22.6119 17.3918 22.7815 17.3094 23.0197 17.3094C23.2576 17.3094 23.4279 17.3918 23.5411 17.5609C23.6548 17.732 23.7126 17.976 23.7126 18.2858ZM24.2478 17.7105C24.1953 17.5329 24.1134 17.3763 24.0042 17.2457C23.8951 17.1148 23.7571 17.0098 23.5932 16.9332C23.4298 16.8571 23.2365 16.8183 23.0197 16.8183C22.8024 16.8183 22.6092 16.8571 22.4458 16.9332C22.282 17.0097 22.1439 17.1148 22.0344 17.2457C21.9257 17.3766 21.8437 17.5334 21.7908 17.7105C21.7387 17.8874 21.7126 18.0806 21.7126 18.2858C21.7126 18.4912 21.7387 18.6849 21.7908 18.8611C21.8438 19.0384 21.9252 19.195 22.0349 19.3261C22.1466 19.4591 22.2871 19.565 22.4458 19.6359C22.6095 19.7103 22.8024 19.7481 23.0197 19.7481C23.2365 19.7481 23.4294 19.7102 23.5932 19.6359C23.7519 19.565 23.8924 19.4591 24.0042 19.3261C24.1134 19.1955 24.1953 19.0388 24.2478 18.8611C24.3004 18.6844 24.3266 18.4908 24.3266 18.2858C24.3266 18.0811 24.3004 17.8874 24.2478 17.7105ZM28.6428 19.1849C28.6251 19.1328 28.5747 19.1524 28.5747 19.1524C28.4969 19.1822 28.414 19.2098 28.3259 19.2236C28.2287 19.238 28.1306 19.245 28.0324 19.2445C27.7733 19.2445 27.5675 19.1675 27.4201 19.0153C27.2723 18.863 27.1895 18.6168 27.1903 18.2836C27.1913 17.9805 27.2644 17.7525 27.3956 17.5788C27.5262 17.4061 27.7247 17.3175 27.9896 17.3175C28.2105 17.3175 28.3788 17.3428 28.5552 17.3985C28.5552 17.3985 28.5975 17.4168 28.6175 17.3615C28.6642 17.2315 28.699 17.1384 28.7489 16.9955C28.7631 16.955 28.7284 16.9376 28.7159 16.9327C28.6465 16.9056 28.4826 16.8615 28.3588 16.8428C28.243 16.825 28.1077 16.8156 27.9571 16.8156C27.7322 16.8156 27.5319 16.8539 27.3604 16.9305C27.1895 17.0067 27.0444 17.1118 26.9295 17.2427C26.8146 17.3736 26.7273 17.5303 26.669 17.7075C26.6111 17.8842 26.5818 18.0784 26.5818 18.2836C26.5818 18.7275 26.7015 19.0865 26.9379 19.3492C27.1748 19.6128 27.5307 19.7468 27.9945 19.7468C28.2688 19.7468 28.5503 19.6911 28.7523 19.6115C28.7523 19.6115 28.7912 19.5928 28.7743 19.5478L28.6428 19.1849ZM29.5794 17.9886C29.6047 17.8163 29.6524 17.6729 29.7258 17.5612C29.8367 17.3915 30.0058 17.2984 30.2437 17.2984C30.4814 17.2984 30.6386 17.3919 30.7513 17.5612C30.8261 17.6729 30.8586 17.8225 30.8714 17.9886H29.5794ZM31.3813 17.6097C31.3358 17.4382 31.2232 17.265 31.1493 17.1858C31.0326 17.0602 30.9187 16.9724 30.8055 16.9235C30.6413 16.8538 30.4647 16.818 30.2863 16.8184C30.0602 16.8184 29.8549 16.8563 29.6884 16.9345C29.5215 17.013 29.3811 17.1198 29.2711 17.2531C29.1611 17.3857 29.0784 17.5438 29.0258 17.7232C28.9728 17.9017 28.9462 18.0964 28.9462 18.3016C28.9462 18.5105 28.9738 18.7049 29.0285 18.88C29.0837 19.0563 29.1719 19.2118 29.2913 19.3404C29.4101 19.4699 29.5633 19.5715 29.7467 19.6423C29.9288 19.7127 30.15 19.7492 30.4043 19.7487C30.9275 19.7469 31.2032 19.6303 31.3167 19.5675C31.3367 19.5565 31.3559 19.5368 31.3318 19.4807L31.2134 19.149C31.1957 19.0995 31.1453 19.1178 31.1453 19.1178C31.0157 19.1658 30.8314 19.2522 30.4017 19.2514C30.1207 19.2509 29.9123 19.168 29.7819 19.0385C29.6478 18.9059 29.5824 18.7109 29.5708 18.4357L31.3827 18.4374C31.3827 18.4374 31.4303 18.4365 31.4352 18.3902C31.4369 18.3707 31.4975 18.0179 31.3813 17.6097ZM15.0695 17.9886C15.0953 17.8163 15.1425 17.6729 15.2161 17.5612C15.3269 17.3915 15.4961 17.2984 15.7338 17.2984C15.9717 17.2984 16.1288 17.3919 16.2419 17.5612C16.3163 17.6729 16.3488 17.8225 16.3617 17.9886H15.0695ZM16.8711 17.6097C16.8256 17.4382 16.7134 17.265 16.6395 17.1858C16.5229 17.0602 16.4088 16.9724 16.2958 16.9235C16.1316 16.8538 15.955 16.818 15.7766 16.8184C15.5508 16.8184 15.3451 16.8563 15.1787 16.9345C15.0116 17.013 14.8714 17.1198 14.7614 17.2531C14.6514 17.3857 14.5687 17.5438 14.5161 17.7232C14.4636 17.9017 14.4364 18.0964 14.4364 18.3016C14.4364 18.5105 14.4639 18.7049 14.5188 18.88C14.5739 19.0563 14.6622 19.2118 14.7815 19.3404C14.9004 19.4699 15.0535 19.5715 15.237 19.6423C15.4191 19.7127 15.6403 19.7492 15.8945 19.7487C16.4178 19.7469 16.6934 19.6303 16.8069 19.5675C16.827 19.5565 16.846 19.5368 16.8221 19.4807L16.7041 19.149C16.6858 19.0995 16.6356 19.1178 16.6356 19.1178C16.506 19.1658 16.3221 19.2522 15.8915 19.2514C15.611 19.2509 15.4026 19.168 15.2722 19.0385C15.1381 18.9059 15.0726 18.7109 15.0611 18.4357L16.8728 18.4374C16.8728 18.4374 16.9205 18.4365 16.9254 18.3902C16.9272 18.3707 16.9877 18.0179 16.8711 17.6097ZM11.1534 19.1749C11.0825 19.1184 11.0727 19.1041 11.0488 19.0676C11.0131 19.012 10.9949 18.9326 10.9949 18.832C10.9949 18.6727 11.0474 18.5583 11.1565 18.4813C11.1552 18.4816 11.3123 18.3454 11.682 18.3502C11.9415 18.3539 12.1735 18.3922 12.1735 18.3922V19.2159H12.174C12.174 19.2159 11.9437 19.2653 11.6846 19.2808C11.3158 19.3031 11.1521 19.1745 11.1534 19.1749ZM11.8743 17.9019C11.8008 17.8966 11.7056 17.8934 11.5916 17.8934C11.4361 17.8934 11.286 17.9129 11.1455 17.9508C11.0097 17.986 10.8815 18.0455 10.7669 18.1263C10.6575 18.2044 10.5676 18.3066 10.5042 18.425C10.4401 18.5445 10.4076 18.6851 10.4076 18.8427C10.4076 19.003 10.4351 19.1424 10.4904 19.2564C10.5442 19.3691 10.6255 19.4665 10.7269 19.5396C10.8274 19.613 10.9517 19.6669 11.096 19.6995C11.238 19.732 11.3991 19.7483 11.5754 19.7483C11.7612 19.7483 11.9464 19.7333 12.1258 19.7025C12.2785 19.6762 12.4307 19.6468 12.5822 19.6144C12.6423 19.6001 12.7092 19.5819 12.7092 19.5819C12.7542 19.5708 12.7505 19.5226 12.7505 19.5226L12.7496 17.8659C12.7496 17.5025 12.6526 17.2331 12.4616 17.0662C12.2715 16.8996 11.9914 16.8155 11.6293 16.8155C11.4937 16.8155 11.2749 16.8342 11.1441 16.8605C11.1441 16.8605 10.7481 16.937 10.5852 17.0643C10.5852 17.0643 10.5496 17.0866 10.5692 17.1365L10.6975 17.4811C10.7134 17.5256 10.7567 17.5105 10.7567 17.5105C10.7567 17.5105 10.7705 17.5052 10.7865 17.4958C11.1351 17.3061 11.5759 17.312 11.5759 17.312C11.7719 17.312 11.9223 17.3511 12.0239 17.4291C12.1228 17.5047 12.173 17.6191 12.173 17.8605V17.937C12.0172 17.9148 11.8743 17.9019 11.8743 17.9019ZM26.4872 16.9683C26.4898 16.9622 26.4911 16.9557 26.4912 16.9491C26.4912 16.9426 26.4899 16.936 26.4874 16.93C26.4848 16.9239 26.4811 16.9184 26.4764 16.9138C26.4717 16.9092 26.466 16.9056 26.4599 16.9033C26.4292 16.8913 26.2751 16.8588 26.1562 16.8512C25.9287 16.8374 25.8022 16.8756 25.6892 16.9265C25.577 16.9772 25.4523 17.0591 25.3828 17.1522V16.9317C25.3828 16.9011 25.361 16.8766 25.3307 16.8766H24.8663C24.8361 16.8766 24.8142 16.9011 24.8142 16.9317V19.6341C24.8142 19.6644 24.8391 19.6893 24.8694 19.6893H25.3454C25.3526 19.6893 25.3597 19.6878 25.3664 19.685C25.3731 19.6822 25.3791 19.6782 25.3842 19.673C25.3893 19.6679 25.3933 19.6618 25.396 19.6551C25.3988 19.6484 25.4002 19.6413 25.4001 19.6341V18.284C25.4001 18.1029 25.4202 17.922 25.4603 17.8086C25.4994 17.6962 25.5529 17.6064 25.6188 17.5417C25.6817 17.4798 25.7585 17.4337 25.8428 17.4073C25.9269 17.3815 26.02 17.3731 26.0859 17.3731C26.1808 17.3731 26.2849 17.3975 26.2849 17.3975C26.3196 17.4016 26.3393 17.3802 26.3509 17.3486C26.3819 17.2658 26.4702 17.0177 26.487 16.9683" fill="white"/>
<path d="M22.0192 15.7159C21.9604 15.6982 21.9006 15.6839 21.8402 15.6731C21.7588 15.6598 21.6764 15.6535 21.594 15.6545C21.2662 15.6545 21.0079 15.747 20.8268 15.9296C20.6464 16.1113 20.5239 16.3879 20.4626 16.7516L20.4402 16.8741H20.0288C20.0288 16.8741 19.979 16.8722 19.9683 16.9266L19.9011 17.3038C19.8962 17.3394 19.9117 17.3621 19.9598 17.3621H20.3602L19.954 19.6293C19.9225 19.8119 19.8859 19.962 19.8454 20.0759C19.8058 20.1881 19.7671 20.2723 19.719 20.3338C19.6725 20.3925 19.629 20.4362 19.5533 20.4615C19.4909 20.4825 19.4188 20.4923 19.34 20.4923C19.2963 20.4923 19.238 20.4851 19.1949 20.4763C19.1611 20.4697 19.1281 20.459 19.0969 20.4445C19.0969 20.4445 19.0502 20.4268 19.0315 20.4736C19.0168 20.5124 18.9099 20.8057 18.897 20.8419C18.8846 20.8779 18.9023 20.9059 18.925 20.9144C18.9784 20.9331 19.018 20.9455 19.0906 20.9629C19.1914 20.9866 19.2764 20.9878 19.3561 20.9878C19.5226 20.9878 19.6749 20.9642 19.8009 20.9189C19.9274 20.873 20.0377 20.7932 20.1358 20.6854C20.2412 20.5688 20.3076 20.4469 20.3708 20.2799C20.4336 20.1151 20.4875 19.9103 20.5302 19.6717L20.9385 17.3621H21.5352C21.5352 17.3621 21.5854 17.3638 21.5957 17.309L21.6634 16.9324C21.6678 16.8963 21.6528 16.8741 21.6041 16.8741H21.0248C21.028 16.8611 21.0543 16.6572 21.1206 16.4653C21.1491 16.3838 21.2025 16.3175 21.2475 16.2721C21.2899 16.2289 21.342 16.1965 21.3994 16.1776C21.4569 16.1589 21.5223 16.15 21.594 16.15C21.6483 16.15 21.7022 16.1562 21.7426 16.1647C21.7988 16.1768 21.8206 16.183 21.8353 16.1874C21.8945 16.2053 21.9025 16.1879 21.9141 16.1593L22.0526 15.7792C22.0669 15.7382 22.0317 15.7208 22.0192 15.7159ZM13.9254 19.6343C13.9254 19.6645 13.9035 19.6891 13.8733 19.6891H13.3929C13.3626 19.6891 13.3412 19.6646 13.3412 19.6343V15.7676C13.3412 15.7374 13.3626 15.7128 13.3929 15.7128H13.8732C13.9035 15.7128 13.9254 15.7373 13.9254 15.7676V19.6343Z" fill="white"/>
</g>
<defs>
<clipPath id="clip0_13718_7218">
<rect width="31.2889" height="22" fill="white" transform="translate(3.375 8)"/>
</clipPath>
</defs>
</svg>
