<svg width="38" height="38" viewBox="0 0 38 38" fill="none" xmlns="http://www.w3.org/2000/svg">
<g clip-path="url(#clip0_13719_7253)">
<path d="M30.2235 8.71955C30.1999 8.54846 30.05 8.45377 29.9262 8.44334C29.0128 8.37471 28.0994 8.30662 27.186 8.23908C27.186 8.23908 25.3687 6.43498 25.1693 6.23529C24.9697 6.03572 24.5799 6.09643 24.4287 6.14096C24.4064 6.14752 24.0316 6.26318 23.4117 6.45502C22.8047 4.70822 21.7333 3.10299 19.8486 3.10299C19.7966 3.10299 19.743 3.1051 19.6895 3.10814C19.1535 2.39928 18.4895 2.09131 17.916 2.09131C13.5255 2.09131 11.428 7.57979 10.7703 10.3688C9.06432 10.8975 7.85236 11.2733 7.69756 11.3219C6.74529 11.6206 6.71518 11.6506 6.59014 12.5479C6.49604 13.2273 4.00439 32.4963 4.00439 32.4963L23.4198 36.134L33.9397 33.8583C33.9397 33.8583 30.2467 8.89064 30.2235 8.71955ZM22.3386 6.78689L20.6958 7.29537C20.6963 7.17959 20.6969 7.06568 20.6969 6.94111C20.6969 5.85549 20.5462 4.98139 20.3045 4.28846C21.2756 4.41033 21.9224 5.51529 22.3386 6.78689ZM19.0998 4.50373C19.3698 5.18025 19.5453 6.15115 19.5453 7.46131C19.5453 7.52834 19.5447 7.58963 19.5442 7.65162C18.4758 7.98256 17.3148 8.34186 16.1512 8.70232C16.8046 6.18092 18.0292 4.96311 19.0998 4.50373ZM17.7954 3.26893C17.9849 3.26893 18.1758 3.33326 18.3585 3.459C16.9514 4.12111 15.4432 5.78869 14.8063 9.11881L12.1243 9.94943C12.8703 7.40939 14.6419 3.26893 17.7954 3.26893Z" fill="#95BF46"/>
<path d="M29.9262 8.44334C29.0128 8.37471 28.0995 8.30662 27.186 8.23908C27.186 8.23908 25.3688 6.43498 25.1693 6.2353C25.0947 6.161 24.994 6.12291 24.8888 6.10651L23.4208 36.1338L33.9398 33.8583C33.9398 33.8583 30.2467 8.89065 30.2235 8.71955C30.2 8.54846 30.0501 8.45377 29.9262 8.44334Z" fill="#5E8E3E"/>
<path d="M19.8487 14.256L18.5515 18.1146C18.5515 18.1146 17.415 17.508 16.0219 17.508C13.9796 17.508 13.8768 18.7897 13.8768 19.1126C13.8768 20.8749 18.4705 21.5501 18.4705 25.678C18.4705 28.9256 16.4107 31.0168 13.6334 31.0168C10.3006 31.0168 8.59619 28.9426 8.59619 28.9426L9.48857 25.9941C9.48857 25.9941 11.2405 27.4982 12.7188 27.4982C13.6848 27.4982 14.0778 26.7377 14.0778 26.182C14.0778 23.8832 10.309 23.7807 10.309 20.0034C10.309 16.8242 12.5909 13.7477 17.1971 13.7477C18.9719 13.7477 19.8487 14.256 19.8487 14.256Z" fill="white"/>
</g>
<defs>
<clipPath id="clip0_13719_7253">
<rect width="30" height="34.2188" fill="white" transform="translate(4 2)"/>
</clipPath>
</defs>
</svg>
