<svg width="39" height="38" viewBox="0 0 39 38" fill="none" xmlns="http://www.w3.org/2000/svg">
<g clip-path="url(#clip0_13719_7263)">
<path d="M28.1414 4H11.6086C7.88975 4 4.875 7.01475 4.875 10.7336V27.2664C4.875 30.9852 7.88975 34 11.6086 34H28.1414C31.8602 34 34.875 30.9852 34.875 27.2664V10.7336C34.875 7.01475 31.8602 4 28.1414 4Z" fill="#6772E5"/>
<path fill-rule="evenodd" clip-rule="evenodd" d="M18.6956 15.6384C18.6956 14.9213 19.2879 14.5992 20.2439 14.5992C21.8281 14.6335 23.3827 15.0355 24.7849 15.7734V11.5234C23.3422 10.9576 21.8039 10.6753 20.2543 10.692C16.5549 10.692 14.0818 12.6248 14.0818 15.8878C14.0818 20.938 21.0232 20.1171 21.0232 22.2993C21.0232 23.141 20.2855 23.4111 19.2775 23.4111C17.5018 23.3132 15.773 22.8045 14.2273 21.9252V26.2792C15.8024 26.9598 17.4993 27.3133 19.2151 27.3183C23.008 27.3183 25.6266 25.4478 25.6266 22.1226C25.6578 16.7087 18.6956 17.6855 18.6956 15.6384Z" fill="white"/>
</g>
<defs>
<clipPath id="clip0_13719_7263">
<rect width="30" height="30" fill="white" transform="translate(4.875 4)"/>
</clipPath>
</defs>
</svg>
